M48
;GenerationSoftware,Autodesk,EAGLE,9.7.0*%
;CreationDate,2026-06-09T23:01:26Z*%
FMAT,2
ICI,OFF
METRIC,TZ,000.000
T10C0.350
T9C0.600
T8C0.750
T7C1.000
T6C1.016
T5C1.092
T4C1.100
T3C1.300
T2C1.600
T1C3.797
%
G90
M71
T1
X3302Y94742
X3302Y3302
T2
X11684Y19558
X11430Y83820
X11430Y76200
X11430Y30480
X11430Y38100
X11430Y45720
X119126Y13462
X119126Y5842
X11684Y11938
T3
X12152Y63754
X7152Y63754
X12152Y56134
X7152Y56134
T4
X20998Y44164
X20998Y46704
X20998Y49244
X20998Y51784
X20998Y54324
X20998Y56864
X20998Y59404
X20998Y61944
X20998Y64484
X45998Y61944
X45998Y59404
X45998Y56864
X45998Y54324
X45998Y49244
X45998Y51784
X45998Y46704
X45998Y44164
X45998Y41624
X45998Y39084
X20998Y36544
X20998Y39084
X20998Y41624
T5
X121920Y95758
X121920Y24638
T6
X108712Y26565
X108712Y24025
X106172Y26565
X106172Y24025
X103632Y26565
X103632Y24025
X98552Y24025
X101092Y24025
X98552Y26565
X85852Y24025
X85852Y26565
X88392Y24025
X88392Y26565
X101092Y26565
X90932Y26565
X93472Y24025
X93472Y26565
X96012Y24025
X96012Y26565
X90932Y24025
T7
X89662Y58166
X102362Y45466
X104902Y58166
X89662Y88646
X89662Y86106
X89662Y83566
X89662Y81026
X89662Y78486
X89662Y75946
X89662Y73406
X89662Y68326
X89662Y65786
X89662Y63246
X89662Y60706
X102362Y88646
X104902Y60706
X104902Y63246
X104902Y65786
X104902Y68326
X104902Y70866
X104902Y73406
X104902Y75946
X104902Y78486
X89662Y70866
X104902Y81026
X104902Y83566
X89662Y55626
X89662Y50546
X89662Y48006
X89662Y45466
X89662Y42926
X89662Y40386
X89662Y37846
X89662Y35306
X89662Y32766
X104902Y53086
X104902Y50546
X104902Y48006
X104902Y45466
X104902Y40386
X104902Y37846
X104902Y35306
X104902Y32766
X92662Y84836
X92662Y82296
X92662Y79756
X92662Y77216
X92662Y74676
X89662Y53086
X104902Y55626
X98282Y90956
X96282Y90956
X104902Y42926
X89662Y91186
X97282Y45466
X104902Y88646
X104902Y91186
X104902Y86106
X94742Y45466
X92202Y45466
X99822Y45466
T8
X87122Y91186
X84582Y91186
X87122Y88646
X84582Y88646
X87122Y86106
X84582Y86106
X87122Y83566
X84582Y83566
X87122Y81026
X84582Y81026
X87122Y78486
X84582Y78486
X87122Y75946
X84582Y75946
X87122Y73406
X84582Y73406
X87122Y70866
X84582Y70866
X87122Y68326
X84582Y68326
X87122Y65786
X84582Y65786
X84582Y63246
X87122Y60706
X84582Y60706
X87122Y58166
X84582Y58166
X87122Y55626
X84582Y55626
X87122Y53086
X84582Y53086
X84582Y50546
X87122Y48006
X84582Y48006
X87122Y45466
X84582Y45466
X87122Y42926
X84582Y42926
X87122Y40386
X84582Y40386
X87122Y37846
X84582Y37846
X87122Y35306
X84582Y35306
X87122Y32766
X84582Y32766
X109982Y91186
X107442Y91186
X109982Y88646
X107442Y88646
X107442Y42926
X107442Y32766
X109982Y32766
X107442Y35306
X109982Y35306
X107442Y37846
X109982Y37846
X107442Y40386
X109982Y42926
X109982Y40386
X107442Y53086
X107442Y45466
X109982Y45466
X107442Y48006
X109982Y48006
X107442Y50546
X109982Y50546
X109982Y53086
X87122Y63246
X107442Y55626
X109982Y55626
X107442Y58166
X109982Y58166
X107442Y60706
X109982Y60706
X107442Y63246
X109982Y63246
X107442Y65786
X109982Y65786
X107442Y68326
X109982Y68326
X107442Y70866
X109982Y70866
X107442Y73406
X109982Y73406
X107442Y75946
X109982Y75946
X107442Y78486
X109982Y78486
X107442Y81026
X109982Y81026
X107442Y83566
X109982Y83566
X107442Y86106
X109982Y86106
X87122Y50546
T9
X98362Y76216
X102362Y78216
X100362Y78216
X98362Y78216
X102362Y76216
X100362Y76216
T10
X73152Y81280
X22860Y91948
X19558Y25400
X25400Y26162
X24892Y31750
X29972Y32766
X17018Y31750
X20066Y29210
X17272Y26924
X26670Y27178
X35052Y25400
X30988Y25146
X33274Y27559
X35408Y29591
X37338Y28956
X41656Y26162
X38100Y24130
X32004Y20066
X29464Y20320
X37846Y12700
X37846Y16764
X41148Y13462
X45212Y9398
X35306Y6604
X44450Y3048
X55626Y3810
X65786Y5334
X86360Y6858
X82296Y10160
X86106Y9906
X89154Y8890
X79197Y9931
X76454Y9906
X72898Y9906
X101346Y4318
X98806Y6858
X97790Y8636
X92710Y15748
X88138Y21336
X119634Y24892
X112776Y15748
X113030Y22606
X101346Y40386
X82550Y36068
X82042Y34290
X81534Y29718
X82296Y22352
X101854Y53848
X92710Y70866
X97282Y70866
X82550Y81280
X90932Y79756
X86360Y74676
X86106Y79756
X66294Y79502
X71882Y79502
X71374Y74422
X32766Y92964
X14732Y37084
X13462Y34036
X13970Y28702
X18288Y34544
X23368Y31750
X24130Y34036
X81026Y42418
X82042Y44196
X112903Y95263
X87503Y95263
X62103Y95263
X36703Y95263
X11303Y95263
X122428Y89764
X20828Y89764
X30353Y84265
X4953Y84265
X116078Y78765
X39878Y78765
X125603Y73266
X100203Y73266
X24003Y73266
X58928Y67767
X33528Y67767
X8128Y67767
X119253Y62268
X17653Y62268
X128778Y56769
X103378Y56769
X52578Y56769
X27178Y56769
X1778Y56769
X112903Y51270
X11303Y51270
X122428Y45771
X30353Y40272
X4953Y40272
X116078Y34773
X125603Y29273
X100203Y29273
X84328Y23774
X46228Y1778
X20828Y1778
X71628Y1778
X11303Y7277
X1778Y12776
X27178Y12776
X33528Y23774
X119253Y95263
X93853Y95263
X68453Y95263
X43053Y95263
X17653Y95263
X116078Y89764
X65278Y89764
X14478Y89764
X125603Y84265
X100203Y84265
X74803Y84265
X122428Y78765
X97028Y78765
X20828Y78765
X30353Y73266
X4953Y73266
X128778Y67767
X103378Y67767
X77978Y67767
X27178Y67767
X1778Y67767
X112903Y62268
X36703Y62268
X11303Y62268
X84328Y56769
X33528Y56769
X119253Y51270
X17653Y51270
X116078Y45771
X39878Y45771
X14478Y45771
X125603Y40272
X24003Y40272
X122428Y34773
X20828Y34773
X106553Y29273
X4953Y29273
X128778Y23774
X39878Y1778
X14478Y1778
X65278Y1778
X17653Y7277
X8128Y12776
X58928Y12776
X109728Y12776
X1778Y23774
X125603Y95263
X100203Y95263
X74803Y95263
X49403Y95263
X24003Y95263
X11684Y78740
X8128Y89764
X119253Y84265
X93853Y84265
X68453Y84265
X128778Y78765
X103378Y78765
X52578Y78765
X27178Y78765
X1778Y78765
X36703Y73266
X122428Y67767
X97028Y67767
X20828Y67767
X81153Y62268
X30353Y62268
X4953Y62268
X116078Y56769
X65278Y56769
X39878Y56769
X14478Y56769
X125603Y51270
X24003Y51270
X8128Y45771
X119253Y40272
X17653Y40272
X128778Y34773
X103378Y34773
X27178Y34773
X1778Y34773
X112903Y29273
X62103Y29273
X33528Y1778
X8128Y1778
X58928Y1778
X24003Y7277
X14478Y12776
X4953Y18275
X30353Y18275
X106553Y18275
X46228Y23774
X106553Y95263
X81153Y95263
X55753Y95263
X30353Y95263
X128778Y89764
X103378Y89764
X27178Y89764
X1778Y89764
X112903Y84265
X62103Y84265
X33528Y78765
X8128Y78765
X119253Y73266
X17653Y73266
X116078Y67767
X39878Y67767
X14478Y67767
X125603Y62268
X100203Y62268
X49403Y62268
X24003Y62268
X122428Y56769
X4953Y51270
X128778Y45771
X27178Y45771
X1778Y45771
X112903Y40272
X11303Y40272
X8128Y34773
X119253Y29273
X27178Y1778
X52578Y1778
X4953Y7277
X30353Y7277
X44196Y88646
X47498Y86614
X48006Y78994
X62992Y37084
X55626Y28448
X46482Y8890
X55626Y22606
X94742Y40894
X93472Y64262
X56431Y60663
X61794Y79176
X51097Y69131
X43434Y71628
X46228Y71628
X53848Y72136
X81534Y80772
X97235Y38561
X54102Y7067
X96520Y37846
X92456Y65024
X81026Y81994
X53457Y73289
X52428Y7978
X93980Y34036
X82042Y79502
X91143Y60749
X49530Y8105
X53998Y69596
X92710Y43688
X81534Y45720
X66802Y38354
X49995Y72601
X58420Y60038
X41910Y91948
X95758Y80264
X94437Y63246
X46990Y34544
X57658Y34544
X55372Y30480
X64008Y38608
X63967Y53807
X48260Y21082
X49276Y13970
X48872Y7366
X93876Y32766
X61364Y31750
X80180Y48938
X65702Y58590
X64651Y58809
X58928Y83566
X60706Y90424
X96774Y81280
X95250Y61976
X51158Y74673
X56642Y24638
X99822Y42926
X52578Y10668
X76200Y77828
X59389Y55579
X63500Y58928
X1524Y38608
X80518Y50800
X67056Y30480
X58674Y5588
X39624Y34544
X80010Y3556
X80772Y21590
X96012Y6350
X84582Y18542
X79756Y33528
X37084Y40894
X60960Y36068
X67056Y33274
X80010Y40894
X65024Y61722
X73879Y6893
X96266Y31496
X33274Y43688
X41402Y54864
X66802Y58420
X46482Y85344
X46482Y84074
X47498Y84582
X49530Y83820
X51308Y83820
X49530Y81788
X51308Y81788
X49530Y79756
X51308Y79756
X49530Y77724
X51308Y77724
X49276Y74168
X47752Y20066
X47752Y18796
X48768Y19558
X50546Y18034
X50546Y16256
X50546Y14224
X50546Y12192
X37846Y2286
X41910Y14986
X49530Y3556
X100076Y59690
X93726Y56896
X92710Y51054
X91186Y46990
X92710Y41402
X92456Y36830
X97282Y41656
X99822Y41656
X99568Y37084
X102108Y43688
X101092Y47498
X101854Y72136
X100076Y74422
X101600Y84074
X92202Y88392
X53848Y70612
X98448Y67310
X96528Y64524
X99473Y57159
X97493Y55075
X99210Y80264
X70866Y89408
X77978Y84328
X61722Y89154
X55880Y83820
X98044Y85852
X94996Y83058
X91186Y83058
X91186Y85598
X82804Y86106
X81534Y89154
X95250Y85344
X99568Y83312
X101092Y87376
X95707Y88290
X94488Y90170
X100330Y91186
X92202Y61722
X95250Y57658
X95250Y54864
X99822Y51816
X103378Y49276
X94742Y38354
X99822Y32258
X83566Y41656
X83312Y48768
X81788Y64262
X81788Y61468
X81788Y58674
X81509Y68732
X82804Y74930
X82296Y76962
X39878Y6858
X53340Y23876
X58166Y23622
X65786Y37084
X46736Y33274
X42418Y33020
X52578Y36830
X66294Y41402
X66294Y48514
X66294Y55626
X38354Y80518
X39116Y89408
X44196Y90932
X44196Y92456
X28702Y91186
X25400Y89662
X9398Y78740
X13970Y78740
X9144Y72898
X13716Y72898
X11430Y72898
X10160Y14224
X11176Y8890
X13716Y9144
X20574Y10414
X14986Y10668
X117094Y15494
X121158Y15494
X121920Y12446
X119126Y10668
X116332Y12446
X43688Y26162
X41148Y29464
X45580Y68317
X45636Y16172
X41656Y18796
X54864Y29314
X8937Y10414
X12954Y14431
X59268Y81702
X45565Y13021
X48006Y8636
X83777Y31707
X55669Y81745
X57912Y90424
X96520Y5080
X94996Y6604
X94996Y11430
X93726Y14478
X82804Y7089
X45872Y7010
X44425Y4801
X54610Y33505
X50038Y33505
X115316Y23876
X116586Y20066
X58928Y89764
X122936Y18034
X123952Y21590
X128778Y21082
X126746Y6604
X125476Y5080
X124460Y3302
X122936Y2032
X129032Y22860
X129286Y25146
X129286Y26924
X85420Y1394
X92456Y1448
X97739Y1422
X102794Y1397
X108001Y1422
X113335Y1448
X118872Y1397
X81204Y1626
X74676Y3556
X68834Y5842
X68834Y10414
X102319Y38905
X103421Y41867
X97366Y31666
X95400Y29634
X97686Y72971
X80264Y79144
X48120Y69446
X41035Y79504
X49285Y68421
X42282Y67024
X38749Y72646
X45861Y75186
X41300Y88569
X83142Y46378
X55118Y59182
X58420Y56896
X55118Y55880
X51308Y55626
X53594Y57658
X81280Y39624
X82042Y38100
X80264Y37084
X71374Y72644
X79713Y74973
X72136Y69342
X75692Y67056
X64008Y68580
X64008Y70866
X64262Y74422
X73406Y70612
X65532Y62738
X68326Y58166
X62230Y58674
X59436Y60452
X60452Y55372
X35560Y52070
X36322Y53594
X37338Y51562
X31242Y52324
X33020Y47244
X37592Y46228
X26416Y52324
X28194Y46482
X29718Y52578
X55372Y10414
X62992Y16002
X62230Y10414
X68326Y27178
X64770Y25908
X59436Y28956
X61976Y33020
X64008Y35052
X67564Y35052
X60706Y37338
X61214Y42418
X56896Y32766
X57658Y36830
X43434Y35814
X39116Y38354
X37084Y34036
X41148Y42164
X53086Y62738
X57404Y65278
X52070Y65532
X54864Y74422
X65532Y82042
X74168Y76962
X76962Y74168
X23990Y28677
X23990Y30251
X24778Y29464
X79756Y76962
X76708Y79756
M30