G04 EAGLE Gerber RS-274X export*
G75*
%MOMM*%
%FSLAX34Y34*%
%LPD*%
%INSoldermask Bottom*%
%IPPOS*%
%AMOC8*
5,1,8,0,0,1.08239X$1,22.5*%
G01*
G04 Define Apertures*
%ADD10C,4.000500*%
%ADD11R,2.603200X2.603200*%
%ADD12C,2.603200*%
%ADD13R,1.461200X1.461200*%
%ADD14C,1.461200*%
%ADD15P,1.8695X8X22.5*%
%ADD16R,1.711200X1.711200*%
%ADD17C,1.879600*%
%ADD18P,1.85219X8X22.5*%
%ADD19C,1.711200*%
%ADD20C,1.311200*%
%ADD21R,1.853200X1.853200*%
%ADD22C,2.153200*%
%ADD23C,1.061200*%
%ADD24C,1.841500*%
%ADD25C,0.959600*%
D10*
X33020Y947420D03*
X33020Y33020D03*
D11*
X114300Y838200D03*
D12*
X114300Y762000D03*
D13*
X871220Y911860D03*
D14*
X845820Y911860D03*
X871220Y886460D03*
X845820Y886460D03*
X871220Y861060D03*
X845820Y861060D03*
X871220Y835660D03*
X845820Y835660D03*
X871220Y810260D03*
X845820Y810260D03*
X871220Y784860D03*
X845820Y784860D03*
X871220Y759460D03*
X845820Y759460D03*
X871220Y734060D03*
X845820Y734060D03*
X871220Y708660D03*
X845820Y708660D03*
X871220Y683260D03*
X845820Y683260D03*
X871220Y657860D03*
X845820Y657860D03*
X871220Y632460D03*
X845820Y632460D03*
X871220Y607060D03*
X845820Y607060D03*
X871220Y581660D03*
X845820Y581660D03*
X871220Y556260D03*
X845820Y556260D03*
X871220Y530860D03*
X845820Y530860D03*
X871220Y505460D03*
X845820Y505460D03*
X871220Y480060D03*
X845820Y480060D03*
X871220Y454660D03*
X845820Y454660D03*
X871220Y429260D03*
X845820Y429260D03*
X871220Y403860D03*
X845820Y403860D03*
X871220Y378460D03*
X845820Y378460D03*
X871220Y353060D03*
X845820Y353060D03*
X871220Y327660D03*
X845820Y327660D03*
D13*
X1099820Y911860D03*
D14*
X1074420Y911860D03*
X1099820Y886460D03*
X1074420Y886460D03*
X1099820Y861060D03*
X1074420Y861060D03*
X1099820Y835660D03*
X1074420Y835660D03*
X1099820Y810260D03*
X1074420Y810260D03*
X1099820Y784860D03*
X1074420Y784860D03*
X1099820Y759460D03*
X1074420Y759460D03*
X1099820Y734060D03*
X1074420Y734060D03*
X1099820Y708660D03*
X1074420Y708660D03*
X1099820Y683260D03*
X1074420Y683260D03*
X1099820Y657860D03*
X1074420Y657860D03*
X1099820Y632460D03*
X1074420Y632460D03*
X1099820Y607060D03*
X1074420Y607060D03*
X1099820Y581660D03*
X1074420Y581660D03*
X1099820Y556260D03*
X1074420Y556260D03*
X1099820Y530860D03*
X1074420Y530860D03*
X1099820Y505460D03*
X1074420Y505460D03*
X1099820Y480060D03*
X1074420Y480060D03*
X1099820Y454660D03*
X1074420Y454660D03*
X1099820Y429260D03*
X1074420Y429260D03*
X1099820Y403860D03*
X1074420Y403860D03*
X1099820Y378460D03*
X1074420Y378460D03*
X1099820Y353060D03*
X1074420Y353060D03*
X1099820Y327660D03*
X1074420Y327660D03*
D15*
X858520Y240246D03*
X858520Y265646D03*
X883920Y240246D03*
X883920Y265646D03*
X909320Y240246D03*
X909320Y265646D03*
X934720Y240246D03*
X934720Y265646D03*
X960120Y240246D03*
X960120Y265646D03*
X985520Y240246D03*
X985520Y265646D03*
X1010920Y240246D03*
X1010920Y265646D03*
X1036320Y240246D03*
X1036320Y265646D03*
X1061720Y240246D03*
X1061720Y265646D03*
X1087120Y240246D03*
X1087120Y265646D03*
D16*
X896620Y911860D03*
X972820Y454660D03*
X1049020Y886460D03*
D17*
X1049020Y911860D03*
D18*
X1049020Y861060D03*
X947420Y454660D03*
D19*
X922020Y454660D03*
X998220Y454660D03*
X1023620Y454660D03*
X1049020Y581660D03*
X896620Y581660D03*
X896620Y886460D03*
X896620Y861060D03*
X896620Y835660D03*
X896620Y810260D03*
X896620Y784860D03*
X896620Y759460D03*
X896620Y734060D03*
X896620Y708660D03*
X896620Y683260D03*
X896620Y657860D03*
X896620Y632460D03*
X896620Y607060D03*
X1023620Y886460D03*
X1049020Y607060D03*
X1049020Y632460D03*
X1049020Y657860D03*
X1049020Y683260D03*
X1049020Y708660D03*
X1049020Y734060D03*
X1049020Y759460D03*
X1049020Y784860D03*
X1049020Y810260D03*
X1049020Y835660D03*
D18*
X896620Y556260D03*
D19*
X896620Y505460D03*
X896620Y480060D03*
X896620Y454660D03*
X896620Y429260D03*
X896620Y403860D03*
X896620Y378460D03*
X896620Y353060D03*
X896620Y327660D03*
X1049020Y530860D03*
X1049020Y505460D03*
X1049020Y480060D03*
X1049020Y454660D03*
X1049020Y429260D03*
X1049020Y403860D03*
X1049020Y378460D03*
X1049020Y353060D03*
X1049020Y327660D03*
X926620Y848360D03*
X926620Y822960D03*
X926620Y797560D03*
X926620Y772160D03*
X926620Y746760D03*
X896620Y530860D03*
D16*
X1049020Y556260D03*
D19*
X982820Y909560D03*
X962820Y909560D03*
D20*
X1023620Y782160D03*
X1003620Y782160D03*
X983620Y782160D03*
X1023620Y762160D03*
X1003620Y762160D03*
X983620Y762160D03*
D11*
X1191260Y58420D03*
D12*
X1191260Y134620D03*
D21*
X459980Y390840D03*
X459980Y416240D03*
X459980Y441640D03*
X459980Y467040D03*
X459980Y492440D03*
X459980Y517840D03*
X459980Y543240D03*
X459980Y568640D03*
X459980Y594040D03*
X459980Y619440D03*
X209980Y644840D03*
X209980Y619440D03*
X209980Y594040D03*
X209980Y568640D03*
X209980Y543240D03*
X209980Y517840D03*
X209980Y492440D03*
X209980Y467040D03*
X209980Y441640D03*
X209980Y416240D03*
X209980Y390840D03*
X209980Y365440D03*
D22*
X71520Y561340D03*
X121520Y561340D03*
X71520Y637540D03*
X121520Y637540D03*
D11*
X114300Y457200D03*
D12*
X114300Y381000D03*
X114300Y304800D03*
D11*
X116840Y195580D03*
D12*
X116840Y119380D03*
D23*
X239903Y286766D03*
X239903Y302514D03*
X247777Y294640D03*
D24*
X1219200Y246380D03*
X1219200Y957580D03*
D25*
X464820Y853440D03*
X464820Y840740D03*
X474980Y845820D03*
X495300Y838200D03*
X513080Y838200D03*
X495300Y817880D03*
X513080Y817880D03*
X495300Y797560D03*
X513080Y797560D03*
X495300Y777240D03*
X513080Y777240D03*
X492760Y741680D03*
X477520Y200660D03*
X477520Y187960D03*
X487680Y195580D03*
X505460Y180340D03*
X505460Y162560D03*
X505460Y142240D03*
X505460Y121920D03*
X378460Y22860D03*
X419100Y149860D03*
X495300Y35560D03*
X1000760Y596900D03*
X937260Y568960D03*
X927100Y510540D03*
X911860Y469900D03*
X927100Y414020D03*
X924560Y368300D03*
X972820Y416560D03*
X998220Y416560D03*
X995680Y370840D03*
X1021080Y436880D03*
X1010920Y474980D03*
X1018540Y721360D03*
X1000760Y744220D03*
X1016000Y840740D03*
X922020Y883920D03*
X538480Y706120D03*
X984476Y673100D03*
X965276Y645236D03*
X994728Y571592D03*
X974930Y550750D03*
X992096Y802640D03*
X708660Y894080D03*
X779780Y843280D03*
X617220Y891540D03*
X558800Y838200D03*
X980440Y858520D03*
X949960Y830580D03*
X911860Y830580D03*
X911860Y855980D03*
X828040Y861060D03*
X815340Y891540D03*
X952500Y853440D03*
X995680Y833120D03*
X1010920Y873760D03*
X957072Y882904D03*
X944880Y901700D03*
X1003300Y911860D03*
X922020Y617220D03*
X952500Y576580D03*
X952500Y548640D03*
X998220Y518160D03*
X1033780Y492760D03*
X947420Y383540D03*
X998220Y322580D03*
X835660Y416560D03*
X833120Y487680D03*
X817880Y642620D03*
X817880Y614680D03*
X817880Y586740D03*
X815086Y687324D03*
X828040Y749300D03*
X822960Y769620D03*
X398780Y68580D03*
X533400Y238760D03*
X581660Y236220D03*
X657860Y370840D03*
X467360Y332740D03*
X424180Y330200D03*
X525780Y368300D03*
X662940Y414020D03*
X662940Y485140D03*
X662940Y556260D03*
X383540Y805180D03*
X391160Y894080D03*
X441960Y909320D03*
X441960Y924560D03*
X287020Y911860D03*
X254000Y896620D03*
X93980Y787400D03*
X139700Y787400D03*
X91440Y728980D03*
X137160Y728980D03*
X116840Y787400D03*
X114300Y728980D03*
X101600Y142240D03*
X111760Y88900D03*
X137160Y91440D03*
X205740Y104140D03*
X149860Y106680D03*
X1170940Y154940D03*
X1211580Y154940D03*
X1219200Y124460D03*
X1191260Y106680D03*
X1163320Y124460D03*
X436880Y261620D03*
X411480Y294640D03*
X455796Y683168D03*
X456360Y161720D03*
X416560Y187960D03*
X548640Y293144D03*
X89374Y104140D03*
X129540Y144306D03*
X592681Y817019D03*
X455653Y130205D03*
X480060Y86360D03*
X837770Y317070D03*
X556690Y817450D03*
X579120Y904240D03*
X965200Y50800D03*
X949960Y66040D03*
X949960Y114300D03*
X937260Y144780D03*
X828040Y70894D03*
X458720Y70100D03*
X444250Y48010D03*
X546100Y335054D03*
X500380Y335054D03*
X1153160Y238760D03*
X1165860Y200660D03*
X1229360Y180340D03*
X1239520Y215900D03*
X1287780Y210820D03*
X1267460Y66040D03*
X1254760Y50800D03*
X1244600Y33020D03*
X1229360Y20320D03*
X1290320Y228600D03*
X1292860Y251460D03*
X1292860Y269240D03*
X854202Y13942D03*
X924560Y14478D03*
X977392Y14224D03*
X1027938Y13970D03*
X1080008Y14224D03*
X1133348Y14478D03*
X1188720Y13970D03*
X812038Y16256D03*
X746760Y35560D03*
X688340Y58420D03*
X688340Y104140D03*
X1023190Y389050D03*
X1034210Y418670D03*
X973660Y316660D03*
X953996Y296340D03*
X976856Y729714D03*
X802640Y791436D03*
X481196Y694464D03*
X410348Y795036D03*
X492852Y684212D03*
X422818Y670242D03*
X387488Y726456D03*
X458608Y751856D03*
X413004Y885695D03*
X831420Y463776D03*
X551180Y591820D03*
X584200Y568960D03*
X551180Y558800D03*
X513080Y556260D03*
X535940Y576580D03*
X812800Y396240D03*
X820420Y381000D03*
X802640Y370840D03*
X713740Y726440D03*
X797130Y749730D03*
X721360Y693420D03*
X756920Y670560D03*
X640080Y685800D03*
X640080Y708660D03*
X642620Y744220D03*
X734060Y706120D03*
X655320Y627380D03*
X683260Y581660D03*
X622300Y586740D03*
X594360Y604520D03*
X604520Y553720D03*
X355600Y520700D03*
X363220Y535940D03*
X373380Y515620D03*
X312420Y523240D03*
X330200Y472440D03*
X375920Y462280D03*
X264160Y523240D03*
X281940Y464820D03*
X297180Y525780D03*
X553720Y104140D03*
X629920Y160020D03*
X622300Y104140D03*
X683260Y271780D03*
X647700Y259080D03*
X594360Y289560D03*
X619760Y330200D03*
X640080Y350520D03*
X675640Y350520D03*
X607060Y373380D03*
X612140Y424180D03*
X568960Y327660D03*
X576580Y368300D03*
X434340Y358140D03*
X391160Y383540D03*
X370840Y340360D03*
X411480Y421640D03*
X530860Y627380D03*
X574040Y652780D03*
X520700Y655320D03*
X548640Y744220D03*
X655320Y820420D03*
X741680Y769620D03*
X769620Y741680D03*
X797560Y769620D03*
X767080Y797560D03*
X731520Y812800D03*
X228600Y919480D03*
X195580Y254000D03*
X254000Y261620D03*
X248920Y317500D03*
X299720Y327660D03*
X170180Y317500D03*
X200660Y292100D03*
X172720Y269240D03*
X266700Y271780D03*
X350520Y254000D03*
X309880Y251460D03*
X332740Y275590D03*
X354076Y295910D03*
X373380Y289560D03*
X416560Y261620D03*
X381000Y241300D03*
X320040Y200660D03*
X294640Y203200D03*
X378460Y127000D03*
X378460Y167640D03*
X411480Y134620D03*
X452120Y93980D03*
X353060Y66040D03*
X444500Y30480D03*
X556260Y38100D03*
X657860Y53340D03*
X863600Y68580D03*
X822960Y101600D03*
X861060Y99060D03*
X891540Y88900D03*
X791972Y99314D03*
X764540Y99060D03*
X728980Y99060D03*
X1013460Y43180D03*
X988060Y68580D03*
X977900Y86360D03*
X927100Y157480D03*
X881380Y213360D03*
X1196340Y248920D03*
X1127760Y157480D03*
X1130300Y226060D03*
X1013460Y403860D03*
X825500Y360680D03*
X820420Y342900D03*
X815340Y297180D03*
X822960Y223520D03*
X1018540Y538480D03*
X927100Y708660D03*
X972820Y708660D03*
X825500Y812800D03*
X909320Y797560D03*
X863600Y746760D03*
X861060Y797560D03*
X662940Y795020D03*
X718820Y795020D03*
X713740Y744220D03*
X327660Y929640D03*
X147320Y370840D03*
X134620Y340360D03*
X139700Y287020D03*
X182880Y345440D03*
X233680Y317500D03*
X241300Y340360D03*
X810260Y424180D03*
X820420Y441960D03*
X441960Y886460D03*
X474980Y866140D03*
X480060Y789940D03*
X629920Y370840D03*
X556260Y284480D03*
X464820Y88900D03*
X556260Y226060D03*
X947420Y408940D03*
X934720Y642620D03*
X564310Y606630D03*
X617938Y791762D03*
X510970Y691310D03*
X434340Y716280D03*
X462280Y716280D03*
X538480Y721360D03*
X815340Y807720D03*
X972352Y385612D03*
X541020Y70668D03*
X965200Y378460D03*
X924560Y650240D03*
X810260Y819940D03*
X534574Y732886D03*
X524284Y79784D03*
X939800Y340360D03*
X820420Y795020D03*
X911430Y607490D03*
X495300Y81054D03*
X539976Y695960D03*
X927100Y436880D03*
X815340Y457200D03*
X668020Y383540D03*
X499950Y726010D03*
X584200Y600376D03*
X419100Y919480D03*
X957580Y802640D03*
X944372Y632460D03*
X469900Y345440D03*
X576580Y345440D03*
X553720Y304800D03*
X640080Y386080D03*
X639670Y538070D03*
X482600Y210820D03*
X492760Y139700D03*
X488724Y73660D03*
X938756Y327660D03*
X613636Y317500D03*
X801800Y489380D03*
X657020Y585900D03*
X646506Y588086D03*
X589280Y835660D03*
X607060Y904240D03*
X967740Y812800D03*
X952500Y619760D03*
X511581Y746732D03*
X566420Y246380D03*
X998220Y429260D03*
X525780Y106680D03*
X762000Y778284D03*
X593892Y555792D03*
X635000Y589280D03*
X15240Y386080D03*
X805180Y508000D03*
X670560Y304800D03*
X586740Y55880D03*
X396240Y345440D03*
X800100Y35560D03*
X807720Y215900D03*
X960120Y63500D03*
X845820Y185420D03*
X797560Y335280D03*
X370840Y408940D03*
X609600Y360680D03*
X670560Y332740D03*
X800100Y408940D03*
X650240Y617220D03*
X738788Y68932D03*
X962660Y314960D03*
X332740Y436880D03*
X414020Y548640D03*
X668020Y584200D03*
M02*
