G04 EAGLE Gerber RS-274X export*
G75*
%MOMM*%
%FSLAX34Y34*%
%LPD*%
%INSoldermask Top*%
%IPPOS*%
%AMOC8*
5,1,8,0,0,1.08239X$1,22.5*%
G01*
G04 Define Apertures*
%ADD10C,4.000500*%
%ADD11R,1.668500X1.367800*%
%ADD12R,1.173400X1.124100*%
%ADD13R,2.918500X1.367800*%
%ADD14R,1.124100X1.173400*%
%ADD15R,2.406800X1.998700*%
%ADD16R,2.603200X2.603200*%
%ADD17C,2.603200*%
%ADD18R,1.461200X1.461200*%
%ADD19C,1.461200*%
%ADD20P,1.8695X8X22.5*%
%ADD21R,3.303200X4.203200*%
%ADD22R,1.714400X0.533200*%
%ADD23R,2.672400X0.825300*%
%ADD24R,0.825300X2.672400*%
%ADD25R,1.001900X1.177100*%
%ADD26C,0.453416*%
%ADD27R,11.043200X7.823200*%
%ADD28R,1.177100X1.001900*%
%ADD29C,0.306600*%
%ADD30R,1.711200X1.711200*%
%ADD31C,1.879600*%
%ADD32P,1.85219X8X22.5*%
%ADD33C,1.711200*%
%ADD34C,1.311200*%
%ADD35R,0.453200X1.053200*%
%ADD36R,2.703200X1.703200*%
%ADD37R,1.367800X1.668500*%
%ADD38R,0.832300X0.763200*%
%ADD39R,1.853200X1.853200*%
%ADD40R,1.053200X0.453200*%
%ADD41R,1.703200X2.703200*%
%ADD42R,0.763200X0.832300*%
%ADD43R,2.018500X1.367800*%
%ADD44R,1.367800X2.018500*%
%ADD45C,2.153200*%
%ADD46R,1.701800X4.114800*%
%ADD47R,1.053200X0.553200*%
%ADD48C,1.061200*%
%ADD49R,0.847200X0.738300*%
%ADD50R,0.738300X0.847200*%
%ADD51C,1.841500*%
%ADD52R,0.803200X1.703200*%
%ADD53R,0.953200X1.403200*%
%ADD54R,1.103200X1.703200*%
%ADD55R,3.403200X1.703200*%
%ADD56C,0.959600*%
G36*
X456988Y856925D02*
X457010Y856815D01*
X457010Y852305D01*
X456988Y852195D01*
X456923Y852097D01*
X456825Y852032D01*
X456715Y852010D01*
X446715Y852010D01*
X446634Y851994D01*
X446569Y851951D01*
X446526Y851886D01*
X446510Y851805D01*
X446510Y843805D01*
X446488Y843695D01*
X446423Y843597D01*
X446325Y843532D01*
X446215Y843510D01*
X441705Y843510D01*
X441595Y843532D01*
X441497Y843597D01*
X441432Y843695D01*
X441410Y843805D01*
X441410Y856815D01*
X441432Y856925D01*
X441497Y857023D01*
X441595Y857088D01*
X441705Y857110D01*
X456715Y857110D01*
X456825Y857088D01*
X456923Y857023D01*
X456988Y856925D01*
G37*
G36*
X456988Y869925D02*
X457010Y869815D01*
X457010Y865305D01*
X456988Y865195D01*
X456923Y865097D01*
X456825Y865032D01*
X456715Y865010D01*
X441705Y865010D01*
X441595Y865032D01*
X441497Y865097D01*
X441432Y865195D01*
X441410Y865305D01*
X441410Y878315D01*
X441432Y878425D01*
X441497Y878523D01*
X441595Y878588D01*
X441705Y878610D01*
X446215Y878610D01*
X446325Y878588D01*
X446423Y878523D01*
X446488Y878425D01*
X446510Y878315D01*
X446510Y870315D01*
X446526Y870234D01*
X446569Y870169D01*
X446634Y870126D01*
X446715Y870110D01*
X456715Y870110D01*
X456825Y870088D01*
X456923Y870023D01*
X456988Y869925D01*
G37*
G36*
X469688Y201605D02*
X469710Y201495D01*
X469710Y196985D01*
X469688Y196875D01*
X469623Y196777D01*
X469525Y196712D01*
X469415Y196690D01*
X459415Y196690D01*
X459334Y196674D01*
X459269Y196631D01*
X459226Y196566D01*
X459210Y196485D01*
X459210Y188485D01*
X459188Y188375D01*
X459123Y188277D01*
X459025Y188212D01*
X458915Y188190D01*
X454405Y188190D01*
X454295Y188212D01*
X454197Y188277D01*
X454132Y188375D01*
X454110Y188485D01*
X454110Y201495D01*
X454132Y201605D01*
X454197Y201703D01*
X454295Y201768D01*
X454405Y201790D01*
X469415Y201790D01*
X469525Y201768D01*
X469623Y201703D01*
X469688Y201605D01*
G37*
G36*
X469688Y214605D02*
X469710Y214495D01*
X469710Y209985D01*
X469688Y209875D01*
X469623Y209777D01*
X469525Y209712D01*
X469415Y209690D01*
X454405Y209690D01*
X454295Y209712D01*
X454197Y209777D01*
X454132Y209875D01*
X454110Y209985D01*
X454110Y222995D01*
X454132Y223105D01*
X454197Y223203D01*
X454295Y223268D01*
X454405Y223290D01*
X458915Y223290D01*
X459025Y223268D01*
X459123Y223203D01*
X459188Y223105D01*
X459210Y222995D01*
X459210Y214995D01*
X459226Y214914D01*
X459269Y214849D01*
X459334Y214806D01*
X459415Y214790D01*
X469415Y214790D01*
X469525Y214768D01*
X469623Y214703D01*
X469688Y214605D01*
G37*
G36*
X245904Y307402D02*
X245904Y281878D01*
X241776Y281878D01*
X241776Y307402D01*
X245904Y307402D01*
G37*
G36*
X277130Y490580D02*
X277130Y495180D01*
X287730Y495180D01*
X287730Y485580D01*
X277130Y485580D01*
X277130Y490180D01*
X282630Y490180D01*
X282630Y490580D01*
X277130Y490580D01*
G37*
G36*
X306630Y485580D02*
X306630Y495180D01*
X317230Y495180D01*
X317230Y490580D01*
X311730Y490580D01*
X311730Y490180D01*
X317230Y490180D01*
X317230Y485580D01*
X306630Y485580D01*
G37*
G36*
X617490Y218800D02*
X617490Y223400D01*
X628090Y223400D01*
X628090Y213800D01*
X617490Y213800D01*
X617490Y218400D01*
X622990Y218400D01*
X622990Y218800D01*
X617490Y218800D01*
G37*
G36*
X646990Y213800D02*
X646990Y223400D01*
X657590Y223400D01*
X657590Y218800D01*
X652090Y218800D01*
X652090Y218400D01*
X657590Y218400D01*
X657590Y213800D01*
X646990Y213800D01*
G37*
G36*
X673540Y732230D02*
X683140Y732230D01*
X683140Y721630D01*
X678540Y721630D01*
X678540Y727130D01*
X678140Y727130D01*
X678140Y721630D01*
X673540Y721630D01*
X673540Y732230D01*
G37*
G36*
X678540Y761730D02*
X683140Y761730D01*
X683140Y751130D01*
X673540Y751130D01*
X673540Y761730D01*
X678140Y761730D01*
X678140Y756230D01*
X678540Y756230D01*
X678540Y761730D01*
G37*
G36*
X816050Y55440D02*
X816050Y45840D01*
X805450Y45840D01*
X805450Y50440D01*
X810950Y50440D01*
X810950Y50840D01*
X805450Y50840D01*
X805450Y55440D01*
X816050Y55440D01*
G37*
G36*
X845550Y50440D02*
X845550Y45840D01*
X834950Y45840D01*
X834950Y55440D01*
X845550Y55440D01*
X845550Y50840D01*
X840050Y50840D01*
X840050Y50440D01*
X845550Y50440D01*
G37*
G36*
X909760Y74370D02*
X919360Y74370D01*
X919360Y63770D01*
X914760Y63770D01*
X914760Y69270D01*
X914360Y69270D01*
X914360Y63770D01*
X909760Y63770D01*
X909760Y74370D01*
G37*
G36*
X914760Y103870D02*
X919360Y103870D01*
X919360Y93270D01*
X909760Y93270D01*
X909760Y103870D01*
X914360Y103870D01*
X914360Y98370D01*
X914760Y98370D01*
X914760Y103870D01*
G37*
G36*
X912130Y180700D02*
X912130Y185300D01*
X922730Y185300D01*
X922730Y175700D01*
X912130Y175700D01*
X912130Y180300D01*
X917630Y180300D01*
X917630Y180700D01*
X912130Y180700D01*
G37*
G36*
X941630Y175700D02*
X941630Y185300D01*
X952230Y185300D01*
X952230Y180700D01*
X946730Y180700D01*
X946730Y180300D01*
X952230Y180300D01*
X952230Y175700D01*
X941630Y175700D01*
G37*
G36*
X238030Y307402D02*
X238030Y281878D01*
X235078Y281878D01*
X235078Y307402D01*
X238030Y307402D01*
G37*
G36*
X252602Y307402D02*
X252602Y281878D01*
X249650Y281878D01*
X249650Y307402D01*
X252602Y307402D01*
G37*
G36*
X252602Y292767D02*
X252602Y288639D01*
X235078Y288639D01*
X235078Y292767D01*
X252602Y292767D01*
G37*
G36*
X252602Y300641D02*
X252602Y296513D01*
X235078Y296513D01*
X235078Y300641D01*
X252602Y300641D01*
G37*
G36*
X449988Y863425D02*
X450010Y863315D01*
X450010Y858805D01*
X449988Y858695D01*
X449923Y858597D01*
X449825Y858532D01*
X449715Y858510D01*
X439205Y858510D01*
X439095Y858532D01*
X438997Y858597D01*
X438932Y858695D01*
X438910Y858805D01*
X438910Y863315D01*
X438932Y863425D01*
X438997Y863523D01*
X439095Y863588D01*
X439205Y863610D01*
X449715Y863610D01*
X449825Y863588D01*
X449923Y863523D01*
X449988Y863425D01*
G37*
G36*
X462688Y208105D02*
X462710Y207995D01*
X462710Y203485D01*
X462688Y203375D01*
X462623Y203277D01*
X462525Y203212D01*
X462415Y203190D01*
X451905Y203190D01*
X451795Y203212D01*
X451697Y203277D01*
X451632Y203375D01*
X451610Y203485D01*
X451610Y207995D01*
X451632Y208105D01*
X451697Y208203D01*
X451795Y208268D01*
X451905Y208290D01*
X462415Y208290D01*
X462525Y208268D01*
X462623Y208203D01*
X462688Y208105D01*
G37*
G36*
X252602Y284893D02*
X252602Y281878D01*
X235078Y281878D01*
X235078Y284893D01*
X252602Y284893D01*
G37*
G36*
X252602Y307402D02*
X252602Y304387D01*
X235078Y304387D01*
X235078Y307402D01*
X252602Y307402D01*
G37*
G36*
X234167Y287467D02*
X234167Y282313D01*
X224013Y282313D01*
X224013Y287467D01*
X234167Y287467D01*
G37*
G36*
X234167Y293967D02*
X234167Y288813D01*
X224013Y288813D01*
X224013Y293967D01*
X234167Y293967D01*
G37*
G36*
X234167Y300467D02*
X234167Y295313D01*
X224013Y295313D01*
X224013Y300467D01*
X234167Y300467D01*
G37*
G36*
X234167Y306967D02*
X234167Y301813D01*
X224013Y301813D01*
X224013Y306967D01*
X234167Y306967D01*
G37*
G36*
X263667Y287467D02*
X263667Y282313D01*
X253513Y282313D01*
X253513Y287467D01*
X263667Y287467D01*
G37*
G36*
X263667Y293967D02*
X263667Y288813D01*
X253513Y288813D01*
X253513Y293967D01*
X263667Y293967D01*
G37*
G36*
X263667Y300467D02*
X263667Y295313D01*
X253513Y295313D01*
X253513Y300467D01*
X263667Y300467D01*
G37*
G36*
X263667Y306967D02*
X263667Y301813D01*
X253513Y301813D01*
X253513Y306967D01*
X263667Y306967D01*
G37*
G36*
X434988Y850175D02*
X435010Y850065D01*
X435010Y843805D01*
X434988Y843695D01*
X434923Y843597D01*
X434825Y843532D01*
X434715Y843510D01*
X431705Y843510D01*
X431595Y843532D01*
X431497Y843597D01*
X431432Y843695D01*
X431410Y843805D01*
X431410Y846805D01*
X431394Y846886D01*
X431351Y846951D01*
X431286Y846994D01*
X431205Y847010D01*
X427205Y847010D01*
X427095Y847032D01*
X426997Y847097D01*
X426932Y847195D01*
X426910Y847305D01*
X426910Y850065D01*
X426932Y850175D01*
X426997Y850273D01*
X427095Y850338D01*
X427205Y850360D01*
X434715Y850360D01*
X434825Y850338D01*
X434923Y850273D01*
X434988Y850175D01*
G37*
G36*
X434988Y878425D02*
X435010Y878315D01*
X435010Y872055D01*
X434988Y871945D01*
X434923Y871847D01*
X434825Y871782D01*
X434715Y871760D01*
X427205Y871760D01*
X427095Y871782D01*
X426997Y871847D01*
X426932Y871945D01*
X426910Y872055D01*
X426910Y874815D01*
X426932Y874925D01*
X426997Y875023D01*
X427095Y875088D01*
X427205Y875110D01*
X431205Y875110D01*
X431286Y875126D01*
X431351Y875169D01*
X431394Y875234D01*
X431410Y875315D01*
X431410Y878315D01*
X431432Y878425D01*
X431497Y878523D01*
X431595Y878588D01*
X431705Y878610D01*
X434715Y878610D01*
X434825Y878588D01*
X434923Y878523D01*
X434988Y878425D01*
G37*
G36*
X447688Y194855D02*
X447710Y194745D01*
X447710Y188485D01*
X447688Y188375D01*
X447623Y188277D01*
X447525Y188212D01*
X447415Y188190D01*
X444405Y188190D01*
X444295Y188212D01*
X444197Y188277D01*
X444132Y188375D01*
X444110Y188485D01*
X444110Y191485D01*
X444094Y191566D01*
X444051Y191631D01*
X443986Y191674D01*
X443905Y191690D01*
X439905Y191690D01*
X439795Y191712D01*
X439697Y191777D01*
X439632Y191875D01*
X439610Y191985D01*
X439610Y194745D01*
X439632Y194855D01*
X439697Y194953D01*
X439795Y195018D01*
X439905Y195040D01*
X447415Y195040D01*
X447525Y195018D01*
X447623Y194953D01*
X447688Y194855D01*
G37*
G36*
X447688Y223105D02*
X447710Y222995D01*
X447710Y216735D01*
X447688Y216625D01*
X447623Y216527D01*
X447525Y216462D01*
X447415Y216440D01*
X439905Y216440D01*
X439795Y216462D01*
X439697Y216527D01*
X439632Y216625D01*
X439610Y216735D01*
X439610Y219495D01*
X439632Y219605D01*
X439697Y219703D01*
X439795Y219768D01*
X439905Y219790D01*
X443905Y219790D01*
X443986Y219806D01*
X444051Y219849D01*
X444094Y219914D01*
X444110Y219995D01*
X444110Y222995D01*
X444132Y223105D01*
X444197Y223203D01*
X444295Y223268D01*
X444405Y223290D01*
X447415Y223290D01*
X447525Y223268D01*
X447623Y223203D01*
X447688Y223105D01*
G37*
G36*
X433488Y855175D02*
X433510Y855065D01*
X433510Y852055D01*
X433488Y851945D01*
X433423Y851847D01*
X433325Y851782D01*
X433215Y851760D01*
X427205Y851760D01*
X427095Y851782D01*
X426997Y851847D01*
X426932Y851945D01*
X426910Y852055D01*
X426910Y855065D01*
X426932Y855175D01*
X426997Y855273D01*
X427095Y855338D01*
X427205Y855360D01*
X433215Y855360D01*
X433325Y855338D01*
X433423Y855273D01*
X433488Y855175D01*
G37*
G36*
X433488Y860175D02*
X433510Y860065D01*
X433510Y857055D01*
X433488Y856945D01*
X433423Y856847D01*
X433325Y856782D01*
X433215Y856760D01*
X427205Y856760D01*
X427095Y856782D01*
X426997Y856847D01*
X426932Y856945D01*
X426910Y857055D01*
X426910Y860065D01*
X426932Y860175D01*
X426997Y860273D01*
X427095Y860338D01*
X427205Y860360D01*
X433215Y860360D01*
X433325Y860338D01*
X433423Y860273D01*
X433488Y860175D01*
G37*
G36*
X433488Y865175D02*
X433510Y865065D01*
X433510Y862055D01*
X433488Y861945D01*
X433423Y861847D01*
X433325Y861782D01*
X433215Y861760D01*
X427205Y861760D01*
X427095Y861782D01*
X426997Y861847D01*
X426932Y861945D01*
X426910Y862055D01*
X426910Y865065D01*
X426932Y865175D01*
X426997Y865273D01*
X427095Y865338D01*
X427205Y865360D01*
X433215Y865360D01*
X433325Y865338D01*
X433423Y865273D01*
X433488Y865175D01*
G37*
G36*
X433488Y870175D02*
X433510Y870065D01*
X433510Y867055D01*
X433488Y866945D01*
X433423Y866847D01*
X433325Y866782D01*
X433215Y866760D01*
X427205Y866760D01*
X427095Y866782D01*
X426997Y866847D01*
X426932Y866945D01*
X426910Y867055D01*
X426910Y870065D01*
X426932Y870175D01*
X426997Y870273D01*
X427095Y870338D01*
X427205Y870360D01*
X433215Y870360D01*
X433325Y870338D01*
X433423Y870273D01*
X433488Y870175D01*
G37*
G36*
X439988Y849925D02*
X440010Y849815D01*
X440010Y843805D01*
X439988Y843695D01*
X439923Y843597D01*
X439825Y843532D01*
X439715Y843510D01*
X436705Y843510D01*
X436595Y843532D01*
X436497Y843597D01*
X436432Y843695D01*
X436410Y843805D01*
X436410Y849815D01*
X436432Y849925D01*
X436497Y850023D01*
X436595Y850088D01*
X436705Y850110D01*
X439715Y850110D01*
X439825Y850088D01*
X439923Y850023D01*
X439988Y849925D01*
G37*
G36*
X439988Y878425D02*
X440010Y878315D01*
X440010Y872305D01*
X439988Y872195D01*
X439923Y872097D01*
X439825Y872032D01*
X439715Y872010D01*
X436705Y872010D01*
X436595Y872032D01*
X436497Y872097D01*
X436432Y872195D01*
X436410Y872305D01*
X436410Y878315D01*
X436432Y878425D01*
X436497Y878523D01*
X436595Y878588D01*
X436705Y878610D01*
X439715Y878610D01*
X439825Y878588D01*
X439923Y878523D01*
X439988Y878425D01*
G37*
G36*
X446188Y199855D02*
X446210Y199745D01*
X446210Y196735D01*
X446188Y196625D01*
X446123Y196527D01*
X446025Y196462D01*
X445915Y196440D01*
X439905Y196440D01*
X439795Y196462D01*
X439697Y196527D01*
X439632Y196625D01*
X439610Y196735D01*
X439610Y199745D01*
X439632Y199855D01*
X439697Y199953D01*
X439795Y200018D01*
X439905Y200040D01*
X445915Y200040D01*
X446025Y200018D01*
X446123Y199953D01*
X446188Y199855D01*
G37*
G36*
X446188Y204855D02*
X446210Y204745D01*
X446210Y201735D01*
X446188Y201625D01*
X446123Y201527D01*
X446025Y201462D01*
X445915Y201440D01*
X439905Y201440D01*
X439795Y201462D01*
X439697Y201527D01*
X439632Y201625D01*
X439610Y201735D01*
X439610Y204745D01*
X439632Y204855D01*
X439697Y204953D01*
X439795Y205018D01*
X439905Y205040D01*
X445915Y205040D01*
X446025Y205018D01*
X446123Y204953D01*
X446188Y204855D01*
G37*
G36*
X446188Y209855D02*
X446210Y209745D01*
X446210Y206735D01*
X446188Y206625D01*
X446123Y206527D01*
X446025Y206462D01*
X445915Y206440D01*
X439905Y206440D01*
X439795Y206462D01*
X439697Y206527D01*
X439632Y206625D01*
X439610Y206735D01*
X439610Y209745D01*
X439632Y209855D01*
X439697Y209953D01*
X439795Y210018D01*
X439905Y210040D01*
X445915Y210040D01*
X446025Y210018D01*
X446123Y209953D01*
X446188Y209855D01*
G37*
G36*
X446188Y214855D02*
X446210Y214745D01*
X446210Y211735D01*
X446188Y211625D01*
X446123Y211527D01*
X446025Y211462D01*
X445915Y211440D01*
X439905Y211440D01*
X439795Y211462D01*
X439697Y211527D01*
X439632Y211625D01*
X439610Y211735D01*
X439610Y214745D01*
X439632Y214855D01*
X439697Y214953D01*
X439795Y215018D01*
X439905Y215040D01*
X445915Y215040D01*
X446025Y215018D01*
X446123Y214953D01*
X446188Y214855D01*
G37*
G36*
X452688Y194605D02*
X452710Y194495D01*
X452710Y188485D01*
X452688Y188375D01*
X452623Y188277D01*
X452525Y188212D01*
X452415Y188190D01*
X449405Y188190D01*
X449295Y188212D01*
X449197Y188277D01*
X449132Y188375D01*
X449110Y188485D01*
X449110Y194495D01*
X449132Y194605D01*
X449197Y194703D01*
X449295Y194768D01*
X449405Y194790D01*
X452415Y194790D01*
X452525Y194768D01*
X452623Y194703D01*
X452688Y194605D01*
G37*
G36*
X452688Y223105D02*
X452710Y222995D01*
X452710Y216985D01*
X452688Y216875D01*
X452623Y216777D01*
X452525Y216712D01*
X452415Y216690D01*
X449405Y216690D01*
X449295Y216712D01*
X449197Y216777D01*
X449132Y216875D01*
X449110Y216985D01*
X449110Y222995D01*
X449132Y223105D01*
X449197Y223203D01*
X449295Y223268D01*
X449405Y223290D01*
X452415Y223290D01*
X452525Y223268D01*
X452623Y223203D01*
X452688Y223105D01*
G37*
D10*
X33020Y947420D03*
X33020Y33020D03*
D11*
X190500Y133214D03*
X190500Y115706D03*
X195580Y808854D03*
X195580Y791346D03*
D12*
X441960Y233554D03*
X441960Y249046D03*
X429260Y886334D03*
X429260Y901826D03*
D11*
X398780Y166506D03*
X398780Y184014D03*
X403860Y826906D03*
X403860Y844414D03*
D13*
X447040Y290046D03*
X447040Y319554D03*
X464820Y892026D03*
X464820Y921534D03*
X485140Y290046D03*
X485140Y319554D03*
X502920Y892026D03*
X502920Y921534D03*
X523240Y290046D03*
X523240Y319554D03*
X541020Y892026D03*
X541020Y921534D03*
D12*
X401320Y225934D03*
X401320Y241426D03*
D14*
X397638Y872998D03*
X413130Y872998D03*
D12*
X434340Y159894D03*
X434340Y175386D03*
X429768Y813690D03*
X429768Y829182D03*
D14*
X482726Y172720D03*
X467234Y172720D03*
X464946Y828040D03*
X449454Y828040D03*
D11*
X617220Y404994D03*
X617220Y387486D03*
D15*
X508000Y410839D03*
X508000Y381641D03*
D16*
X114300Y838200D03*
D17*
X114300Y762000D03*
D18*
X871220Y911860D03*
D19*
X845820Y911860D03*
X871220Y886460D03*
X845820Y886460D03*
X871220Y861060D03*
X845820Y861060D03*
X871220Y835660D03*
X845820Y835660D03*
X871220Y810260D03*
X845820Y810260D03*
X871220Y784860D03*
X845820Y784860D03*
X871220Y759460D03*
X845820Y759460D03*
X871220Y734060D03*
X845820Y734060D03*
X871220Y708660D03*
X845820Y708660D03*
X871220Y683260D03*
X845820Y683260D03*
X871220Y657860D03*
X845820Y657860D03*
X871220Y632460D03*
X845820Y632460D03*
X871220Y607060D03*
X845820Y607060D03*
X871220Y581660D03*
X845820Y581660D03*
X871220Y556260D03*
X845820Y556260D03*
X871220Y530860D03*
X845820Y530860D03*
X871220Y505460D03*
X845820Y505460D03*
X871220Y480060D03*
X845820Y480060D03*
X871220Y454660D03*
X845820Y454660D03*
X871220Y429260D03*
X845820Y429260D03*
X871220Y403860D03*
X845820Y403860D03*
X871220Y378460D03*
X845820Y378460D03*
X871220Y353060D03*
X845820Y353060D03*
X871220Y327660D03*
X845820Y327660D03*
D18*
X1099820Y911860D03*
D19*
X1074420Y911860D03*
X1099820Y886460D03*
X1074420Y886460D03*
X1099820Y861060D03*
X1074420Y861060D03*
X1099820Y835660D03*
X1074420Y835660D03*
X1099820Y810260D03*
X1074420Y810260D03*
X1099820Y784860D03*
X1074420Y784860D03*
X1099820Y759460D03*
X1074420Y759460D03*
X1099820Y734060D03*
X1074420Y734060D03*
X1099820Y708660D03*
X1074420Y708660D03*
X1099820Y683260D03*
X1074420Y683260D03*
X1099820Y657860D03*
X1074420Y657860D03*
X1099820Y632460D03*
X1074420Y632460D03*
X1099820Y607060D03*
X1074420Y607060D03*
X1099820Y581660D03*
X1074420Y581660D03*
X1099820Y556260D03*
X1074420Y556260D03*
X1099820Y530860D03*
X1074420Y530860D03*
X1099820Y505460D03*
X1074420Y505460D03*
X1099820Y480060D03*
X1074420Y480060D03*
X1099820Y454660D03*
X1074420Y454660D03*
X1099820Y429260D03*
X1074420Y429260D03*
X1099820Y403860D03*
X1074420Y403860D03*
X1099820Y378460D03*
X1074420Y378460D03*
X1099820Y353060D03*
X1074420Y353060D03*
X1099820Y327660D03*
X1074420Y327660D03*
D20*
X858520Y240246D03*
X858520Y265646D03*
X883920Y240246D03*
X883920Y265646D03*
X909320Y240246D03*
X909320Y265646D03*
X934720Y240246D03*
X934720Y265646D03*
X960120Y240246D03*
X960120Y265646D03*
X985520Y240246D03*
X985520Y265646D03*
X1010920Y240246D03*
X1010920Y265646D03*
X1036320Y240246D03*
X1036320Y265646D03*
X1061720Y240246D03*
X1061720Y265646D03*
X1087120Y240246D03*
X1087120Y265646D03*
D21*
X342520Y144780D03*
X231520Y144780D03*
X350140Y833120D03*
X239140Y833120D03*
D22*
X519590Y48420D03*
X519590Y53420D03*
X519590Y58420D03*
X519590Y63420D03*
X519590Y68420D03*
X476090Y68420D03*
X476090Y63420D03*
X476090Y58420D03*
X476090Y53420D03*
X476090Y48420D03*
X522130Y706280D03*
X522130Y711280D03*
X522130Y716280D03*
X522130Y721280D03*
X522130Y726280D03*
X478630Y726280D03*
X478630Y721280D03*
X478630Y716280D03*
X478630Y711280D03*
X478630Y706280D03*
D23*
X377184Y87630D03*
X377184Y74930D03*
X377184Y62230D03*
X377184Y49530D03*
X425456Y49530D03*
X425456Y62230D03*
X425456Y74930D03*
X425456Y87630D03*
D24*
X407670Y692144D03*
X420370Y692144D03*
X433070Y692144D03*
X445770Y692144D03*
X445770Y740416D03*
X433070Y740416D03*
X420370Y740416D03*
X407670Y740416D03*
D25*
X292632Y226060D03*
X276328Y226060D03*
X277392Y929640D03*
X261088Y929640D03*
X323112Y226060D03*
X306808Y226060D03*
X310412Y929640D03*
X294108Y929640D03*
X483132Y152400D03*
X466828Y152400D03*
X465352Y807720D03*
X449048Y807720D03*
X466828Y132080D03*
X483132Y132080D03*
X449048Y787400D03*
X465352Y787400D03*
X483132Y111760D03*
X466828Y111760D03*
X465352Y767080D03*
X449048Y767080D03*
D26*
X544719Y413439D02*
X544719Y378041D01*
X537321Y378041D01*
X537321Y413439D01*
X544719Y413439D01*
X544719Y382348D02*
X537321Y382348D01*
X537321Y386655D02*
X544719Y386655D01*
X544719Y390962D02*
X537321Y390962D01*
X537321Y395269D02*
X544719Y395269D01*
X544719Y399576D02*
X537321Y399576D01*
X537321Y403883D02*
X544719Y403883D01*
X544719Y408190D02*
X537321Y408190D01*
X537321Y412497D02*
X544719Y412497D01*
X570119Y413439D02*
X570119Y378041D01*
X562721Y378041D01*
X562721Y413439D01*
X570119Y413439D01*
X570119Y382348D02*
X562721Y382348D01*
X562721Y386655D02*
X570119Y386655D01*
X570119Y390962D02*
X562721Y390962D01*
X562721Y395269D02*
X570119Y395269D01*
X570119Y399576D02*
X562721Y399576D01*
X562721Y403883D02*
X570119Y403883D01*
X570119Y408190D02*
X562721Y408190D01*
X562721Y412497D02*
X570119Y412497D01*
X595519Y413439D02*
X595519Y378041D01*
X588121Y378041D01*
X588121Y413439D01*
X595519Y413439D01*
X595519Y382348D02*
X588121Y382348D01*
X588121Y386655D02*
X595519Y386655D01*
X595519Y390962D02*
X588121Y390962D01*
X588121Y395269D02*
X595519Y395269D01*
X595519Y399576D02*
X588121Y399576D01*
X588121Y403883D02*
X595519Y403883D01*
X595519Y408190D02*
X588121Y408190D01*
X588121Y412497D02*
X595519Y412497D01*
D27*
X566420Y504540D03*
D25*
X802108Y835660D03*
X818412Y835660D03*
D28*
X447040Y106148D03*
X447040Y122452D03*
X429260Y785392D03*
X429260Y769088D03*
D25*
X389152Y104351D03*
X372848Y104351D03*
D28*
X388620Y754642D03*
X388620Y738338D03*
D25*
X410948Y107294D03*
X427252Y107294D03*
X395708Y772160D03*
X412012Y772160D03*
D28*
X815340Y714272D03*
X815340Y697968D03*
D29*
X523463Y214853D02*
X523463Y200187D01*
X520397Y200187D01*
X520397Y214853D01*
X523463Y214853D01*
X523463Y203100D02*
X520397Y203100D01*
X520397Y206013D02*
X523463Y206013D01*
X523463Y208926D02*
X520397Y208926D01*
X520397Y211839D02*
X523463Y211839D01*
X523463Y214752D02*
X520397Y214752D01*
X529963Y214853D02*
X529963Y200187D01*
X526897Y200187D01*
X526897Y214853D01*
X529963Y214853D01*
X529963Y203100D02*
X526897Y203100D01*
X526897Y206013D02*
X529963Y206013D01*
X529963Y208926D02*
X526897Y208926D01*
X526897Y211839D02*
X529963Y211839D01*
X529963Y214752D02*
X526897Y214752D01*
X536463Y214853D02*
X536463Y200187D01*
X533397Y200187D01*
X533397Y214853D01*
X536463Y214853D01*
X536463Y203100D02*
X533397Y203100D01*
X533397Y206013D02*
X536463Y206013D01*
X536463Y208926D02*
X533397Y208926D01*
X533397Y211839D02*
X536463Y211839D01*
X536463Y214752D02*
X533397Y214752D01*
X542963Y214853D02*
X542963Y200187D01*
X539897Y200187D01*
X539897Y214853D01*
X542963Y214853D01*
X542963Y203100D02*
X539897Y203100D01*
X539897Y206013D02*
X542963Y206013D01*
X542963Y208926D02*
X539897Y208926D01*
X539897Y211839D02*
X542963Y211839D01*
X542963Y214752D02*
X539897Y214752D01*
X549463Y214853D02*
X549463Y200187D01*
X546397Y200187D01*
X546397Y214853D01*
X549463Y214853D01*
X549463Y203100D02*
X546397Y203100D01*
X546397Y206013D02*
X549463Y206013D01*
X549463Y208926D02*
X546397Y208926D01*
X546397Y211839D02*
X549463Y211839D01*
X549463Y214752D02*
X546397Y214752D01*
X555963Y214853D02*
X555963Y200187D01*
X552897Y200187D01*
X552897Y214853D01*
X555963Y214853D01*
X555963Y203100D02*
X552897Y203100D01*
X552897Y206013D02*
X555963Y206013D01*
X555963Y208926D02*
X552897Y208926D01*
X552897Y211839D02*
X555963Y211839D01*
X555963Y214752D02*
X552897Y214752D01*
X562463Y214853D02*
X562463Y200187D01*
X559397Y200187D01*
X559397Y214853D01*
X562463Y214853D01*
X562463Y203100D02*
X559397Y203100D01*
X559397Y206013D02*
X562463Y206013D01*
X562463Y208926D02*
X559397Y208926D01*
X559397Y211839D02*
X562463Y211839D01*
X562463Y214752D02*
X559397Y214752D01*
X568963Y214853D02*
X568963Y200187D01*
X565897Y200187D01*
X565897Y214853D01*
X568963Y214853D01*
X568963Y203100D02*
X565897Y203100D01*
X565897Y206013D02*
X568963Y206013D01*
X568963Y208926D02*
X565897Y208926D01*
X565897Y211839D02*
X568963Y211839D01*
X568963Y214752D02*
X565897Y214752D01*
X575463Y214853D02*
X575463Y200187D01*
X572397Y200187D01*
X572397Y214853D01*
X575463Y214853D01*
X575463Y203100D02*
X572397Y203100D01*
X572397Y206013D02*
X575463Y206013D01*
X575463Y208926D02*
X572397Y208926D01*
X572397Y211839D02*
X575463Y211839D01*
X575463Y214752D02*
X572397Y214752D01*
X581963Y214853D02*
X581963Y200187D01*
X578897Y200187D01*
X578897Y214853D01*
X581963Y214853D01*
X581963Y203100D02*
X578897Y203100D01*
X578897Y206013D02*
X581963Y206013D01*
X581963Y208926D02*
X578897Y208926D01*
X578897Y211839D02*
X581963Y211839D01*
X581963Y214752D02*
X578897Y214752D01*
X581963Y257587D02*
X581963Y272253D01*
X581963Y257587D02*
X578897Y257587D01*
X578897Y272253D01*
X581963Y272253D01*
X581963Y260500D02*
X578897Y260500D01*
X578897Y263413D02*
X581963Y263413D01*
X581963Y266326D02*
X578897Y266326D01*
X578897Y269239D02*
X581963Y269239D01*
X581963Y272152D02*
X578897Y272152D01*
X575463Y272253D02*
X575463Y257587D01*
X572397Y257587D01*
X572397Y272253D01*
X575463Y272253D01*
X575463Y260500D02*
X572397Y260500D01*
X572397Y263413D02*
X575463Y263413D01*
X575463Y266326D02*
X572397Y266326D01*
X572397Y269239D02*
X575463Y269239D01*
X575463Y272152D02*
X572397Y272152D01*
X568963Y272253D02*
X568963Y257587D01*
X565897Y257587D01*
X565897Y272253D01*
X568963Y272253D01*
X568963Y260500D02*
X565897Y260500D01*
X565897Y263413D02*
X568963Y263413D01*
X568963Y266326D02*
X565897Y266326D01*
X565897Y269239D02*
X568963Y269239D01*
X568963Y272152D02*
X565897Y272152D01*
X562463Y272253D02*
X562463Y257587D01*
X559397Y257587D01*
X559397Y272253D01*
X562463Y272253D01*
X562463Y260500D02*
X559397Y260500D01*
X559397Y263413D02*
X562463Y263413D01*
X562463Y266326D02*
X559397Y266326D01*
X559397Y269239D02*
X562463Y269239D01*
X562463Y272152D02*
X559397Y272152D01*
X555963Y272253D02*
X555963Y257587D01*
X552897Y257587D01*
X552897Y272253D01*
X555963Y272253D01*
X555963Y260500D02*
X552897Y260500D01*
X552897Y263413D02*
X555963Y263413D01*
X555963Y266326D02*
X552897Y266326D01*
X552897Y269239D02*
X555963Y269239D01*
X555963Y272152D02*
X552897Y272152D01*
X549463Y272253D02*
X549463Y257587D01*
X546397Y257587D01*
X546397Y272253D01*
X549463Y272253D01*
X549463Y260500D02*
X546397Y260500D01*
X546397Y263413D02*
X549463Y263413D01*
X549463Y266326D02*
X546397Y266326D01*
X546397Y269239D02*
X549463Y269239D01*
X549463Y272152D02*
X546397Y272152D01*
X542963Y272253D02*
X542963Y257587D01*
X539897Y257587D01*
X539897Y272253D01*
X542963Y272253D01*
X542963Y260500D02*
X539897Y260500D01*
X539897Y263413D02*
X542963Y263413D01*
X542963Y266326D02*
X539897Y266326D01*
X539897Y269239D02*
X542963Y269239D01*
X542963Y272152D02*
X539897Y272152D01*
X536463Y272253D02*
X536463Y257587D01*
X533397Y257587D01*
X533397Y272253D01*
X536463Y272253D01*
X536463Y260500D02*
X533397Y260500D01*
X533397Y263413D02*
X536463Y263413D01*
X536463Y266326D02*
X533397Y266326D01*
X533397Y269239D02*
X536463Y269239D01*
X536463Y272152D02*
X533397Y272152D01*
X529963Y272253D02*
X529963Y257587D01*
X526897Y257587D01*
X526897Y272253D01*
X529963Y272253D01*
X529963Y260500D02*
X526897Y260500D01*
X526897Y263413D02*
X529963Y263413D01*
X529963Y266326D02*
X526897Y266326D01*
X526897Y269239D02*
X529963Y269239D01*
X529963Y272152D02*
X526897Y272152D01*
X523463Y272253D02*
X523463Y257587D01*
X520397Y257587D01*
X520397Y272253D01*
X523463Y272253D01*
X523463Y260500D02*
X520397Y260500D01*
X520397Y263413D02*
X523463Y263413D01*
X523463Y266326D02*
X520397Y266326D01*
X520397Y269239D02*
X523463Y269239D01*
X523463Y272152D02*
X520397Y272152D01*
X546323Y792007D02*
X546323Y806673D01*
X546323Y792007D02*
X543257Y792007D01*
X543257Y806673D01*
X546323Y806673D01*
X546323Y794920D02*
X543257Y794920D01*
X543257Y797833D02*
X546323Y797833D01*
X546323Y800746D02*
X543257Y800746D01*
X543257Y803659D02*
X546323Y803659D01*
X546323Y806572D02*
X543257Y806572D01*
X552823Y806673D02*
X552823Y792007D01*
X549757Y792007D01*
X549757Y806673D01*
X552823Y806673D01*
X552823Y794920D02*
X549757Y794920D01*
X549757Y797833D02*
X552823Y797833D01*
X552823Y800746D02*
X549757Y800746D01*
X549757Y803659D02*
X552823Y803659D01*
X552823Y806572D02*
X549757Y806572D01*
X559323Y806673D02*
X559323Y792007D01*
X556257Y792007D01*
X556257Y806673D01*
X559323Y806673D01*
X559323Y794920D02*
X556257Y794920D01*
X556257Y797833D02*
X559323Y797833D01*
X559323Y800746D02*
X556257Y800746D01*
X556257Y803659D02*
X559323Y803659D01*
X559323Y806572D02*
X556257Y806572D01*
X565823Y806673D02*
X565823Y792007D01*
X562757Y792007D01*
X562757Y806673D01*
X565823Y806673D01*
X565823Y794920D02*
X562757Y794920D01*
X562757Y797833D02*
X565823Y797833D01*
X565823Y800746D02*
X562757Y800746D01*
X562757Y803659D02*
X565823Y803659D01*
X565823Y806572D02*
X562757Y806572D01*
X572323Y806673D02*
X572323Y792007D01*
X569257Y792007D01*
X569257Y806673D01*
X572323Y806673D01*
X572323Y794920D02*
X569257Y794920D01*
X569257Y797833D02*
X572323Y797833D01*
X572323Y800746D02*
X569257Y800746D01*
X569257Y803659D02*
X572323Y803659D01*
X572323Y806572D02*
X569257Y806572D01*
X578823Y806673D02*
X578823Y792007D01*
X575757Y792007D01*
X575757Y806673D01*
X578823Y806673D01*
X578823Y794920D02*
X575757Y794920D01*
X575757Y797833D02*
X578823Y797833D01*
X578823Y800746D02*
X575757Y800746D01*
X575757Y803659D02*
X578823Y803659D01*
X578823Y806572D02*
X575757Y806572D01*
X585323Y806673D02*
X585323Y792007D01*
X582257Y792007D01*
X582257Y806673D01*
X585323Y806673D01*
X585323Y794920D02*
X582257Y794920D01*
X582257Y797833D02*
X585323Y797833D01*
X585323Y800746D02*
X582257Y800746D01*
X582257Y803659D02*
X585323Y803659D01*
X585323Y806572D02*
X582257Y806572D01*
X591823Y806673D02*
X591823Y792007D01*
X588757Y792007D01*
X588757Y806673D01*
X591823Y806673D01*
X591823Y794920D02*
X588757Y794920D01*
X588757Y797833D02*
X591823Y797833D01*
X591823Y800746D02*
X588757Y800746D01*
X588757Y803659D02*
X591823Y803659D01*
X591823Y806572D02*
X588757Y806572D01*
X598323Y806673D02*
X598323Y792007D01*
X595257Y792007D01*
X595257Y806673D01*
X598323Y806673D01*
X598323Y794920D02*
X595257Y794920D01*
X595257Y797833D02*
X598323Y797833D01*
X598323Y800746D02*
X595257Y800746D01*
X595257Y803659D02*
X598323Y803659D01*
X598323Y806572D02*
X595257Y806572D01*
X604823Y806673D02*
X604823Y792007D01*
X601757Y792007D01*
X601757Y806673D01*
X604823Y806673D01*
X604823Y794920D02*
X601757Y794920D01*
X601757Y797833D02*
X604823Y797833D01*
X604823Y800746D02*
X601757Y800746D01*
X601757Y803659D02*
X604823Y803659D01*
X604823Y806572D02*
X601757Y806572D01*
X604823Y849407D02*
X604823Y864073D01*
X604823Y849407D02*
X601757Y849407D01*
X601757Y864073D01*
X604823Y864073D01*
X604823Y852320D02*
X601757Y852320D01*
X601757Y855233D02*
X604823Y855233D01*
X604823Y858146D02*
X601757Y858146D01*
X601757Y861059D02*
X604823Y861059D01*
X604823Y863972D02*
X601757Y863972D01*
X598323Y864073D02*
X598323Y849407D01*
X595257Y849407D01*
X595257Y864073D01*
X598323Y864073D01*
X598323Y852320D02*
X595257Y852320D01*
X595257Y855233D02*
X598323Y855233D01*
X598323Y858146D02*
X595257Y858146D01*
X595257Y861059D02*
X598323Y861059D01*
X598323Y863972D02*
X595257Y863972D01*
X591823Y864073D02*
X591823Y849407D01*
X588757Y849407D01*
X588757Y864073D01*
X591823Y864073D01*
X591823Y852320D02*
X588757Y852320D01*
X588757Y855233D02*
X591823Y855233D01*
X591823Y858146D02*
X588757Y858146D01*
X588757Y861059D02*
X591823Y861059D01*
X591823Y863972D02*
X588757Y863972D01*
X585323Y864073D02*
X585323Y849407D01*
X582257Y849407D01*
X582257Y864073D01*
X585323Y864073D01*
X585323Y852320D02*
X582257Y852320D01*
X582257Y855233D02*
X585323Y855233D01*
X585323Y858146D02*
X582257Y858146D01*
X582257Y861059D02*
X585323Y861059D01*
X585323Y863972D02*
X582257Y863972D01*
X578823Y864073D02*
X578823Y849407D01*
X575757Y849407D01*
X575757Y864073D01*
X578823Y864073D01*
X578823Y852320D02*
X575757Y852320D01*
X575757Y855233D02*
X578823Y855233D01*
X578823Y858146D02*
X575757Y858146D01*
X575757Y861059D02*
X578823Y861059D01*
X578823Y863972D02*
X575757Y863972D01*
X572323Y864073D02*
X572323Y849407D01*
X569257Y849407D01*
X569257Y864073D01*
X572323Y864073D01*
X572323Y852320D02*
X569257Y852320D01*
X569257Y855233D02*
X572323Y855233D01*
X572323Y858146D02*
X569257Y858146D01*
X569257Y861059D02*
X572323Y861059D01*
X572323Y863972D02*
X569257Y863972D01*
X565823Y864073D02*
X565823Y849407D01*
X562757Y849407D01*
X562757Y864073D01*
X565823Y864073D01*
X565823Y852320D02*
X562757Y852320D01*
X562757Y855233D02*
X565823Y855233D01*
X565823Y858146D02*
X562757Y858146D01*
X562757Y861059D02*
X565823Y861059D01*
X565823Y863972D02*
X562757Y863972D01*
X559323Y864073D02*
X559323Y849407D01*
X556257Y849407D01*
X556257Y864073D01*
X559323Y864073D01*
X559323Y852320D02*
X556257Y852320D01*
X556257Y855233D02*
X559323Y855233D01*
X559323Y858146D02*
X556257Y858146D01*
X556257Y861059D02*
X559323Y861059D01*
X559323Y863972D02*
X556257Y863972D01*
X552823Y864073D02*
X552823Y849407D01*
X549757Y849407D01*
X549757Y864073D01*
X552823Y864073D01*
X552823Y852320D02*
X549757Y852320D01*
X549757Y855233D02*
X552823Y855233D01*
X552823Y858146D02*
X549757Y858146D01*
X549757Y861059D02*
X552823Y861059D01*
X552823Y863972D02*
X549757Y863972D01*
X546323Y864073D02*
X546323Y849407D01*
X543257Y849407D01*
X543257Y864073D01*
X546323Y864073D01*
X546323Y852320D02*
X543257Y852320D01*
X543257Y855233D02*
X546323Y855233D01*
X546323Y858146D02*
X543257Y858146D01*
X543257Y861059D02*
X546323Y861059D01*
X546323Y863972D02*
X543257Y863972D01*
D30*
X896620Y911860D03*
X972820Y454660D03*
X1049020Y886460D03*
D31*
X1049020Y911860D03*
D32*
X1049020Y861060D03*
X947420Y454660D03*
D33*
X922020Y454660D03*
X998220Y454660D03*
X1023620Y454660D03*
X1049020Y581660D03*
X896620Y581660D03*
X896620Y886460D03*
X896620Y861060D03*
X896620Y835660D03*
X896620Y810260D03*
X896620Y784860D03*
X896620Y759460D03*
X896620Y734060D03*
X896620Y708660D03*
X896620Y683260D03*
X896620Y657860D03*
X896620Y632460D03*
X896620Y607060D03*
X1023620Y886460D03*
X1049020Y607060D03*
X1049020Y632460D03*
X1049020Y657860D03*
X1049020Y683260D03*
X1049020Y708660D03*
X1049020Y734060D03*
X1049020Y759460D03*
X1049020Y784860D03*
X1049020Y810260D03*
X1049020Y835660D03*
D32*
X896620Y556260D03*
D33*
X896620Y505460D03*
X896620Y480060D03*
X896620Y454660D03*
X896620Y429260D03*
X896620Y403860D03*
X896620Y378460D03*
X896620Y353060D03*
X896620Y327660D03*
X1049020Y530860D03*
X1049020Y505460D03*
X1049020Y480060D03*
X1049020Y454660D03*
X1049020Y429260D03*
X1049020Y403860D03*
X1049020Y378460D03*
X1049020Y353060D03*
X1049020Y327660D03*
X926620Y848360D03*
X926620Y822960D03*
X926620Y797560D03*
X926620Y772160D03*
X926620Y746760D03*
X896620Y530860D03*
D30*
X1049020Y556260D03*
D33*
X982820Y909560D03*
X962820Y909560D03*
D34*
X1023620Y782160D03*
X1003620Y782160D03*
X983620Y782160D03*
X1023620Y762160D03*
X1003620Y762160D03*
X983620Y762160D03*
D12*
X624840Y820546D03*
X624840Y805054D03*
X568960Y302386D03*
X568960Y286894D03*
D16*
X1191260Y58420D03*
D17*
X1191260Y134620D03*
D28*
X815340Y659868D03*
X815340Y676172D03*
D35*
X685840Y726930D03*
X690840Y726930D03*
X695840Y726930D03*
X700840Y726930D03*
X700840Y756430D03*
X695840Y756430D03*
X690840Y756430D03*
X685840Y756430D03*
D36*
X688340Y741680D03*
D37*
X679586Y779780D03*
X697094Y779780D03*
X677046Y698500D03*
X694554Y698500D03*
D38*
X711200Y693654D03*
X711200Y703346D03*
X713740Y764306D03*
X713740Y754614D03*
D28*
X1125220Y711732D03*
X1125220Y695428D03*
X1125220Y730988D03*
X1125220Y747292D03*
D39*
X459980Y390840D03*
X459980Y416240D03*
X459980Y441640D03*
X459980Y467040D03*
X459980Y492440D03*
X459980Y517840D03*
X459980Y543240D03*
X459980Y568640D03*
X459980Y594040D03*
X459980Y619440D03*
X209980Y644840D03*
X209980Y619440D03*
X209980Y594040D03*
X209980Y568640D03*
X209980Y543240D03*
X209980Y517840D03*
X209980Y492440D03*
X209980Y467040D03*
X209980Y441640D03*
X209980Y416240D03*
X209980Y390840D03*
X209980Y365440D03*
D40*
X652290Y226100D03*
X652290Y231100D03*
X652290Y236100D03*
X652290Y241100D03*
X622790Y241100D03*
X622790Y236100D03*
X622790Y231100D03*
X622790Y226100D03*
D41*
X637540Y228600D03*
D11*
X596900Y207146D03*
X596900Y224654D03*
X680720Y204606D03*
X680720Y222114D03*
D42*
X680486Y236220D03*
X670794Y236220D03*
X599674Y243840D03*
X609366Y243840D03*
D40*
X946930Y188000D03*
X946930Y193000D03*
X946930Y198000D03*
X946930Y203000D03*
X917430Y203000D03*
X917430Y198000D03*
X917430Y193000D03*
X917430Y188000D03*
D41*
X932180Y190500D03*
D11*
X891540Y174126D03*
X891540Y191634D03*
D43*
X977900Y164120D03*
X977900Y193628D03*
D42*
X977666Y208280D03*
X967974Y208280D03*
X891774Y205740D03*
X901466Y205740D03*
D40*
X810750Y43140D03*
X810750Y38140D03*
X810750Y33140D03*
X810750Y28140D03*
X840250Y28140D03*
X840250Y33140D03*
X840250Y38140D03*
X840250Y43140D03*
D41*
X825500Y40640D03*
D43*
X861060Y55394D03*
X861060Y25886D03*
D11*
X777240Y57014D03*
X777240Y39506D03*
D42*
X782554Y25400D03*
X792246Y25400D03*
X830809Y17624D03*
X840501Y17624D03*
D35*
X922060Y69070D03*
X927060Y69070D03*
X932060Y69070D03*
X937060Y69070D03*
X937060Y98570D03*
X932060Y98570D03*
X927060Y98570D03*
X922060Y98570D03*
D36*
X924560Y83820D03*
D44*
X908340Y119380D03*
X937848Y119380D03*
D37*
X910726Y45720D03*
X928234Y45720D03*
D38*
X942340Y40874D03*
X942340Y50566D03*
X947420Y103906D03*
X947420Y94214D03*
D40*
X311930Y497880D03*
X311930Y502880D03*
X311930Y507880D03*
X311930Y512880D03*
X282430Y512880D03*
X282430Y507880D03*
X282430Y502880D03*
X282430Y497880D03*
D41*
X297180Y500380D03*
D11*
X261620Y494166D03*
X261620Y511674D03*
X342900Y491626D03*
X342900Y509134D03*
D42*
X345206Y523240D03*
X335514Y523240D03*
X274554Y525780D03*
X284246Y525780D03*
D45*
X71520Y561340D03*
X121520Y561340D03*
X71520Y637540D03*
X121520Y637540D03*
D46*
X1051560Y106934D03*
X1051560Y197866D03*
D16*
X114300Y457200D03*
D17*
X114300Y381000D03*
X114300Y304800D03*
D16*
X116840Y195580D03*
D17*
X116840Y119380D03*
D47*
X229090Y304390D03*
X229090Y297890D03*
X229090Y291390D03*
X229090Y284890D03*
X258590Y284890D03*
X258590Y291390D03*
X258590Y297890D03*
X258590Y304390D03*
D48*
X239903Y286766D03*
X239903Y302514D03*
X247777Y294640D03*
D12*
X210820Y302134D03*
X210820Y317626D03*
D14*
X193166Y302260D03*
X177674Y302260D03*
D12*
X279400Y299846D03*
X279400Y284354D03*
X228600Y269366D03*
X228600Y253874D03*
D49*
X208280Y274325D03*
X208280Y284475D03*
X274320Y322575D03*
X274320Y312425D03*
D50*
X195575Y317500D03*
X185425Y317500D03*
X182885Y284480D03*
X193035Y284480D03*
D25*
X803172Y467360D03*
X786868Y467360D03*
D28*
X817880Y488212D03*
X817880Y471908D03*
D51*
X1219200Y246380D03*
X1219200Y957580D03*
D50*
X734065Y58420D03*
X744215Y58420D03*
D25*
X705588Y58420D03*
X721892Y58420D03*
D50*
X1122685Y172720D03*
X1132835Y172720D03*
D28*
X1122680Y206272D03*
X1122680Y189968D03*
D52*
X1162660Y225400D03*
X1143660Y225400D03*
X1153160Y206400D03*
D53*
X1206500Y186200D03*
X1206500Y220200D03*
D25*
X1172948Y187960D03*
X1189252Y187960D03*
D50*
X1188715Y218440D03*
X1178565Y218440D03*
D54*
X1241920Y191020D03*
X1264920Y191020D03*
X1287920Y191020D03*
D55*
X1264920Y256020D03*
D56*
X464820Y853440D03*
X464820Y840740D03*
X474980Y845820D03*
X495300Y838200D03*
X513080Y838200D03*
X495300Y817880D03*
X513080Y817880D03*
X495300Y797560D03*
X513080Y797560D03*
X495300Y777240D03*
X513080Y777240D03*
X492760Y741680D03*
X477520Y200660D03*
X477520Y187960D03*
X487680Y195580D03*
X505460Y180340D03*
X505460Y162560D03*
X505460Y142240D03*
X505460Y121920D03*
X378460Y22860D03*
X419100Y149860D03*
X495300Y35560D03*
X1000760Y596900D03*
X937260Y568960D03*
X927100Y510540D03*
X911860Y469900D03*
X927100Y414020D03*
X924560Y368300D03*
X972820Y416560D03*
X998220Y416560D03*
X995680Y370840D03*
X1021080Y436880D03*
X1010920Y474980D03*
X1018540Y721360D03*
X1000760Y744220D03*
X1016000Y840740D03*
X922020Y883920D03*
X538480Y706120D03*
X984476Y673100D03*
X965276Y645236D03*
X994728Y571592D03*
X974930Y550750D03*
X992096Y802640D03*
X708660Y894080D03*
X779780Y843280D03*
X617220Y891540D03*
X558800Y838200D03*
X980440Y858520D03*
X949960Y830580D03*
X911860Y830580D03*
X911860Y855980D03*
X828040Y861060D03*
X815340Y891540D03*
X952500Y853440D03*
X995680Y833120D03*
X1010920Y873760D03*
X957072Y882904D03*
X944880Y901700D03*
X1003300Y911860D03*
X922020Y617220D03*
X952500Y576580D03*
X952500Y548640D03*
X998220Y518160D03*
X1033780Y492760D03*
X947420Y383540D03*
X998220Y322580D03*
X835660Y416560D03*
X833120Y487680D03*
X817880Y642620D03*
X817880Y614680D03*
X817880Y586740D03*
X815086Y687324D03*
X828040Y749300D03*
X822960Y769620D03*
X398780Y68580D03*
X533400Y238760D03*
X581660Y236220D03*
X657860Y370840D03*
X467360Y332740D03*
X424180Y330200D03*
X525780Y368300D03*
X662940Y414020D03*
X662940Y485140D03*
X662940Y556260D03*
X383540Y805180D03*
X391160Y894080D03*
X441960Y909320D03*
X441960Y924560D03*
X287020Y911860D03*
X254000Y896620D03*
X93980Y787400D03*
X139700Y787400D03*
X91440Y728980D03*
X137160Y728980D03*
X116840Y787400D03*
X114300Y728980D03*
X101600Y142240D03*
X111760Y88900D03*
X137160Y91440D03*
X205740Y104140D03*
X149860Y106680D03*
X1170940Y154940D03*
X1211580Y154940D03*
X1219200Y124460D03*
X1191260Y106680D03*
X1163320Y124460D03*
X436880Y261620D03*
X411480Y294640D03*
X455796Y683168D03*
X456360Y161720D03*
X416560Y187960D03*
X548640Y293144D03*
X89374Y104140D03*
X129540Y144306D03*
X592681Y817019D03*
X455653Y130205D03*
X480060Y86360D03*
X837770Y317070D03*
X556690Y817450D03*
X579120Y904240D03*
X965200Y50800D03*
X949960Y66040D03*
X949960Y114300D03*
X937260Y144780D03*
X828040Y70894D03*
X458720Y70100D03*
X444250Y48010D03*
X546100Y335054D03*
X500380Y335054D03*
X1153160Y238760D03*
X1165860Y200660D03*
X1229360Y180340D03*
X1239520Y215900D03*
X1287780Y210820D03*
X1267460Y66040D03*
X1254760Y50800D03*
X1244600Y33020D03*
X1229360Y20320D03*
X1290320Y228600D03*
X1292860Y251460D03*
X1292860Y269240D03*
X854202Y13942D03*
X924560Y14478D03*
X977392Y14224D03*
X1027938Y13970D03*
X1080008Y14224D03*
X1133348Y14478D03*
X1188720Y13970D03*
X812038Y16256D03*
X746760Y35560D03*
X688340Y58420D03*
X688340Y104140D03*
X1023190Y389050D03*
X1034210Y418670D03*
X973660Y316660D03*
X953996Y296340D03*
X976856Y729714D03*
X802640Y791436D03*
X481196Y694464D03*
X410348Y795036D03*
X492852Y684212D03*
X422818Y670242D03*
X387488Y726456D03*
X458608Y751856D03*
X413004Y885695D03*
X831420Y463776D03*
X551180Y591820D03*
X584200Y568960D03*
X551180Y558800D03*
X513080Y556260D03*
X535940Y576580D03*
X812800Y396240D03*
X820420Y381000D03*
X802640Y370840D03*
X713740Y726440D03*
X797130Y749730D03*
X721360Y693420D03*
X756920Y670560D03*
X640080Y685800D03*
X640080Y708660D03*
X642620Y744220D03*
X734060Y706120D03*
X655320Y627380D03*
X683260Y581660D03*
X622300Y586740D03*
X594360Y604520D03*
X604520Y553720D03*
X355600Y520700D03*
X363220Y535940D03*
X373380Y515620D03*
X312420Y523240D03*
X330200Y472440D03*
X375920Y462280D03*
X264160Y523240D03*
X281940Y464820D03*
X297180Y525780D03*
X553720Y104140D03*
X629920Y160020D03*
X622300Y104140D03*
X683260Y271780D03*
X647700Y259080D03*
X594360Y289560D03*
X619760Y330200D03*
X640080Y350520D03*
X675640Y350520D03*
X607060Y373380D03*
X612140Y424180D03*
X568960Y327660D03*
X576580Y368300D03*
X434340Y358140D03*
X391160Y383540D03*
X370840Y340360D03*
X411480Y421640D03*
X530860Y627380D03*
X574040Y652780D03*
X520700Y655320D03*
X548640Y744220D03*
X655320Y820420D03*
X741680Y769620D03*
X769620Y741680D03*
X797560Y769620D03*
X767080Y797560D03*
X731520Y812800D03*
X228600Y919480D03*
X195580Y254000D03*
X254000Y261620D03*
X248920Y317500D03*
X299720Y327660D03*
X170180Y317500D03*
X200660Y292100D03*
X172720Y269240D03*
X266700Y271780D03*
X350520Y254000D03*
X309880Y251460D03*
X332740Y275590D03*
X354076Y295910D03*
X373380Y289560D03*
X416560Y261620D03*
X381000Y241300D03*
X320040Y200660D03*
X294640Y203200D03*
X378460Y127000D03*
X378460Y167640D03*
X411480Y134620D03*
X452120Y93980D03*
X353060Y66040D03*
X444500Y30480D03*
X556260Y38100D03*
X657860Y53340D03*
X863600Y68580D03*
X822960Y101600D03*
X861060Y99060D03*
X891540Y88900D03*
X791972Y99314D03*
X764540Y99060D03*
X728980Y99060D03*
X1013460Y43180D03*
X988060Y68580D03*
X977900Y86360D03*
X927100Y157480D03*
X881380Y213360D03*
X1196340Y248920D03*
X1127760Y157480D03*
X1130300Y226060D03*
X1013460Y403860D03*
X825500Y360680D03*
X820420Y342900D03*
X815340Y297180D03*
X822960Y223520D03*
X1018540Y538480D03*
X927100Y708660D03*
X972820Y708660D03*
X825500Y812800D03*
X909320Y797560D03*
X863600Y746760D03*
X861060Y797560D03*
X662940Y795020D03*
X718820Y795020D03*
X713740Y744220D03*
X327660Y929640D03*
X147320Y370840D03*
X134620Y340360D03*
X139700Y287020D03*
X182880Y345440D03*
X233680Y317500D03*
X241300Y340360D03*
X810260Y424180D03*
X820420Y441960D03*
X441960Y886460D03*
X474980Y866140D03*
X480060Y789940D03*
X629920Y370840D03*
X556260Y284480D03*
X464820Y88900D03*
X556260Y226060D03*
X947420Y408940D03*
X934720Y642620D03*
X564310Y606630D03*
X617938Y791762D03*
X510970Y691310D03*
X434340Y716280D03*
X462280Y716280D03*
X538480Y721360D03*
X815340Y807720D03*
X972352Y385612D03*
X541020Y70668D03*
X965200Y378460D03*
X924560Y650240D03*
X810260Y819940D03*
X534574Y732886D03*
X524284Y79784D03*
X939800Y340360D03*
X820420Y795020D03*
X911430Y607490D03*
X495300Y81054D03*
X539976Y695960D03*
X927100Y436880D03*
X815340Y457200D03*
X668020Y383540D03*
X499950Y726010D03*
X584200Y600376D03*
X419100Y919480D03*
X957580Y802640D03*
X944372Y632460D03*
X469900Y345440D03*
X576580Y345440D03*
X553720Y304800D03*
X640080Y386080D03*
X639670Y538070D03*
X482600Y210820D03*
X492760Y139700D03*
X488724Y73660D03*
X938756Y327660D03*
X613636Y317500D03*
X801800Y489380D03*
X657020Y585900D03*
X646506Y588086D03*
X589280Y835660D03*
X607060Y904240D03*
X967740Y812800D03*
X952500Y619760D03*
X511581Y746732D03*
X566420Y246380D03*
X998220Y429260D03*
X525780Y106680D03*
X762000Y778284D03*
X593892Y555792D03*
X635000Y589280D03*
X15240Y386080D03*
X805180Y508000D03*
X670560Y304800D03*
X586740Y55880D03*
X396240Y345440D03*
X800100Y35560D03*
X807720Y215900D03*
X960120Y63500D03*
X845820Y185420D03*
X797560Y335280D03*
X370840Y408940D03*
X609600Y360680D03*
X670560Y332740D03*
X800100Y408940D03*
X650240Y617220D03*
X738788Y68932D03*
X962660Y314960D03*
X332740Y436880D03*
X414020Y548640D03*
X668020Y584200D03*
M02*
