G04 EAGLE Gerber RS-274X export*
G75*
%MOMM*%
%FSLAX34Y34*%
%LPD*%
%INSolderpaste Top*%
%IPPOS*%
%AMOC8*
5,1,8,0,0,1.08239X$1,22.5*%
G01*
G04 Define Apertures*
%ADD10R,1.465300X1.164600*%
%ADD11R,0.970200X0.920900*%
%ADD12R,2.715300X1.164600*%
%ADD13R,0.920900X0.970200*%
%ADD14R,2.203600X1.795500*%
%ADD15R,3.100000X4.000000*%
%ADD16R,1.511200X0.330000*%
%ADD17R,2.469200X0.622100*%
%ADD18R,0.622100X2.469200*%
%ADD19R,0.798700X0.973900*%
%ADD20R,1.260000X1.450000*%
%ADD21C,0.247500*%
%ADD22C,0.037500*%
%ADD23C,0.060000*%
%ADD24R,0.973900X0.798700*%
%ADD25C,0.102500*%
%ADD26R,1.824000X0.828000*%
%ADD27R,0.250000X0.850000*%
%ADD28R,1.164600X1.465300*%
%ADD29R,0.629100X0.560000*%
%ADD30R,0.828000X1.824000*%
%ADD31R,0.850000X0.250000*%
%ADD32R,0.560000X0.629100*%
%ADD33R,1.815300X1.164600*%
%ADD34R,1.164600X1.815300*%
%ADD35R,1.498600X3.911600*%
%ADD36R,0.644000X0.535100*%
%ADD37R,0.535100X0.644000*%
%ADD38R,0.600000X1.500000*%
%ADD39R,0.750000X1.200000*%
%ADD40R,0.900000X1.500000*%
%ADD41R,3.200000X1.500000*%
G36*
X456488Y856425D02*
X456510Y856315D01*
X456510Y853305D01*
X456488Y853195D01*
X456423Y853097D01*
X456325Y853032D01*
X456215Y853010D01*
X445715Y853010D01*
X445634Y852994D01*
X445569Y852951D01*
X445526Y852886D01*
X445510Y852805D01*
X445510Y844305D01*
X445488Y844195D01*
X445423Y844097D01*
X445325Y844032D01*
X445215Y844010D01*
X442205Y844010D01*
X442095Y844032D01*
X441997Y844097D01*
X441932Y844195D01*
X441910Y844305D01*
X441910Y856315D01*
X441932Y856425D01*
X441997Y856523D01*
X442095Y856588D01*
X442205Y856610D01*
X456215Y856610D01*
X456325Y856588D01*
X456423Y856523D01*
X456488Y856425D01*
G37*
G36*
X456488Y868925D02*
X456510Y868815D01*
X456510Y865805D01*
X456488Y865695D01*
X456423Y865597D01*
X456325Y865532D01*
X456215Y865510D01*
X442205Y865510D01*
X442095Y865532D01*
X441997Y865597D01*
X441932Y865695D01*
X441910Y865805D01*
X441910Y877815D01*
X441932Y877925D01*
X441997Y878023D01*
X442095Y878088D01*
X442205Y878110D01*
X445215Y878110D01*
X445325Y878088D01*
X445423Y878023D01*
X445488Y877925D01*
X445510Y877815D01*
X445510Y869315D01*
X445526Y869234D01*
X445569Y869169D01*
X445634Y869126D01*
X445715Y869110D01*
X456215Y869110D01*
X456325Y869088D01*
X456423Y869023D01*
X456488Y868925D01*
G37*
G36*
X469188Y201105D02*
X469210Y200995D01*
X469210Y197985D01*
X469188Y197875D01*
X469123Y197777D01*
X469025Y197712D01*
X468915Y197690D01*
X458415Y197690D01*
X458334Y197674D01*
X458269Y197631D01*
X458226Y197566D01*
X458210Y197485D01*
X458210Y188985D01*
X458188Y188875D01*
X458123Y188777D01*
X458025Y188712D01*
X457915Y188690D01*
X454905Y188690D01*
X454795Y188712D01*
X454697Y188777D01*
X454632Y188875D01*
X454610Y188985D01*
X454610Y200995D01*
X454632Y201105D01*
X454697Y201203D01*
X454795Y201268D01*
X454905Y201290D01*
X468915Y201290D01*
X469025Y201268D01*
X469123Y201203D01*
X469188Y201105D01*
G37*
G36*
X469188Y213605D02*
X469210Y213495D01*
X469210Y210485D01*
X469188Y210375D01*
X469123Y210277D01*
X469025Y210212D01*
X468915Y210190D01*
X454905Y210190D01*
X454795Y210212D01*
X454697Y210277D01*
X454632Y210375D01*
X454610Y210485D01*
X454610Y222495D01*
X454632Y222605D01*
X454697Y222703D01*
X454795Y222768D01*
X454905Y222790D01*
X457915Y222790D01*
X458025Y222768D01*
X458123Y222703D01*
X458188Y222605D01*
X458210Y222495D01*
X458210Y213995D01*
X458226Y213914D01*
X458269Y213849D01*
X458334Y213806D01*
X458415Y213790D01*
X468915Y213790D01*
X469025Y213768D01*
X469123Y213703D01*
X469188Y213605D01*
G37*
G36*
X278130Y491580D02*
X278130Y494180D01*
X286730Y494180D01*
X286730Y486580D01*
X278130Y486580D01*
X278130Y489180D01*
X283630Y489180D01*
X283630Y491580D01*
X278130Y491580D01*
G37*
G36*
X307630Y486580D02*
X307630Y494180D01*
X316230Y494180D01*
X316230Y491580D01*
X310730Y491580D01*
X310730Y489180D01*
X316230Y489180D01*
X316230Y486580D01*
X307630Y486580D01*
G37*
G36*
X618490Y219800D02*
X618490Y222400D01*
X627090Y222400D01*
X627090Y214800D01*
X618490Y214800D01*
X618490Y217400D01*
X623990Y217400D01*
X623990Y219800D01*
X618490Y219800D01*
G37*
G36*
X647990Y214800D02*
X647990Y222400D01*
X656590Y222400D01*
X656590Y219800D01*
X651090Y219800D01*
X651090Y217400D01*
X656590Y217400D01*
X656590Y214800D01*
X647990Y214800D01*
G37*
G36*
X674540Y731230D02*
X682140Y731230D01*
X682140Y722630D01*
X679540Y722630D01*
X679540Y728130D01*
X677140Y728130D01*
X677140Y722630D01*
X674540Y722630D01*
X674540Y731230D01*
G37*
G36*
X679540Y760730D02*
X682140Y760730D01*
X682140Y752130D01*
X674540Y752130D01*
X674540Y760730D01*
X677140Y760730D01*
X677140Y755230D01*
X679540Y755230D01*
X679540Y760730D01*
G37*
G36*
X815050Y54440D02*
X815050Y46840D01*
X806450Y46840D01*
X806450Y49440D01*
X811950Y49440D01*
X811950Y51840D01*
X806450Y51840D01*
X806450Y54440D01*
X815050Y54440D01*
G37*
G36*
X844550Y49440D02*
X844550Y46840D01*
X835950Y46840D01*
X835950Y54440D01*
X844550Y54440D01*
X844550Y51840D01*
X839050Y51840D01*
X839050Y49440D01*
X844550Y49440D01*
G37*
G36*
X910760Y73370D02*
X918360Y73370D01*
X918360Y64770D01*
X915760Y64770D01*
X915760Y70270D01*
X913360Y70270D01*
X913360Y64770D01*
X910760Y64770D01*
X910760Y73370D01*
G37*
G36*
X915760Y102870D02*
X918360Y102870D01*
X918360Y94270D01*
X910760Y94270D01*
X910760Y102870D01*
X913360Y102870D01*
X913360Y97370D01*
X915760Y97370D01*
X915760Y102870D01*
G37*
G36*
X913130Y181700D02*
X913130Y184300D01*
X921730Y184300D01*
X921730Y176700D01*
X913130Y176700D01*
X913130Y179300D01*
X918630Y179300D01*
X918630Y181700D01*
X913130Y181700D01*
G37*
G36*
X942630Y176700D02*
X942630Y184300D01*
X951230Y184300D01*
X951230Y181700D01*
X945730Y181700D01*
X945730Y179300D01*
X951230Y179300D01*
X951230Y176700D01*
X942630Y176700D01*
G37*
G36*
X246904Y289127D02*
X245416Y287639D01*
X242264Y287639D01*
X240776Y289127D01*
X240776Y292279D01*
X242264Y293767D01*
X245416Y293767D01*
X246904Y292279D01*
X246904Y289127D01*
G37*
G36*
X246904Y297001D02*
X245416Y295513D01*
X242264Y295513D01*
X240776Y297001D01*
X240776Y300153D01*
X242264Y301641D01*
X245416Y301641D01*
X246904Y300153D01*
X246904Y297001D01*
G37*
G36*
X233218Y286518D02*
X233218Y283262D01*
X224962Y283262D01*
X224962Y286518D01*
X233218Y286518D01*
G37*
G36*
X233218Y293018D02*
X233218Y289762D01*
X224962Y289762D01*
X224962Y293018D01*
X233218Y293018D01*
G37*
G36*
X233218Y299518D02*
X233218Y296262D01*
X224962Y296262D01*
X224962Y299518D01*
X233218Y299518D01*
G37*
G36*
X233218Y306018D02*
X233218Y302762D01*
X224962Y302762D01*
X224962Y306018D01*
X233218Y306018D01*
G37*
G36*
X262718Y286518D02*
X262718Y283262D01*
X254462Y283262D01*
X254462Y286518D01*
X262718Y286518D01*
G37*
G36*
X262718Y293018D02*
X262718Y289762D01*
X254462Y289762D01*
X254462Y293018D01*
X262718Y293018D01*
G37*
G36*
X262718Y299518D02*
X262718Y296262D01*
X254462Y296262D01*
X254462Y299518D01*
X262718Y299518D01*
G37*
G36*
X262718Y306018D02*
X262718Y302762D01*
X254462Y302762D01*
X254462Y306018D01*
X262718Y306018D01*
G37*
G36*
X434488Y849675D02*
X434510Y849565D01*
X434510Y844305D01*
X434488Y844195D01*
X434423Y844097D01*
X434325Y844032D01*
X434215Y844010D01*
X432205Y844010D01*
X432095Y844032D01*
X431997Y844097D01*
X431932Y844195D01*
X431910Y844305D01*
X431910Y847305D01*
X431894Y847386D01*
X431851Y847451D01*
X431786Y847494D01*
X431705Y847510D01*
X427705Y847510D01*
X427595Y847532D01*
X427497Y847597D01*
X427432Y847695D01*
X427410Y847805D01*
X427410Y849565D01*
X427432Y849675D01*
X427497Y849773D01*
X427595Y849838D01*
X427705Y849860D01*
X434215Y849860D01*
X434325Y849838D01*
X434423Y849773D01*
X434488Y849675D01*
G37*
G36*
X447188Y194355D02*
X447210Y194245D01*
X447210Y188985D01*
X447188Y188875D01*
X447123Y188777D01*
X447025Y188712D01*
X446915Y188690D01*
X444905Y188690D01*
X444795Y188712D01*
X444697Y188777D01*
X444632Y188875D01*
X444610Y188985D01*
X444610Y191985D01*
X444594Y192066D01*
X444551Y192131D01*
X444486Y192174D01*
X444405Y192190D01*
X440405Y192190D01*
X440295Y192212D01*
X440197Y192277D01*
X440132Y192375D01*
X440110Y192485D01*
X440110Y194245D01*
X440132Y194355D01*
X440197Y194453D01*
X440295Y194518D01*
X440405Y194540D01*
X446915Y194540D01*
X447025Y194518D01*
X447123Y194453D01*
X447188Y194355D01*
G37*
G36*
X434488Y877925D02*
X434510Y877815D01*
X434510Y872555D01*
X434488Y872445D01*
X434325Y872282D01*
X434215Y872260D01*
X427705Y872260D01*
X427595Y872282D01*
X427497Y872347D01*
X427432Y872445D01*
X427410Y872555D01*
X427410Y874315D01*
X427432Y874425D01*
X427497Y874523D01*
X427595Y874588D01*
X427705Y874610D01*
X431705Y874610D01*
X431786Y874626D01*
X431851Y874669D01*
X431894Y874734D01*
X431910Y874815D01*
X431910Y877815D01*
X431932Y877925D01*
X431997Y878023D01*
X432095Y878088D01*
X432205Y878110D01*
X434215Y878110D01*
X434325Y878088D01*
X434423Y878023D01*
X434488Y877925D01*
G37*
G36*
X447188Y222605D02*
X447210Y222495D01*
X447210Y217235D01*
X447188Y217125D01*
X447025Y216962D01*
X446915Y216940D01*
X440405Y216940D01*
X440295Y216962D01*
X440197Y217027D01*
X440132Y217125D01*
X440110Y217235D01*
X440110Y218995D01*
X440132Y219105D01*
X440197Y219203D01*
X440295Y219268D01*
X440405Y219290D01*
X444405Y219290D01*
X444486Y219306D01*
X444551Y219349D01*
X444594Y219414D01*
X444610Y219495D01*
X444610Y222495D01*
X444632Y222605D01*
X444697Y222703D01*
X444795Y222768D01*
X444905Y222790D01*
X446915Y222790D01*
X447025Y222768D01*
X447123Y222703D01*
X447188Y222605D01*
G37*
G36*
X246904Y284405D02*
X246904Y283262D01*
X240776Y283262D01*
X240776Y284405D01*
X242264Y285893D01*
X245416Y285893D01*
X246904Y284405D01*
G37*
G36*
X246904Y304875D02*
X245416Y303387D01*
X242264Y303387D01*
X240776Y304875D01*
X240776Y306018D01*
X246904Y306018D01*
X246904Y304875D01*
G37*
G36*
X239030Y289127D02*
X237542Y287639D01*
X236462Y287639D01*
X236462Y293767D01*
X237542Y293767D01*
X239030Y292279D01*
X239030Y289127D01*
G37*
G36*
X239030Y297001D02*
X237542Y295513D01*
X236462Y295513D01*
X236462Y301641D01*
X237542Y301641D01*
X239030Y300153D01*
X239030Y297001D01*
G37*
G36*
X251218Y293767D02*
X251218Y287639D01*
X250138Y287639D01*
X248650Y289127D01*
X248650Y292279D01*
X250138Y293767D01*
X251218Y293767D01*
G37*
G36*
X251218Y301641D02*
X251218Y295513D01*
X250138Y295513D01*
X248650Y297001D01*
X248650Y300153D01*
X250138Y301641D01*
X251218Y301641D01*
G37*
G36*
X239030Y284405D02*
X239030Y283262D01*
X236462Y283262D01*
X236462Y285893D01*
X237542Y285893D01*
X239030Y284405D01*
G37*
G36*
X239030Y304875D02*
X237542Y303387D01*
X236462Y303387D01*
X236462Y306018D01*
X239030Y306018D01*
X239030Y304875D01*
G37*
G36*
X251218Y285893D02*
X251218Y283262D01*
X248650Y283262D01*
X248650Y284405D01*
X250138Y285893D01*
X251218Y285893D01*
G37*
G36*
X251218Y306018D02*
X251218Y303387D01*
X250138Y303387D01*
X248650Y304875D01*
X248650Y306018D01*
X251218Y306018D01*
G37*
D10*
X190500Y133214D03*
X190500Y115706D03*
X195580Y808854D03*
X195580Y791346D03*
D11*
X441960Y233554D03*
X441960Y249046D03*
X429260Y886334D03*
X429260Y901826D03*
D10*
X398780Y166506D03*
X398780Y184014D03*
X403860Y826906D03*
X403860Y844414D03*
D12*
X447040Y290046D03*
X447040Y319554D03*
X464820Y892026D03*
X464820Y921534D03*
X485140Y290046D03*
X485140Y319554D03*
X502920Y892026D03*
X502920Y921534D03*
X523240Y290046D03*
X523240Y319554D03*
X541020Y892026D03*
X541020Y921534D03*
D11*
X401320Y225934D03*
X401320Y241426D03*
D13*
X397638Y872998D03*
X413130Y872998D03*
D11*
X434340Y159894D03*
X434340Y175386D03*
X429768Y813690D03*
X429768Y829182D03*
D13*
X482726Y172720D03*
X467234Y172720D03*
X464946Y828040D03*
X449454Y828040D03*
D10*
X617220Y404994D03*
X617220Y387486D03*
D14*
X508000Y410839D03*
X508000Y381641D03*
D15*
X342520Y144780D03*
X231520Y144780D03*
X350140Y833120D03*
X239140Y833120D03*
D16*
X519590Y48420D03*
X519590Y53420D03*
X519590Y58420D03*
X519590Y63420D03*
X519590Y68420D03*
X476090Y68420D03*
X476090Y63420D03*
X476090Y58420D03*
X476090Y53420D03*
X476090Y48420D03*
X522130Y706280D03*
X522130Y711280D03*
X522130Y716280D03*
X522130Y721280D03*
X522130Y726280D03*
X478630Y726280D03*
X478630Y721280D03*
X478630Y716280D03*
X478630Y711280D03*
X478630Y706280D03*
D17*
X377184Y87630D03*
X377184Y74930D03*
X377184Y62230D03*
X377184Y49530D03*
X425456Y49530D03*
X425456Y62230D03*
X425456Y74930D03*
X425456Y87630D03*
D18*
X407670Y692144D03*
X420370Y692144D03*
X433070Y692144D03*
X445770Y692144D03*
X445770Y740416D03*
X433070Y740416D03*
X420370Y740416D03*
X407670Y740416D03*
D19*
X292632Y226060D03*
X276328Y226060D03*
X277392Y929640D03*
X261088Y929640D03*
X323112Y226060D03*
X306808Y226060D03*
X310412Y929640D03*
X294108Y929640D03*
X483132Y152400D03*
X466828Y152400D03*
X465352Y807720D03*
X449048Y807720D03*
X466828Y132080D03*
X483132Y132080D03*
X449048Y787400D03*
X465352Y787400D03*
X483132Y111760D03*
X466828Y111760D03*
X465352Y767080D03*
X449048Y767080D03*
D20*
X557420Y504540D03*
X539420Y504540D03*
X521420Y504540D03*
X575420Y504540D03*
X593420Y504540D03*
X611420Y504540D03*
X557420Y529940D03*
X539420Y529940D03*
X521420Y529940D03*
X575420Y529940D03*
X593420Y529940D03*
X611420Y529940D03*
X557420Y479140D03*
X539420Y479140D03*
X521420Y479140D03*
X575420Y479140D03*
X593420Y479140D03*
X611420Y479140D03*
D21*
X544733Y413453D02*
X544733Y378027D01*
X537307Y378027D01*
X537307Y413453D01*
X544733Y413453D01*
X544733Y380378D02*
X537307Y380378D01*
X537307Y382729D02*
X544733Y382729D01*
X544733Y385080D02*
X537307Y385080D01*
X537307Y387431D02*
X544733Y387431D01*
X544733Y389782D02*
X537307Y389782D01*
X537307Y392133D02*
X544733Y392133D01*
X544733Y394484D02*
X537307Y394484D01*
X537307Y396835D02*
X544733Y396835D01*
X544733Y399186D02*
X537307Y399186D01*
X537307Y401537D02*
X544733Y401537D01*
X544733Y403888D02*
X537307Y403888D01*
X537307Y406239D02*
X544733Y406239D01*
X544733Y408590D02*
X537307Y408590D01*
X537307Y410941D02*
X544733Y410941D01*
X544733Y413292D02*
X537307Y413292D01*
X570133Y413453D02*
X570133Y378027D01*
X562707Y378027D01*
X562707Y413453D01*
X570133Y413453D01*
X570133Y380378D02*
X562707Y380378D01*
X562707Y382729D02*
X570133Y382729D01*
X570133Y385080D02*
X562707Y385080D01*
X562707Y387431D02*
X570133Y387431D01*
X570133Y389782D02*
X562707Y389782D01*
X562707Y392133D02*
X570133Y392133D01*
X570133Y394484D02*
X562707Y394484D01*
X562707Y396835D02*
X570133Y396835D01*
X570133Y399186D02*
X562707Y399186D01*
X562707Y401537D02*
X570133Y401537D01*
X570133Y403888D02*
X562707Y403888D01*
X562707Y406239D02*
X570133Y406239D01*
X570133Y408590D02*
X562707Y408590D01*
X562707Y410941D02*
X570133Y410941D01*
X570133Y413292D02*
X562707Y413292D01*
X595533Y413453D02*
X595533Y378027D01*
X588107Y378027D01*
X588107Y413453D01*
X595533Y413453D01*
X595533Y380378D02*
X588107Y380378D01*
X588107Y382729D02*
X595533Y382729D01*
X595533Y385080D02*
X588107Y385080D01*
X588107Y387431D02*
X595533Y387431D01*
X595533Y389782D02*
X588107Y389782D01*
X588107Y392133D02*
X595533Y392133D01*
X595533Y394484D02*
X588107Y394484D01*
X588107Y396835D02*
X595533Y396835D01*
X595533Y399186D02*
X588107Y399186D01*
X588107Y401537D02*
X595533Y401537D01*
X595533Y403888D02*
X588107Y403888D01*
X588107Y406239D02*
X595533Y406239D01*
X595533Y408590D02*
X588107Y408590D01*
X588107Y410941D02*
X595533Y410941D01*
X595533Y413292D02*
X588107Y413292D01*
D22*
X445473Y204303D02*
X445473Y202177D01*
X440347Y202177D01*
X440347Y204303D01*
X445473Y204303D01*
X445473Y202533D02*
X440347Y202533D01*
X440347Y202889D02*
X445473Y202889D01*
X445473Y203245D02*
X440347Y203245D01*
X440347Y203601D02*
X445473Y203601D01*
X445473Y203957D02*
X440347Y203957D01*
X445473Y207177D02*
X445473Y209303D01*
X445473Y207177D02*
X440347Y207177D01*
X440347Y209303D01*
X445473Y209303D01*
X445473Y207533D02*
X440347Y207533D01*
X440347Y207889D02*
X445473Y207889D01*
X445473Y208245D02*
X440347Y208245D01*
X440347Y208601D02*
X445473Y208601D01*
X445473Y208957D02*
X440347Y208957D01*
X445473Y212177D02*
X445473Y214303D01*
X445473Y212177D02*
X440347Y212177D01*
X440347Y214303D01*
X445473Y214303D01*
X445473Y212533D02*
X440347Y212533D01*
X440347Y212889D02*
X445473Y212889D01*
X445473Y213245D02*
X440347Y213245D01*
X440347Y213601D02*
X445473Y213601D01*
X445473Y213957D02*
X440347Y213957D01*
X445473Y199303D02*
X445473Y197177D01*
X440347Y197177D01*
X440347Y199303D01*
X445473Y199303D01*
X445473Y197533D02*
X440347Y197533D01*
X440347Y197889D02*
X445473Y197889D01*
X445473Y198245D02*
X440347Y198245D01*
X440347Y198601D02*
X445473Y198601D01*
X445473Y198957D02*
X440347Y198957D01*
D23*
X461860Y204040D02*
X461860Y207440D01*
X461860Y204040D02*
X452460Y204040D01*
X452460Y207440D01*
X461860Y207440D01*
X461860Y204610D02*
X452460Y204610D01*
X452460Y205180D02*
X461860Y205180D01*
X461860Y205750D02*
X452460Y205750D01*
X452460Y206320D02*
X461860Y206320D01*
X461860Y206890D02*
X452460Y206890D01*
D22*
X451973Y217427D02*
X451973Y222553D01*
X451973Y217427D02*
X449847Y217427D01*
X449847Y222553D01*
X451973Y222553D01*
X451973Y217783D02*
X449847Y217783D01*
X449847Y218139D02*
X451973Y218139D01*
X451973Y218495D02*
X449847Y218495D01*
X449847Y218851D02*
X451973Y218851D01*
X451973Y219207D02*
X449847Y219207D01*
X449847Y219563D02*
X451973Y219563D01*
X451973Y219919D02*
X449847Y219919D01*
X449847Y220275D02*
X451973Y220275D01*
X451973Y220631D02*
X449847Y220631D01*
X449847Y220987D02*
X451973Y220987D01*
X451973Y221343D02*
X449847Y221343D01*
X449847Y221699D02*
X451973Y221699D01*
X451973Y222055D02*
X449847Y222055D01*
X449847Y222411D02*
X451973Y222411D01*
X451973Y194053D02*
X451973Y188927D01*
X449847Y188927D01*
X449847Y194053D01*
X451973Y194053D01*
X451973Y189283D02*
X449847Y189283D01*
X449847Y189639D02*
X451973Y189639D01*
X451973Y189995D02*
X449847Y189995D01*
X449847Y190351D02*
X451973Y190351D01*
X451973Y190707D02*
X449847Y190707D01*
X449847Y191063D02*
X451973Y191063D01*
X451973Y191419D02*
X449847Y191419D01*
X449847Y191775D02*
X451973Y191775D01*
X451973Y192131D02*
X449847Y192131D01*
X449847Y192487D02*
X451973Y192487D01*
X451973Y192843D02*
X449847Y192843D01*
X449847Y193199D02*
X451973Y193199D01*
X451973Y193555D02*
X449847Y193555D01*
X449847Y193911D02*
X451973Y193911D01*
X432773Y857497D02*
X432773Y859623D01*
X432773Y857497D02*
X427647Y857497D01*
X427647Y859623D01*
X432773Y859623D01*
X432773Y857853D02*
X427647Y857853D01*
X427647Y858209D02*
X432773Y858209D01*
X432773Y858565D02*
X427647Y858565D01*
X427647Y858921D02*
X432773Y858921D01*
X432773Y859277D02*
X427647Y859277D01*
X432773Y862497D02*
X432773Y864623D01*
X432773Y862497D02*
X427647Y862497D01*
X427647Y864623D01*
X432773Y864623D01*
X432773Y862853D02*
X427647Y862853D01*
X427647Y863209D02*
X432773Y863209D01*
X432773Y863565D02*
X427647Y863565D01*
X427647Y863921D02*
X432773Y863921D01*
X432773Y864277D02*
X427647Y864277D01*
X432773Y867497D02*
X432773Y869623D01*
X432773Y867497D02*
X427647Y867497D01*
X427647Y869623D01*
X432773Y869623D01*
X432773Y867853D02*
X427647Y867853D01*
X427647Y868209D02*
X432773Y868209D01*
X432773Y868565D02*
X427647Y868565D01*
X427647Y868921D02*
X432773Y868921D01*
X432773Y869277D02*
X427647Y869277D01*
X432773Y854623D02*
X432773Y852497D01*
X427647Y852497D01*
X427647Y854623D01*
X432773Y854623D01*
X432773Y852853D02*
X427647Y852853D01*
X427647Y853209D02*
X432773Y853209D01*
X432773Y853565D02*
X427647Y853565D01*
X427647Y853921D02*
X432773Y853921D01*
X432773Y854277D02*
X427647Y854277D01*
D23*
X449160Y859360D02*
X449160Y862760D01*
X449160Y859360D02*
X439760Y859360D01*
X439760Y862760D01*
X449160Y862760D01*
X449160Y859930D02*
X439760Y859930D01*
X439760Y860500D02*
X449160Y860500D01*
X449160Y861070D02*
X439760Y861070D01*
X439760Y861640D02*
X449160Y861640D01*
X449160Y862210D02*
X439760Y862210D01*
D22*
X439273Y872747D02*
X439273Y877873D01*
X439273Y872747D02*
X437147Y872747D01*
X437147Y877873D01*
X439273Y877873D01*
X439273Y873103D02*
X437147Y873103D01*
X437147Y873459D02*
X439273Y873459D01*
X439273Y873815D02*
X437147Y873815D01*
X437147Y874171D02*
X439273Y874171D01*
X439273Y874527D02*
X437147Y874527D01*
X437147Y874883D02*
X439273Y874883D01*
X439273Y875239D02*
X437147Y875239D01*
X437147Y875595D02*
X439273Y875595D01*
X439273Y875951D02*
X437147Y875951D01*
X437147Y876307D02*
X439273Y876307D01*
X439273Y876663D02*
X437147Y876663D01*
X437147Y877019D02*
X439273Y877019D01*
X439273Y877375D02*
X437147Y877375D01*
X437147Y877731D02*
X439273Y877731D01*
X439273Y849373D02*
X439273Y844247D01*
X437147Y844247D01*
X437147Y849373D01*
X439273Y849373D01*
X439273Y844603D02*
X437147Y844603D01*
X437147Y844959D02*
X439273Y844959D01*
X439273Y845315D02*
X437147Y845315D01*
X437147Y845671D02*
X439273Y845671D01*
X439273Y846027D02*
X437147Y846027D01*
X437147Y846383D02*
X439273Y846383D01*
X439273Y846739D02*
X437147Y846739D01*
X437147Y847095D02*
X439273Y847095D01*
X439273Y847451D02*
X437147Y847451D01*
X437147Y847807D02*
X439273Y847807D01*
X439273Y848163D02*
X437147Y848163D01*
X437147Y848519D02*
X439273Y848519D01*
X439273Y848875D02*
X437147Y848875D01*
X437147Y849231D02*
X439273Y849231D01*
D19*
X802108Y835660D03*
X818412Y835660D03*
D24*
X447040Y106148D03*
X447040Y122452D03*
X429260Y785392D03*
X429260Y769088D03*
D19*
X389152Y104351D03*
X372848Y104351D03*
D24*
X388620Y754642D03*
X388620Y738338D03*
D19*
X410948Y107294D03*
X427252Y107294D03*
X395708Y772160D03*
X412012Y772160D03*
D24*
X815340Y714272D03*
X815340Y697968D03*
D25*
X523468Y214858D02*
X523468Y200182D01*
X520392Y200182D01*
X520392Y214858D01*
X523468Y214858D01*
X523468Y201156D02*
X520392Y201156D01*
X520392Y202130D02*
X523468Y202130D01*
X523468Y203104D02*
X520392Y203104D01*
X520392Y204078D02*
X523468Y204078D01*
X523468Y205052D02*
X520392Y205052D01*
X520392Y206026D02*
X523468Y206026D01*
X523468Y207000D02*
X520392Y207000D01*
X520392Y207974D02*
X523468Y207974D01*
X523468Y208948D02*
X520392Y208948D01*
X520392Y209922D02*
X523468Y209922D01*
X523468Y210896D02*
X520392Y210896D01*
X520392Y211870D02*
X523468Y211870D01*
X523468Y212844D02*
X520392Y212844D01*
X520392Y213818D02*
X523468Y213818D01*
X523468Y214792D02*
X520392Y214792D01*
X529968Y214858D02*
X529968Y200182D01*
X526892Y200182D01*
X526892Y214858D01*
X529968Y214858D01*
X529968Y201156D02*
X526892Y201156D01*
X526892Y202130D02*
X529968Y202130D01*
X529968Y203104D02*
X526892Y203104D01*
X526892Y204078D02*
X529968Y204078D01*
X529968Y205052D02*
X526892Y205052D01*
X526892Y206026D02*
X529968Y206026D01*
X529968Y207000D02*
X526892Y207000D01*
X526892Y207974D02*
X529968Y207974D01*
X529968Y208948D02*
X526892Y208948D01*
X526892Y209922D02*
X529968Y209922D01*
X529968Y210896D02*
X526892Y210896D01*
X526892Y211870D02*
X529968Y211870D01*
X529968Y212844D02*
X526892Y212844D01*
X526892Y213818D02*
X529968Y213818D01*
X529968Y214792D02*
X526892Y214792D01*
X536468Y214858D02*
X536468Y200182D01*
X533392Y200182D01*
X533392Y214858D01*
X536468Y214858D01*
X536468Y201156D02*
X533392Y201156D01*
X533392Y202130D02*
X536468Y202130D01*
X536468Y203104D02*
X533392Y203104D01*
X533392Y204078D02*
X536468Y204078D01*
X536468Y205052D02*
X533392Y205052D01*
X533392Y206026D02*
X536468Y206026D01*
X536468Y207000D02*
X533392Y207000D01*
X533392Y207974D02*
X536468Y207974D01*
X536468Y208948D02*
X533392Y208948D01*
X533392Y209922D02*
X536468Y209922D01*
X536468Y210896D02*
X533392Y210896D01*
X533392Y211870D02*
X536468Y211870D01*
X536468Y212844D02*
X533392Y212844D01*
X533392Y213818D02*
X536468Y213818D01*
X536468Y214792D02*
X533392Y214792D01*
X542968Y214858D02*
X542968Y200182D01*
X539892Y200182D01*
X539892Y214858D01*
X542968Y214858D01*
X542968Y201156D02*
X539892Y201156D01*
X539892Y202130D02*
X542968Y202130D01*
X542968Y203104D02*
X539892Y203104D01*
X539892Y204078D02*
X542968Y204078D01*
X542968Y205052D02*
X539892Y205052D01*
X539892Y206026D02*
X542968Y206026D01*
X542968Y207000D02*
X539892Y207000D01*
X539892Y207974D02*
X542968Y207974D01*
X542968Y208948D02*
X539892Y208948D01*
X539892Y209922D02*
X542968Y209922D01*
X542968Y210896D02*
X539892Y210896D01*
X539892Y211870D02*
X542968Y211870D01*
X542968Y212844D02*
X539892Y212844D01*
X539892Y213818D02*
X542968Y213818D01*
X542968Y214792D02*
X539892Y214792D01*
X549468Y214858D02*
X549468Y200182D01*
X546392Y200182D01*
X546392Y214858D01*
X549468Y214858D01*
X549468Y201156D02*
X546392Y201156D01*
X546392Y202130D02*
X549468Y202130D01*
X549468Y203104D02*
X546392Y203104D01*
X546392Y204078D02*
X549468Y204078D01*
X549468Y205052D02*
X546392Y205052D01*
X546392Y206026D02*
X549468Y206026D01*
X549468Y207000D02*
X546392Y207000D01*
X546392Y207974D02*
X549468Y207974D01*
X549468Y208948D02*
X546392Y208948D01*
X546392Y209922D02*
X549468Y209922D01*
X549468Y210896D02*
X546392Y210896D01*
X546392Y211870D02*
X549468Y211870D01*
X549468Y212844D02*
X546392Y212844D01*
X546392Y213818D02*
X549468Y213818D01*
X549468Y214792D02*
X546392Y214792D01*
X555968Y214858D02*
X555968Y200182D01*
X552892Y200182D01*
X552892Y214858D01*
X555968Y214858D01*
X555968Y201156D02*
X552892Y201156D01*
X552892Y202130D02*
X555968Y202130D01*
X555968Y203104D02*
X552892Y203104D01*
X552892Y204078D02*
X555968Y204078D01*
X555968Y205052D02*
X552892Y205052D01*
X552892Y206026D02*
X555968Y206026D01*
X555968Y207000D02*
X552892Y207000D01*
X552892Y207974D02*
X555968Y207974D01*
X555968Y208948D02*
X552892Y208948D01*
X552892Y209922D02*
X555968Y209922D01*
X555968Y210896D02*
X552892Y210896D01*
X552892Y211870D02*
X555968Y211870D01*
X555968Y212844D02*
X552892Y212844D01*
X552892Y213818D02*
X555968Y213818D01*
X555968Y214792D02*
X552892Y214792D01*
X562468Y214858D02*
X562468Y200182D01*
X559392Y200182D01*
X559392Y214858D01*
X562468Y214858D01*
X562468Y201156D02*
X559392Y201156D01*
X559392Y202130D02*
X562468Y202130D01*
X562468Y203104D02*
X559392Y203104D01*
X559392Y204078D02*
X562468Y204078D01*
X562468Y205052D02*
X559392Y205052D01*
X559392Y206026D02*
X562468Y206026D01*
X562468Y207000D02*
X559392Y207000D01*
X559392Y207974D02*
X562468Y207974D01*
X562468Y208948D02*
X559392Y208948D01*
X559392Y209922D02*
X562468Y209922D01*
X562468Y210896D02*
X559392Y210896D01*
X559392Y211870D02*
X562468Y211870D01*
X562468Y212844D02*
X559392Y212844D01*
X559392Y213818D02*
X562468Y213818D01*
X562468Y214792D02*
X559392Y214792D01*
X568968Y214858D02*
X568968Y200182D01*
X565892Y200182D01*
X565892Y214858D01*
X568968Y214858D01*
X568968Y201156D02*
X565892Y201156D01*
X565892Y202130D02*
X568968Y202130D01*
X568968Y203104D02*
X565892Y203104D01*
X565892Y204078D02*
X568968Y204078D01*
X568968Y205052D02*
X565892Y205052D01*
X565892Y206026D02*
X568968Y206026D01*
X568968Y207000D02*
X565892Y207000D01*
X565892Y207974D02*
X568968Y207974D01*
X568968Y208948D02*
X565892Y208948D01*
X565892Y209922D02*
X568968Y209922D01*
X568968Y210896D02*
X565892Y210896D01*
X565892Y211870D02*
X568968Y211870D01*
X568968Y212844D02*
X565892Y212844D01*
X565892Y213818D02*
X568968Y213818D01*
X568968Y214792D02*
X565892Y214792D01*
X575468Y214858D02*
X575468Y200182D01*
X572392Y200182D01*
X572392Y214858D01*
X575468Y214858D01*
X575468Y201156D02*
X572392Y201156D01*
X572392Y202130D02*
X575468Y202130D01*
X575468Y203104D02*
X572392Y203104D01*
X572392Y204078D02*
X575468Y204078D01*
X575468Y205052D02*
X572392Y205052D01*
X572392Y206026D02*
X575468Y206026D01*
X575468Y207000D02*
X572392Y207000D01*
X572392Y207974D02*
X575468Y207974D01*
X575468Y208948D02*
X572392Y208948D01*
X572392Y209922D02*
X575468Y209922D01*
X575468Y210896D02*
X572392Y210896D01*
X572392Y211870D02*
X575468Y211870D01*
X575468Y212844D02*
X572392Y212844D01*
X572392Y213818D02*
X575468Y213818D01*
X575468Y214792D02*
X572392Y214792D01*
X581968Y214858D02*
X581968Y200182D01*
X578892Y200182D01*
X578892Y214858D01*
X581968Y214858D01*
X581968Y201156D02*
X578892Y201156D01*
X578892Y202130D02*
X581968Y202130D01*
X581968Y203104D02*
X578892Y203104D01*
X578892Y204078D02*
X581968Y204078D01*
X581968Y205052D02*
X578892Y205052D01*
X578892Y206026D02*
X581968Y206026D01*
X581968Y207000D02*
X578892Y207000D01*
X578892Y207974D02*
X581968Y207974D01*
X581968Y208948D02*
X578892Y208948D01*
X578892Y209922D02*
X581968Y209922D01*
X581968Y210896D02*
X578892Y210896D01*
X578892Y211870D02*
X581968Y211870D01*
X581968Y212844D02*
X578892Y212844D01*
X578892Y213818D02*
X581968Y213818D01*
X581968Y214792D02*
X578892Y214792D01*
X581968Y257582D02*
X581968Y272258D01*
X581968Y257582D02*
X578892Y257582D01*
X578892Y272258D01*
X581968Y272258D01*
X581968Y258556D02*
X578892Y258556D01*
X578892Y259530D02*
X581968Y259530D01*
X581968Y260504D02*
X578892Y260504D01*
X578892Y261478D02*
X581968Y261478D01*
X581968Y262452D02*
X578892Y262452D01*
X578892Y263426D02*
X581968Y263426D01*
X581968Y264400D02*
X578892Y264400D01*
X578892Y265374D02*
X581968Y265374D01*
X581968Y266348D02*
X578892Y266348D01*
X578892Y267322D02*
X581968Y267322D01*
X581968Y268296D02*
X578892Y268296D01*
X578892Y269270D02*
X581968Y269270D01*
X581968Y270244D02*
X578892Y270244D01*
X578892Y271218D02*
X581968Y271218D01*
X581968Y272192D02*
X578892Y272192D01*
X575468Y272258D02*
X575468Y257582D01*
X572392Y257582D01*
X572392Y272258D01*
X575468Y272258D01*
X575468Y258556D02*
X572392Y258556D01*
X572392Y259530D02*
X575468Y259530D01*
X575468Y260504D02*
X572392Y260504D01*
X572392Y261478D02*
X575468Y261478D01*
X575468Y262452D02*
X572392Y262452D01*
X572392Y263426D02*
X575468Y263426D01*
X575468Y264400D02*
X572392Y264400D01*
X572392Y265374D02*
X575468Y265374D01*
X575468Y266348D02*
X572392Y266348D01*
X572392Y267322D02*
X575468Y267322D01*
X575468Y268296D02*
X572392Y268296D01*
X572392Y269270D02*
X575468Y269270D01*
X575468Y270244D02*
X572392Y270244D01*
X572392Y271218D02*
X575468Y271218D01*
X575468Y272192D02*
X572392Y272192D01*
X568968Y272258D02*
X568968Y257582D01*
X565892Y257582D01*
X565892Y272258D01*
X568968Y272258D01*
X568968Y258556D02*
X565892Y258556D01*
X565892Y259530D02*
X568968Y259530D01*
X568968Y260504D02*
X565892Y260504D01*
X565892Y261478D02*
X568968Y261478D01*
X568968Y262452D02*
X565892Y262452D01*
X565892Y263426D02*
X568968Y263426D01*
X568968Y264400D02*
X565892Y264400D01*
X565892Y265374D02*
X568968Y265374D01*
X568968Y266348D02*
X565892Y266348D01*
X565892Y267322D02*
X568968Y267322D01*
X568968Y268296D02*
X565892Y268296D01*
X565892Y269270D02*
X568968Y269270D01*
X568968Y270244D02*
X565892Y270244D01*
X565892Y271218D02*
X568968Y271218D01*
X568968Y272192D02*
X565892Y272192D01*
X562468Y272258D02*
X562468Y257582D01*
X559392Y257582D01*
X559392Y272258D01*
X562468Y272258D01*
X562468Y258556D02*
X559392Y258556D01*
X559392Y259530D02*
X562468Y259530D01*
X562468Y260504D02*
X559392Y260504D01*
X559392Y261478D02*
X562468Y261478D01*
X562468Y262452D02*
X559392Y262452D01*
X559392Y263426D02*
X562468Y263426D01*
X562468Y264400D02*
X559392Y264400D01*
X559392Y265374D02*
X562468Y265374D01*
X562468Y266348D02*
X559392Y266348D01*
X559392Y267322D02*
X562468Y267322D01*
X562468Y268296D02*
X559392Y268296D01*
X559392Y269270D02*
X562468Y269270D01*
X562468Y270244D02*
X559392Y270244D01*
X559392Y271218D02*
X562468Y271218D01*
X562468Y272192D02*
X559392Y272192D01*
X555968Y272258D02*
X555968Y257582D01*
X552892Y257582D01*
X552892Y272258D01*
X555968Y272258D01*
X555968Y258556D02*
X552892Y258556D01*
X552892Y259530D02*
X555968Y259530D01*
X555968Y260504D02*
X552892Y260504D01*
X552892Y261478D02*
X555968Y261478D01*
X555968Y262452D02*
X552892Y262452D01*
X552892Y263426D02*
X555968Y263426D01*
X555968Y264400D02*
X552892Y264400D01*
X552892Y265374D02*
X555968Y265374D01*
X555968Y266348D02*
X552892Y266348D01*
X552892Y267322D02*
X555968Y267322D01*
X555968Y268296D02*
X552892Y268296D01*
X552892Y269270D02*
X555968Y269270D01*
X555968Y270244D02*
X552892Y270244D01*
X552892Y271218D02*
X555968Y271218D01*
X555968Y272192D02*
X552892Y272192D01*
X549468Y272258D02*
X549468Y257582D01*
X546392Y257582D01*
X546392Y272258D01*
X549468Y272258D01*
X549468Y258556D02*
X546392Y258556D01*
X546392Y259530D02*
X549468Y259530D01*
X549468Y260504D02*
X546392Y260504D01*
X546392Y261478D02*
X549468Y261478D01*
X549468Y262452D02*
X546392Y262452D01*
X546392Y263426D02*
X549468Y263426D01*
X549468Y264400D02*
X546392Y264400D01*
X546392Y265374D02*
X549468Y265374D01*
X549468Y266348D02*
X546392Y266348D01*
X546392Y267322D02*
X549468Y267322D01*
X549468Y268296D02*
X546392Y268296D01*
X546392Y269270D02*
X549468Y269270D01*
X549468Y270244D02*
X546392Y270244D01*
X546392Y271218D02*
X549468Y271218D01*
X549468Y272192D02*
X546392Y272192D01*
X542968Y272258D02*
X542968Y257582D01*
X539892Y257582D01*
X539892Y272258D01*
X542968Y272258D01*
X542968Y258556D02*
X539892Y258556D01*
X539892Y259530D02*
X542968Y259530D01*
X542968Y260504D02*
X539892Y260504D01*
X539892Y261478D02*
X542968Y261478D01*
X542968Y262452D02*
X539892Y262452D01*
X539892Y263426D02*
X542968Y263426D01*
X542968Y264400D02*
X539892Y264400D01*
X539892Y265374D02*
X542968Y265374D01*
X542968Y266348D02*
X539892Y266348D01*
X539892Y267322D02*
X542968Y267322D01*
X542968Y268296D02*
X539892Y268296D01*
X539892Y269270D02*
X542968Y269270D01*
X542968Y270244D02*
X539892Y270244D01*
X539892Y271218D02*
X542968Y271218D01*
X542968Y272192D02*
X539892Y272192D01*
X536468Y272258D02*
X536468Y257582D01*
X533392Y257582D01*
X533392Y272258D01*
X536468Y272258D01*
X536468Y258556D02*
X533392Y258556D01*
X533392Y259530D02*
X536468Y259530D01*
X536468Y260504D02*
X533392Y260504D01*
X533392Y261478D02*
X536468Y261478D01*
X536468Y262452D02*
X533392Y262452D01*
X533392Y263426D02*
X536468Y263426D01*
X536468Y264400D02*
X533392Y264400D01*
X533392Y265374D02*
X536468Y265374D01*
X536468Y266348D02*
X533392Y266348D01*
X533392Y267322D02*
X536468Y267322D01*
X536468Y268296D02*
X533392Y268296D01*
X533392Y269270D02*
X536468Y269270D01*
X536468Y270244D02*
X533392Y270244D01*
X533392Y271218D02*
X536468Y271218D01*
X536468Y272192D02*
X533392Y272192D01*
X529968Y272258D02*
X529968Y257582D01*
X526892Y257582D01*
X526892Y272258D01*
X529968Y272258D01*
X529968Y258556D02*
X526892Y258556D01*
X526892Y259530D02*
X529968Y259530D01*
X529968Y260504D02*
X526892Y260504D01*
X526892Y261478D02*
X529968Y261478D01*
X529968Y262452D02*
X526892Y262452D01*
X526892Y263426D02*
X529968Y263426D01*
X529968Y264400D02*
X526892Y264400D01*
X526892Y265374D02*
X529968Y265374D01*
X529968Y266348D02*
X526892Y266348D01*
X526892Y267322D02*
X529968Y267322D01*
X529968Y268296D02*
X526892Y268296D01*
X526892Y269270D02*
X529968Y269270D01*
X529968Y270244D02*
X526892Y270244D01*
X526892Y271218D02*
X529968Y271218D01*
X529968Y272192D02*
X526892Y272192D01*
X523468Y272258D02*
X523468Y257582D01*
X520392Y257582D01*
X520392Y272258D01*
X523468Y272258D01*
X523468Y258556D02*
X520392Y258556D01*
X520392Y259530D02*
X523468Y259530D01*
X523468Y260504D02*
X520392Y260504D01*
X520392Y261478D02*
X523468Y261478D01*
X523468Y262452D02*
X520392Y262452D01*
X520392Y263426D02*
X523468Y263426D01*
X523468Y264400D02*
X520392Y264400D01*
X520392Y265374D02*
X523468Y265374D01*
X523468Y266348D02*
X520392Y266348D01*
X520392Y267322D02*
X523468Y267322D01*
X523468Y268296D02*
X520392Y268296D01*
X520392Y269270D02*
X523468Y269270D01*
X523468Y270244D02*
X520392Y270244D01*
X520392Y271218D02*
X523468Y271218D01*
X523468Y272192D02*
X520392Y272192D01*
X546328Y792002D02*
X546328Y806678D01*
X546328Y792002D02*
X543252Y792002D01*
X543252Y806678D01*
X546328Y806678D01*
X546328Y792976D02*
X543252Y792976D01*
X543252Y793950D02*
X546328Y793950D01*
X546328Y794924D02*
X543252Y794924D01*
X543252Y795898D02*
X546328Y795898D01*
X546328Y796872D02*
X543252Y796872D01*
X543252Y797846D02*
X546328Y797846D01*
X546328Y798820D02*
X543252Y798820D01*
X543252Y799794D02*
X546328Y799794D01*
X546328Y800768D02*
X543252Y800768D01*
X543252Y801742D02*
X546328Y801742D01*
X546328Y802716D02*
X543252Y802716D01*
X543252Y803690D02*
X546328Y803690D01*
X546328Y804664D02*
X543252Y804664D01*
X543252Y805638D02*
X546328Y805638D01*
X546328Y806612D02*
X543252Y806612D01*
X552828Y806678D02*
X552828Y792002D01*
X549752Y792002D01*
X549752Y806678D01*
X552828Y806678D01*
X552828Y792976D02*
X549752Y792976D01*
X549752Y793950D02*
X552828Y793950D01*
X552828Y794924D02*
X549752Y794924D01*
X549752Y795898D02*
X552828Y795898D01*
X552828Y796872D02*
X549752Y796872D01*
X549752Y797846D02*
X552828Y797846D01*
X552828Y798820D02*
X549752Y798820D01*
X549752Y799794D02*
X552828Y799794D01*
X552828Y800768D02*
X549752Y800768D01*
X549752Y801742D02*
X552828Y801742D01*
X552828Y802716D02*
X549752Y802716D01*
X549752Y803690D02*
X552828Y803690D01*
X552828Y804664D02*
X549752Y804664D01*
X549752Y805638D02*
X552828Y805638D01*
X552828Y806612D02*
X549752Y806612D01*
X559328Y806678D02*
X559328Y792002D01*
X556252Y792002D01*
X556252Y806678D01*
X559328Y806678D01*
X559328Y792976D02*
X556252Y792976D01*
X556252Y793950D02*
X559328Y793950D01*
X559328Y794924D02*
X556252Y794924D01*
X556252Y795898D02*
X559328Y795898D01*
X559328Y796872D02*
X556252Y796872D01*
X556252Y797846D02*
X559328Y797846D01*
X559328Y798820D02*
X556252Y798820D01*
X556252Y799794D02*
X559328Y799794D01*
X559328Y800768D02*
X556252Y800768D01*
X556252Y801742D02*
X559328Y801742D01*
X559328Y802716D02*
X556252Y802716D01*
X556252Y803690D02*
X559328Y803690D01*
X559328Y804664D02*
X556252Y804664D01*
X556252Y805638D02*
X559328Y805638D01*
X559328Y806612D02*
X556252Y806612D01*
X565828Y806678D02*
X565828Y792002D01*
X562752Y792002D01*
X562752Y806678D01*
X565828Y806678D01*
X565828Y792976D02*
X562752Y792976D01*
X562752Y793950D02*
X565828Y793950D01*
X565828Y794924D02*
X562752Y794924D01*
X562752Y795898D02*
X565828Y795898D01*
X565828Y796872D02*
X562752Y796872D01*
X562752Y797846D02*
X565828Y797846D01*
X565828Y798820D02*
X562752Y798820D01*
X562752Y799794D02*
X565828Y799794D01*
X565828Y800768D02*
X562752Y800768D01*
X562752Y801742D02*
X565828Y801742D01*
X565828Y802716D02*
X562752Y802716D01*
X562752Y803690D02*
X565828Y803690D01*
X565828Y804664D02*
X562752Y804664D01*
X562752Y805638D02*
X565828Y805638D01*
X565828Y806612D02*
X562752Y806612D01*
X572328Y806678D02*
X572328Y792002D01*
X569252Y792002D01*
X569252Y806678D01*
X572328Y806678D01*
X572328Y792976D02*
X569252Y792976D01*
X569252Y793950D02*
X572328Y793950D01*
X572328Y794924D02*
X569252Y794924D01*
X569252Y795898D02*
X572328Y795898D01*
X572328Y796872D02*
X569252Y796872D01*
X569252Y797846D02*
X572328Y797846D01*
X572328Y798820D02*
X569252Y798820D01*
X569252Y799794D02*
X572328Y799794D01*
X572328Y800768D02*
X569252Y800768D01*
X569252Y801742D02*
X572328Y801742D01*
X572328Y802716D02*
X569252Y802716D01*
X569252Y803690D02*
X572328Y803690D01*
X572328Y804664D02*
X569252Y804664D01*
X569252Y805638D02*
X572328Y805638D01*
X572328Y806612D02*
X569252Y806612D01*
X578828Y806678D02*
X578828Y792002D01*
X575752Y792002D01*
X575752Y806678D01*
X578828Y806678D01*
X578828Y792976D02*
X575752Y792976D01*
X575752Y793950D02*
X578828Y793950D01*
X578828Y794924D02*
X575752Y794924D01*
X575752Y795898D02*
X578828Y795898D01*
X578828Y796872D02*
X575752Y796872D01*
X575752Y797846D02*
X578828Y797846D01*
X578828Y798820D02*
X575752Y798820D01*
X575752Y799794D02*
X578828Y799794D01*
X578828Y800768D02*
X575752Y800768D01*
X575752Y801742D02*
X578828Y801742D01*
X578828Y802716D02*
X575752Y802716D01*
X575752Y803690D02*
X578828Y803690D01*
X578828Y804664D02*
X575752Y804664D01*
X575752Y805638D02*
X578828Y805638D01*
X578828Y806612D02*
X575752Y806612D01*
X585328Y806678D02*
X585328Y792002D01*
X582252Y792002D01*
X582252Y806678D01*
X585328Y806678D01*
X585328Y792976D02*
X582252Y792976D01*
X582252Y793950D02*
X585328Y793950D01*
X585328Y794924D02*
X582252Y794924D01*
X582252Y795898D02*
X585328Y795898D01*
X585328Y796872D02*
X582252Y796872D01*
X582252Y797846D02*
X585328Y797846D01*
X585328Y798820D02*
X582252Y798820D01*
X582252Y799794D02*
X585328Y799794D01*
X585328Y800768D02*
X582252Y800768D01*
X582252Y801742D02*
X585328Y801742D01*
X585328Y802716D02*
X582252Y802716D01*
X582252Y803690D02*
X585328Y803690D01*
X585328Y804664D02*
X582252Y804664D01*
X582252Y805638D02*
X585328Y805638D01*
X585328Y806612D02*
X582252Y806612D01*
X591828Y806678D02*
X591828Y792002D01*
X588752Y792002D01*
X588752Y806678D01*
X591828Y806678D01*
X591828Y792976D02*
X588752Y792976D01*
X588752Y793950D02*
X591828Y793950D01*
X591828Y794924D02*
X588752Y794924D01*
X588752Y795898D02*
X591828Y795898D01*
X591828Y796872D02*
X588752Y796872D01*
X588752Y797846D02*
X591828Y797846D01*
X591828Y798820D02*
X588752Y798820D01*
X588752Y799794D02*
X591828Y799794D01*
X591828Y800768D02*
X588752Y800768D01*
X588752Y801742D02*
X591828Y801742D01*
X591828Y802716D02*
X588752Y802716D01*
X588752Y803690D02*
X591828Y803690D01*
X591828Y804664D02*
X588752Y804664D01*
X588752Y805638D02*
X591828Y805638D01*
X591828Y806612D02*
X588752Y806612D01*
X598328Y806678D02*
X598328Y792002D01*
X595252Y792002D01*
X595252Y806678D01*
X598328Y806678D01*
X598328Y792976D02*
X595252Y792976D01*
X595252Y793950D02*
X598328Y793950D01*
X598328Y794924D02*
X595252Y794924D01*
X595252Y795898D02*
X598328Y795898D01*
X598328Y796872D02*
X595252Y796872D01*
X595252Y797846D02*
X598328Y797846D01*
X598328Y798820D02*
X595252Y798820D01*
X595252Y799794D02*
X598328Y799794D01*
X598328Y800768D02*
X595252Y800768D01*
X595252Y801742D02*
X598328Y801742D01*
X598328Y802716D02*
X595252Y802716D01*
X595252Y803690D02*
X598328Y803690D01*
X598328Y804664D02*
X595252Y804664D01*
X595252Y805638D02*
X598328Y805638D01*
X598328Y806612D02*
X595252Y806612D01*
X604828Y806678D02*
X604828Y792002D01*
X601752Y792002D01*
X601752Y806678D01*
X604828Y806678D01*
X604828Y792976D02*
X601752Y792976D01*
X601752Y793950D02*
X604828Y793950D01*
X604828Y794924D02*
X601752Y794924D01*
X601752Y795898D02*
X604828Y795898D01*
X604828Y796872D02*
X601752Y796872D01*
X601752Y797846D02*
X604828Y797846D01*
X604828Y798820D02*
X601752Y798820D01*
X601752Y799794D02*
X604828Y799794D01*
X604828Y800768D02*
X601752Y800768D01*
X601752Y801742D02*
X604828Y801742D01*
X604828Y802716D02*
X601752Y802716D01*
X601752Y803690D02*
X604828Y803690D01*
X604828Y804664D02*
X601752Y804664D01*
X601752Y805638D02*
X604828Y805638D01*
X604828Y806612D02*
X601752Y806612D01*
X604828Y849402D02*
X604828Y864078D01*
X604828Y849402D02*
X601752Y849402D01*
X601752Y864078D01*
X604828Y864078D01*
X604828Y850376D02*
X601752Y850376D01*
X601752Y851350D02*
X604828Y851350D01*
X604828Y852324D02*
X601752Y852324D01*
X601752Y853298D02*
X604828Y853298D01*
X604828Y854272D02*
X601752Y854272D01*
X601752Y855246D02*
X604828Y855246D01*
X604828Y856220D02*
X601752Y856220D01*
X601752Y857194D02*
X604828Y857194D01*
X604828Y858168D02*
X601752Y858168D01*
X601752Y859142D02*
X604828Y859142D01*
X604828Y860116D02*
X601752Y860116D01*
X601752Y861090D02*
X604828Y861090D01*
X604828Y862064D02*
X601752Y862064D01*
X601752Y863038D02*
X604828Y863038D01*
X604828Y864012D02*
X601752Y864012D01*
X598328Y864078D02*
X598328Y849402D01*
X595252Y849402D01*
X595252Y864078D01*
X598328Y864078D01*
X598328Y850376D02*
X595252Y850376D01*
X595252Y851350D02*
X598328Y851350D01*
X598328Y852324D02*
X595252Y852324D01*
X595252Y853298D02*
X598328Y853298D01*
X598328Y854272D02*
X595252Y854272D01*
X595252Y855246D02*
X598328Y855246D01*
X598328Y856220D02*
X595252Y856220D01*
X595252Y857194D02*
X598328Y857194D01*
X598328Y858168D02*
X595252Y858168D01*
X595252Y859142D02*
X598328Y859142D01*
X598328Y860116D02*
X595252Y860116D01*
X595252Y861090D02*
X598328Y861090D01*
X598328Y862064D02*
X595252Y862064D01*
X595252Y863038D02*
X598328Y863038D01*
X598328Y864012D02*
X595252Y864012D01*
X591828Y864078D02*
X591828Y849402D01*
X588752Y849402D01*
X588752Y864078D01*
X591828Y864078D01*
X591828Y850376D02*
X588752Y850376D01*
X588752Y851350D02*
X591828Y851350D01*
X591828Y852324D02*
X588752Y852324D01*
X588752Y853298D02*
X591828Y853298D01*
X591828Y854272D02*
X588752Y854272D01*
X588752Y855246D02*
X591828Y855246D01*
X591828Y856220D02*
X588752Y856220D01*
X588752Y857194D02*
X591828Y857194D01*
X591828Y858168D02*
X588752Y858168D01*
X588752Y859142D02*
X591828Y859142D01*
X591828Y860116D02*
X588752Y860116D01*
X588752Y861090D02*
X591828Y861090D01*
X591828Y862064D02*
X588752Y862064D01*
X588752Y863038D02*
X591828Y863038D01*
X591828Y864012D02*
X588752Y864012D01*
X585328Y864078D02*
X585328Y849402D01*
X582252Y849402D01*
X582252Y864078D01*
X585328Y864078D01*
X585328Y850376D02*
X582252Y850376D01*
X582252Y851350D02*
X585328Y851350D01*
X585328Y852324D02*
X582252Y852324D01*
X582252Y853298D02*
X585328Y853298D01*
X585328Y854272D02*
X582252Y854272D01*
X582252Y855246D02*
X585328Y855246D01*
X585328Y856220D02*
X582252Y856220D01*
X582252Y857194D02*
X585328Y857194D01*
X585328Y858168D02*
X582252Y858168D01*
X582252Y859142D02*
X585328Y859142D01*
X585328Y860116D02*
X582252Y860116D01*
X582252Y861090D02*
X585328Y861090D01*
X585328Y862064D02*
X582252Y862064D01*
X582252Y863038D02*
X585328Y863038D01*
X585328Y864012D02*
X582252Y864012D01*
X578828Y864078D02*
X578828Y849402D01*
X575752Y849402D01*
X575752Y864078D01*
X578828Y864078D01*
X578828Y850376D02*
X575752Y850376D01*
X575752Y851350D02*
X578828Y851350D01*
X578828Y852324D02*
X575752Y852324D01*
X575752Y853298D02*
X578828Y853298D01*
X578828Y854272D02*
X575752Y854272D01*
X575752Y855246D02*
X578828Y855246D01*
X578828Y856220D02*
X575752Y856220D01*
X575752Y857194D02*
X578828Y857194D01*
X578828Y858168D02*
X575752Y858168D01*
X575752Y859142D02*
X578828Y859142D01*
X578828Y860116D02*
X575752Y860116D01*
X575752Y861090D02*
X578828Y861090D01*
X578828Y862064D02*
X575752Y862064D01*
X575752Y863038D02*
X578828Y863038D01*
X578828Y864012D02*
X575752Y864012D01*
X572328Y864078D02*
X572328Y849402D01*
X569252Y849402D01*
X569252Y864078D01*
X572328Y864078D01*
X572328Y850376D02*
X569252Y850376D01*
X569252Y851350D02*
X572328Y851350D01*
X572328Y852324D02*
X569252Y852324D01*
X569252Y853298D02*
X572328Y853298D01*
X572328Y854272D02*
X569252Y854272D01*
X569252Y855246D02*
X572328Y855246D01*
X572328Y856220D02*
X569252Y856220D01*
X569252Y857194D02*
X572328Y857194D01*
X572328Y858168D02*
X569252Y858168D01*
X569252Y859142D02*
X572328Y859142D01*
X572328Y860116D02*
X569252Y860116D01*
X569252Y861090D02*
X572328Y861090D01*
X572328Y862064D02*
X569252Y862064D01*
X569252Y863038D02*
X572328Y863038D01*
X572328Y864012D02*
X569252Y864012D01*
X565828Y864078D02*
X565828Y849402D01*
X562752Y849402D01*
X562752Y864078D01*
X565828Y864078D01*
X565828Y850376D02*
X562752Y850376D01*
X562752Y851350D02*
X565828Y851350D01*
X565828Y852324D02*
X562752Y852324D01*
X562752Y853298D02*
X565828Y853298D01*
X565828Y854272D02*
X562752Y854272D01*
X562752Y855246D02*
X565828Y855246D01*
X565828Y856220D02*
X562752Y856220D01*
X562752Y857194D02*
X565828Y857194D01*
X565828Y858168D02*
X562752Y858168D01*
X562752Y859142D02*
X565828Y859142D01*
X565828Y860116D02*
X562752Y860116D01*
X562752Y861090D02*
X565828Y861090D01*
X565828Y862064D02*
X562752Y862064D01*
X562752Y863038D02*
X565828Y863038D01*
X565828Y864012D02*
X562752Y864012D01*
X559328Y864078D02*
X559328Y849402D01*
X556252Y849402D01*
X556252Y864078D01*
X559328Y864078D01*
X559328Y850376D02*
X556252Y850376D01*
X556252Y851350D02*
X559328Y851350D01*
X559328Y852324D02*
X556252Y852324D01*
X556252Y853298D02*
X559328Y853298D01*
X559328Y854272D02*
X556252Y854272D01*
X556252Y855246D02*
X559328Y855246D01*
X559328Y856220D02*
X556252Y856220D01*
X556252Y857194D02*
X559328Y857194D01*
X559328Y858168D02*
X556252Y858168D01*
X556252Y859142D02*
X559328Y859142D01*
X559328Y860116D02*
X556252Y860116D01*
X556252Y861090D02*
X559328Y861090D01*
X559328Y862064D02*
X556252Y862064D01*
X556252Y863038D02*
X559328Y863038D01*
X559328Y864012D02*
X556252Y864012D01*
X552828Y864078D02*
X552828Y849402D01*
X549752Y849402D01*
X549752Y864078D01*
X552828Y864078D01*
X552828Y850376D02*
X549752Y850376D01*
X549752Y851350D02*
X552828Y851350D01*
X552828Y852324D02*
X549752Y852324D01*
X549752Y853298D02*
X552828Y853298D01*
X552828Y854272D02*
X549752Y854272D01*
X549752Y855246D02*
X552828Y855246D01*
X552828Y856220D02*
X549752Y856220D01*
X549752Y857194D02*
X552828Y857194D01*
X552828Y858168D02*
X549752Y858168D01*
X549752Y859142D02*
X552828Y859142D01*
X552828Y860116D02*
X549752Y860116D01*
X549752Y861090D02*
X552828Y861090D01*
X552828Y862064D02*
X549752Y862064D01*
X549752Y863038D02*
X552828Y863038D01*
X552828Y864012D02*
X549752Y864012D01*
X546328Y864078D02*
X546328Y849402D01*
X543252Y849402D01*
X543252Y864078D01*
X546328Y864078D01*
X546328Y850376D02*
X543252Y850376D01*
X543252Y851350D02*
X546328Y851350D01*
X546328Y852324D02*
X543252Y852324D01*
X543252Y853298D02*
X546328Y853298D01*
X546328Y854272D02*
X543252Y854272D01*
X543252Y855246D02*
X546328Y855246D01*
X546328Y856220D02*
X543252Y856220D01*
X543252Y857194D02*
X546328Y857194D01*
X546328Y858168D02*
X543252Y858168D01*
X543252Y859142D02*
X546328Y859142D01*
X546328Y860116D02*
X543252Y860116D01*
X543252Y861090D02*
X546328Y861090D01*
X546328Y862064D02*
X543252Y862064D01*
X543252Y863038D02*
X546328Y863038D01*
X546328Y864012D02*
X543252Y864012D01*
D11*
X624840Y820546D03*
X624840Y805054D03*
X568960Y302386D03*
X568960Y286894D03*
D24*
X815340Y659868D03*
X815340Y676172D03*
D26*
X688340Y741680D03*
D27*
X685840Y726930D03*
X690840Y726930D03*
X695840Y726930D03*
X700840Y726930D03*
X700840Y756430D03*
X695840Y756430D03*
X690840Y756430D03*
X685840Y756430D03*
D28*
X679586Y779780D03*
X697094Y779780D03*
X677046Y698500D03*
X694554Y698500D03*
D29*
X711200Y693654D03*
X711200Y703346D03*
X713740Y764306D03*
X713740Y754614D03*
D24*
X1125220Y711732D03*
X1125220Y695428D03*
X1125220Y730988D03*
X1125220Y747292D03*
D30*
X637540Y228600D03*
D31*
X652290Y226100D03*
X652290Y231100D03*
X652290Y236100D03*
X652290Y241100D03*
X622790Y241100D03*
X622790Y236100D03*
X622790Y231100D03*
X622790Y226100D03*
D10*
X596900Y207146D03*
X596900Y224654D03*
X680720Y204606D03*
X680720Y222114D03*
D32*
X680486Y236220D03*
X670794Y236220D03*
X599674Y243840D03*
X609366Y243840D03*
D30*
X932180Y190500D03*
D31*
X946930Y188000D03*
X946930Y193000D03*
X946930Y198000D03*
X946930Y203000D03*
X917430Y203000D03*
X917430Y198000D03*
X917430Y193000D03*
X917430Y188000D03*
D10*
X891540Y174126D03*
X891540Y191634D03*
D33*
X977900Y164120D03*
X977900Y193628D03*
D32*
X977666Y208280D03*
X967974Y208280D03*
X891774Y205740D03*
X901466Y205740D03*
D30*
X825500Y40640D03*
D31*
X810750Y43140D03*
X810750Y38140D03*
X810750Y33140D03*
X810750Y28140D03*
X840250Y28140D03*
X840250Y33140D03*
X840250Y38140D03*
X840250Y43140D03*
D33*
X861060Y55394D03*
X861060Y25886D03*
D10*
X777240Y57014D03*
X777240Y39506D03*
D32*
X782554Y25400D03*
X792246Y25400D03*
X830809Y17624D03*
X840501Y17624D03*
D26*
X924560Y83820D03*
D27*
X922060Y69070D03*
X927060Y69070D03*
X932060Y69070D03*
X937060Y69070D03*
X937060Y98570D03*
X932060Y98570D03*
X927060Y98570D03*
X922060Y98570D03*
D34*
X908340Y119380D03*
X937848Y119380D03*
D28*
X910726Y45720D03*
X928234Y45720D03*
D29*
X942340Y40874D03*
X942340Y50566D03*
X947420Y103906D03*
X947420Y94214D03*
D30*
X297180Y500380D03*
D31*
X311930Y497880D03*
X311930Y502880D03*
X311930Y507880D03*
X311930Y512880D03*
X282430Y512880D03*
X282430Y507880D03*
X282430Y502880D03*
X282430Y497880D03*
D10*
X261620Y494166D03*
X261620Y511674D03*
X342900Y491626D03*
X342900Y509134D03*
D32*
X345206Y523240D03*
X335514Y523240D03*
X274554Y525780D03*
X284246Y525780D03*
D35*
X1051560Y106934D03*
X1051560Y197866D03*
D11*
X210820Y302134D03*
X210820Y317626D03*
D13*
X193166Y302260D03*
X177674Y302260D03*
D11*
X279400Y299846D03*
X279400Y284354D03*
X228600Y269366D03*
X228600Y253874D03*
D36*
X208280Y274325D03*
X208280Y284475D03*
X274320Y322575D03*
X274320Y312425D03*
D37*
X195575Y317500D03*
X185425Y317500D03*
X182885Y284480D03*
X193035Y284480D03*
D19*
X803172Y467360D03*
X786868Y467360D03*
D24*
X817880Y488212D03*
X817880Y471908D03*
D37*
X734065Y58420D03*
X744215Y58420D03*
D19*
X705588Y58420D03*
X721892Y58420D03*
D37*
X1122685Y172720D03*
X1132835Y172720D03*
D24*
X1122680Y206272D03*
X1122680Y189968D03*
D38*
X1162660Y225400D03*
X1143660Y225400D03*
X1153160Y206400D03*
D39*
X1206500Y186200D03*
X1206500Y220200D03*
D19*
X1172948Y187960D03*
X1189252Y187960D03*
D37*
X1188715Y218440D03*
X1178565Y218440D03*
D40*
X1241920Y191020D03*
X1264920Y191020D03*
X1287920Y191020D03*
D41*
X1264920Y256020D03*
M02*
