<?xml version="1.0" encoding="utf-8" standalone="no"?>
<!DOCTYPE svg PUBLIC "-//W3C//DTD SVG 1.1//EN"
  "http://www.w3.org/Graphics/SVG/1.1/DTD/svg11.dtd">
<svg xmlns:xlink="http://www.w3.org/1999/xlink" width="468pt" height="446.4pt" viewBox="0 0 468 446.4" xmlns="http://www.w3.org/2000/svg" version="1.1">
 <metadata>
  <rdf:RDF xmlns:dc="http://purl.org/dc/elements/1.1/" xmlns:cc="http://creativecommons.org/ns#" xmlns:rdf="http://www.w3.org/1999/02/22-rdf-syntax-ns#">
   <cc:Work>
    <dc:type rdf:resource="http://purl.org/dc/dcmitype/StillImage"/>
    <dc:date>2026-07-11T13:54:45.605709</dc:date>
    <dc:format>image/svg+xml</dc:format>
    <dc:creator>
     <cc:Agent>
      <dc:title>Matplotlib v3.11.0, https://matplotlib.org/</dc:title>
     </cc:Agent>
    </dc:creator>
   </cc:Work>
  </rdf:RDF>
 </metadata>
 <defs>
  <style type="text/css">*{stroke-linejoin: round; stroke-linecap: butt}</style>
 </defs>
 <g id="figure_1">
  <g id="patch_1">
   <path d="M 0 446.4 
L 468 446.4 
L 468 0 
L 0 0 
z
" style="fill: #ffffff"/>
  </g>
  <g id="axes_1">
   <g id="patch_2">
    <path d="M 54.441172 208.38175 
L 458.28 208.38175 
L 458.28 23.926313 
L 54.441172 23.926313 
z
" style="fill: #ffffff"/>
   </g>
   <g id="FillBetweenPolyCollection_1">
    <defs>
     <path id="m10ea4d92fc" d="M 72.797482 -414.089349 
L 72.797482 -414.089349 
L 73.717604 -414.089349 
L 74.637718 -414.089349 
L 75.557832 -414.089349 
L 76.47794 -414.089349 
L 77.398067 -414.089349 
L 78.318179 -414.089349 
L 79.238293 -414.089349 
L 80.15841 -414.089349 
L 81.078531 -414.089349 
L 81.998644 -414.089349 
L 82.918754 -414.089349 
L 83.838867 -414.089349 
L 84.758985 -414.089349 
L 85.679108 -414.089349 
L 86.599215 -414.089349 
L 87.519329 -414.089349 
L 88.43945 -414.089349 
L 89.35957 -414.089349 
L 90.279686 -414.089349 
L 91.199803 -414.089349 
L 92.119913 -414.089349 
L 93.040024 -414.089349 
L 93.960143 -414.089349 
L 94.880263 -414.089349 
L 95.800376 -414.089349 
L 96.720495 -414.089349 
L 97.640604 -414.089349 
L 98.560726 -414.089349 
L 99.480843 -414.089349 
L 100.400961 -414.089349 
L 101.321069 -414.089349 
L 102.241191 -414.089349 
L 103.161303 -414.089349 
L 104.081416 -414.089349 
L 105.001533 -414.089349 
L 105.921654 -414.089349 
L 106.841764 -414.089349 
L 107.761885 -414.089349 
L 108.681996 -414.089349 
L 109.602113 -414.089349 
L 110.522231 -414.089349 
L 111.442344 -414.089349 
L 112.36246 -414.089349 
L 113.28258 -414.089349 
L 114.202691 -414.089349 
L 115.122811 -414.089349 
L 116.042926 -414.089349 
L 116.963041 -414.089349 
L 117.883158 -414.089349 
L 118.803272 -414.089349 
L 119.723387 -414.089349 
L 120.643504 -414.089349 
L 121.563619 -414.089349 
L 122.483738 -414.089349 
L 123.403853 -414.089349 
L 124.323968 -414.089349 
L 125.244084 -414.089349 
L 126.1642 -414.089349 
L 127.084315 -414.089349 
L 128.004429 -414.089349 
L 128.924547 -414.089349 
L 129.844662 -414.089349 
L 130.764778 -414.089349 
L 131.684895 -414.089349 
L 132.605009 -414.089349 
L 133.525125 -414.089349 
L 134.445231 -414.089349 
L 135.365346 -414.089349 
L 136.285462 -414.089345 
L 137.205591 -414.089345 
L 138.125708 -414.089345 
L 139.04582 -414.089345 
L 139.965941 -414.089345 
L 140.886049 -414.089345 
L 141.806165 -414.089345 
L 142.726274 -414.089345 
L 143.646402 -414.089345 
L 144.566515 -414.089345 
L 145.486636 -414.089345 
L 146.406751 -414.089345 
L 147.326856 -414.089345 
L 148.246978 -414.089345 
L 149.167089 -414.089345 
L 150.087214 -414.08934 
L 151.007328 -414.08934 
L 151.927438 -414.08934 
L 152.847556 -414.08934 
L 153.76767 -414.08934 
L 154.687792 -414.08934 
L 155.6079 -414.08934 
L 156.528015 -414.08934 
L 157.448136 -414.089335 
L 158.368253 -414.089335 
L 159.288365 -414.089335 
L 160.208486 -414.089335 
L 161.1286 -414.089335 
L 162.048715 -414.08933 
L 162.968827 -414.08933 
L 163.888951 -414.08933 
L 164.809061 -414.089325 
L 165.729175 -414.089325 
L 166.649294 -414.089325 
L 167.569413 -414.08932 
L 168.48953 -414.08932 
L 169.409641 -414.08932 
L 170.329755 -414.089315 
L 171.249871 -414.089315 
L 172.169989 -414.08931 
L 173.090105 -414.089305 
L 174.01022 -414.089305 
L 174.930335 -414.0893 
L 175.850451 -414.089295 
L 176.770569 -414.089295 
L 177.690686 -414.08929 
L 178.610801 -414.089285 
L 179.530916 -414.08928 
L 180.451032 -414.089275 
L 181.371147 -414.089271 
L 182.291263 -414.089266 
L 183.211378 -414.089261 
L 184.131495 -414.089251 
L 185.051609 -414.089246 
L 185.971726 -414.089236 
L 186.891841 -414.089231 
L 187.811957 -414.089221 
L 188.732075 -414.089211 
L 189.652191 -414.089202 
L 190.572307 -414.089192 
L 191.492422 -414.089182 
L 192.412536 -414.089167 
L 193.332652 -414.089157 
L 194.25277 -414.089142 
L 195.172885 -414.089128 
L 196.093006 -414.089113 
L 197.013121 -414.089093 
L 197.933235 -414.089078 
L 198.853342 -414.089059 
L 199.77347 -414.089034 
L 200.693581 -414.089014 
L 201.613696 -414.08899 
L 202.533812 -414.088965 
L 203.453934 -414.088935 
L 204.374046 -414.088906 
L 205.294156 -414.088876 
L 206.214269 -414.088842 
L 207.134387 -414.088802 
L 208.05451 -414.088763 
L 208.974617 -414.088723 
L 209.894732 -414.088679 
L 210.814853 -414.08863 
L 211.734972 -414.088576 
L 212.655089 -414.088521 
L 213.575206 -414.088462 
L 214.495316 -414.088398 
L 215.415426 -414.088334 
L 216.335545 -414.08826 
L 217.255665 -414.088181 
L 218.175779 -414.088097 
L 219.095898 -414.088009 
L 220.016007 -414.08791 
L 220.936128 -414.087806 
L 221.856245 -414.087698 
L 222.776364 -414.08758 
L 223.696472 -414.087452 
L 224.616593 -414.087314 
L 225.536706 -414.087171 
L 226.456818 -414.087013 
L 227.376936 -414.086845 
L 228.297056 -414.086668 
L 229.217166 -414.086475 
L 230.137287 -414.086268 
L 231.057398 -414.086047 
L 231.977516 -414.08581 
L 232.897633 -414.085554 
L 233.817746 -414.085282 
L 234.737862 -414.084992 
L 235.657983 -414.084681 
L 236.578094 -414.084346 
L 237.498214 -414.083986 
L 238.418328 -414.083601 
L 239.338444 -414.083187 
L 240.25856 -414.082748 
L 241.178675 -414.082275 
L 242.09879 -414.081767 
L 243.018907 -414.081225 
L 243.939022 -414.080643 
L 244.85914 -414.080017 
L 245.779255 -414.079347 
L 246.69937 -414.078632 
L 247.619487 -414.077863 
L 248.539602 -414.077039 
L 249.459717 -414.076157 
L 250.379832 -414.07521 
L 251.29995 -414.074199 
L 252.220064 -414.073109 
L 253.140181 -414.071945 
L 254.060298 -414.070703 
L 254.980412 -414.069362 
L 255.900527 -414.067931 
L 256.820633 -414.066398 
L 257.740748 -414.06475 
L 258.660865 -414.06299 
L 259.580994 -414.061101 
L 260.50111 -414.059073 
L 261.421222 -414.056903 
L 262.341344 -414.05458 
L 263.261451 -414.052089 
L 264.181567 -414.04942 
L 265.101677 -414.046558 
L 266.021804 -414.043494 
L 266.941917 -414.040208 
L 267.862039 -414.03669 
L 268.782153 -414.03292 
L 269.702259 -414.028878 
L 270.622381 -414.024544 
L 271.542491 -414.019904 
L 272.462617 -414.014933 
L 273.38273 -414.009606 
L 274.30284 -414.003898 
L 275.222959 -413.997779 
L 276.143072 -413.99123 
L 277.063195 -413.984206 
L 277.983302 -413.976687 
L 278.903418 -413.968628 
L 279.823538 -413.959994 
L 280.743655 -413.950746 
L 281.663768 -413.940834 
L 282.583888 -413.930223 
L 283.504003 -413.918852 
L 284.424118 -413.906667 
L 285.34423 -413.893623 
L 286.264353 -413.879645 
L 287.184464 -413.864678 
L 288.104577 -413.848646 
L 289.024696 -413.831479 
L 289.944815 -413.813091 
L 290.864932 -413.793397 
L 291.785043 -413.772317 
L 292.705158 -413.749738 
L 293.625274 -413.725565 
L 294.545392 -413.699685 
L 295.465508 -413.671978 
L 296.385623 -413.64232 
L 297.305737 -413.610579 
L 298.225854 -413.5766 
L 299.145971 -413.540241 
L 300.066088 -413.501335 
L 300.986204 -413.459703 
L 301.906318 -413.415167 
L 302.826434 -413.367525 
L 303.74655 -413.316572 
L 304.666665 -413.262082 
L 305.58678 -413.203813 
L 306.506897 -413.141521 
L 307.427012 -413.074939 
L 308.347128 -413.003781 
L 309.267244 -412.927747 
L 310.187359 -412.84652 
L 311.107478 -412.759766 
L 312.027594 -412.66713 
L 312.94771 -412.568236 
L 313.867825 -412.462688 
L 314.787939 -412.350071 
L 315.708054 -412.229949 
L 316.628173 -412.101856 
L 317.548287 -411.965319 
L 318.468409 -411.819825 
L 319.388523 -411.664844 
L 320.308637 -411.499827 
L 321.228745 -411.324194 
L 322.148872 -411.137347 
L 323.068984 -410.93866 
L 323.989098 -410.727492 
L 324.909215 -410.50317 
L 325.829336 -410.265013 
L 326.749449 -410.012305 
L 327.669559 -409.744321 
L 328.589672 -409.460319 
L 329.50979 -409.159545 
L 330.429913 -408.841228 
L 331.35002 -408.504587 
L 332.270134 -408.14884 
L 333.190255 -407.773202 
L 334.110375 -407.376883 
L 335.030491 -406.959105 
L 335.950608 -406.51909 
L 336.870718 -406.056091 
L 337.790829 -405.569358 
L 338.710947 -405.058178 
L 339.631067 -404.521864 
L 340.551181 -403.959762 
L 341.4713 -403.371249 
L 342.391409 -402.755766 
L 343.311531 -402.112769 
L 344.231648 -401.4418 
L 345.151766 -400.742429 
L 346.071874 -400.014311 
L 346.991996 -399.257144 
L 347.912108 -398.47071 
L 348.832221 -397.654837 
L 349.752338 -396.809439 
L 350.672459 -395.934502 
L 351.592568 -395.030077 
L 352.51269 -394.096281 
L 353.4328 -393.13331 
L 354.352918 -392.141412 
L 355.273036 -391.12092 
L 356.193149 -390.07222 
L 357.113265 -388.995745 
L 358.033385 -387.892008 
L 358.953496 -386.76154 
L 359.873616 -385.60495 
L 360.793731 -384.422855 
L 361.713846 -383.215948 
L 362.633963 -381.984913 
L 363.554077 -380.730484 
L 364.474192 -379.453409 
L 365.394309 -378.154448 
L 366.314424 -376.834395 
L 367.234543 -375.494014 
L 368.154657 -374.134097 
L 369.074773 -372.755437 
L 369.994889 -371.358811 
L 370.915005 -369.944989 
L 371.835119 -368.514746 
L 372.755234 -367.06882 
L 373.675352 -365.607964 
L 374.595467 -364.132879 
L 375.515583 -362.644268 
L 376.4357 -361.142831 
L 377.355814 -359.629189 
L 378.27593 -358.104009 
L 379.196036 -356.567891 
L 380.116151 -355.021422 
L 381.036267 -353.465162 
L 381.956396 -351.899678 
L 382.876513 -350.32545 
L 383.796625 -348.743008 
L 384.716746 -347.15283 
L 385.636854 -345.555332 
L 386.55697 -343.950956 
L 387.477079 -342.340105 
L 388.397206 -340.723178 
L 389.31732 -339.100539 
L 390.237441 -337.472509 
L 391.157556 -335.839453 
L 392.077661 -334.201658 
L 392.997783 -332.559421 
L 393.917894 -330.913018 
L 394.838019 -329.262702 
L 395.758133 -327.608695 
L 396.678243 -325.951297 
L 397.598361 -324.290656 
L 398.518475 -322.627024 
L 399.438597 -320.960542 
L 400.358704 -319.291427 
L 401.27882 -317.619842 
L 402.198941 -315.945955 
L 403.119058 -314.269909 
L 404.03917 -312.591849 
L 404.959291 -310.911846 
L 405.879405 -309.230133 
L 406.79952 -307.546703 
L 407.719632 -305.861753 
L 408.639756 -304.17536 
L 409.559866 -302.487642 
L 410.47998 -300.798626 
L 411.400098 -299.108429 
L 412.320218 -297.417136 
L 413.240335 -295.724813 
L 414.160446 -294.03153 
L 415.08056 -292.337339 
L 416.000676 -290.642315 
L 416.920794 -288.946503 
L 417.84091 -287.249963 
L 418.761025 -285.552737 
L 419.68114 -283.854871 
L 420.601256 -282.156403 
L 421.521374 -280.457381 
L 422.441491 -278.757845 
L 423.361606 -277.057817 
L 424.281721 -275.357341 
L 425.201837 -273.656431 
L 426.121952 -271.955139 
L 427.042068 -270.253467 
L 427.962183 -268.551453 
L 428.8823 -266.849125 
L 429.802414 -265.146492 
L 430.722531 -263.443577 
L 431.642646 -261.740398 
L 432.562762 -260.036981 
L 433.48288 -258.333339 
L 434.402996 -256.629476 
L 435.323112 -254.925421 
L 436.243227 -253.221171 
L 437.163341 -251.516757 
L 438.083457 -249.812182 
L 439.003575 -248.107458 
L 439.92369 -246.402588 
L 439.92369 -374.421352 
L 439.92369 -374.421352 
L 439.003575 -375.777229 
L 438.083457 -377.113405 
L 437.163341 -378.429093 
L 436.243227 -379.723525 
L 435.323112 -380.995899 
L 434.402996 -382.245483 
L 433.48288 -383.471502 
L 432.562762 -384.673264 
L 431.642646 -385.850052 
L 430.722531 -387.001203 
L 429.802414 -388.126108 
L 428.8823 -389.224159 
L 427.962183 -390.294841 
L 427.042068 -391.337653 
L 426.121952 -392.352166 
L 425.201837 -393.338005 
L 424.281721 -394.294874 
L 423.361606 -395.222514 
L 422.441491 -396.12075 
L 421.521374 -396.989482 
L 420.601256 -397.82867 
L 419.68114 -398.638349 
L 418.761025 -399.418623 
L 417.84091 -400.169671 
L 416.920794 -400.89172 
L 416.000676 -401.585091 
L 415.08056 -402.250152 
L 414.160446 -402.887325 
L 413.240335 -403.497096 
L 412.320218 -404.08001 
L 411.400098 -404.636643 
L 410.47998 -405.167623 
L 409.559866 -405.673606 
L 408.639756 -406.155297 
L 407.719632 -406.613405 
L 406.79952 -407.048688 
L 405.879405 -407.461894 
L 404.959291 -407.853801 
L 404.03917 -408.225197 
L 403.119058 -408.576867 
L 402.198941 -408.909589 
L 401.27882 -409.224158 
L 400.358704 -409.521349 
L 399.438597 -409.801919 
L 398.518475 -410.066634 
L 397.598361 -410.316222 
L 396.678243 -410.551416 
L 395.758133 -410.772919 
L 394.838019 -410.98141 
L 393.917894 -411.177556 
L 392.997783 -411.361996 
L 392.077661 -411.53535 
L 391.157556 -411.698215 
L 390.237441 -411.851156 
L 389.31732 -411.994727 
L 388.397206 -412.129449 
L 387.477079 -412.255828 
L 386.55697 -412.374336 
L 385.636854 -412.485431 
L 384.716746 -412.589548 
L 383.796625 -412.687097 
L 382.876513 -412.778464 
L 381.956396 -412.864028 
L 381.036267 -412.944137 
L 380.116151 -413.019123 
L 379.196036 -413.089298 
L 378.27593 -413.154956 
L 377.355814 -413.216379 
L 376.4357 -413.273831 
L 375.515583 -413.327561 
L 374.595467 -413.377803 
L 373.675352 -413.424776 
L 372.755234 -413.468684 
L 371.835119 -413.509725 
L 370.915005 -413.548086 
L 369.994889 -413.583932 
L 369.074773 -413.617427 
L 368.154657 -413.648722 
L 367.234543 -413.677958 
L 366.314424 -413.70527 
L 365.394309 -413.730779 
L 364.474192 -413.754607 
L 363.554077 -413.776866 
L 362.633963 -413.797647 
L 361.713846 -413.817057 
L 360.793731 -413.835185 
L 359.873616 -413.852108 
L 358.953496 -413.867911 
L 358.033385 -413.882665 
L 357.113265 -413.896439 
L 356.193149 -413.909299 
L 355.273036 -413.921305 
L 354.352918 -413.932512 
L 353.4328 -413.942975 
L 352.51269 -413.952739 
L 351.592568 -413.961858 
L 350.672459 -413.970367 
L 349.752338 -413.978308 
L 348.832221 -413.985723 
L 347.912108 -413.992643 
L 346.991996 -413.999103 
L 346.071874 -414.005127 
L 345.151766 -414.010756 
L 344.231648 -414.016004 
L 343.311531 -414.020906 
L 342.391409 -414.025482 
L 341.4713 -414.029746 
L 340.551181 -414.033729 
L 339.631067 -414.03745 
L 338.710947 -414.040919 
L 337.790829 -414.044155 
L 336.870718 -414.047175 
L 335.950608 -414.049997 
L 335.030491 -414.052626 
L 334.110375 -414.055083 
L 333.190255 -414.057372 
L 332.270134 -414.059512 
L 331.35002 -414.061505 
L 330.429913 -414.063369 
L 329.50979 -414.065106 
L 328.589672 -414.066728 
L 327.669559 -414.068242 
L 326.749449 -414.069652 
L 325.829336 -414.070969 
L 324.909215 -414.072197 
L 323.989098 -414.073346 
L 323.068984 -414.074416 
L 322.148872 -414.075417 
L 321.228745 -414.076349 
L 320.308637 -414.077217 
L 319.388523 -414.07803 
L 318.468409 -414.078785 
L 317.548287 -414.079495 
L 316.628173 -414.08015 
L 315.708054 -414.080767 
L 314.787939 -414.081343 
L 313.867825 -414.081876 
L 312.94771 -414.082379 
L 312.027594 -414.082842 
L 311.107478 -414.083281 
L 310.187359 -414.083685 
L 309.267244 -414.084065 
L 308.347128 -414.08442 
L 307.427012 -414.084745 
L 306.506897 -414.085056 
L 305.58678 -414.085342 
L 304.666665 -414.085613 
L 303.74655 -414.085859 
L 302.826434 -414.086096 
L 301.906318 -414.086313 
L 300.986204 -414.086515 
L 300.066088 -414.086707 
L 299.145971 -414.08688 
L 298.225854 -414.087047 
L 297.305737 -414.0872 
L 296.385623 -414.087343 
L 295.465508 -414.087481 
L 294.545392 -414.087604 
L 293.625274 -414.087723 
L 292.705158 -414.087831 
L 291.785043 -414.08793 
L 290.864932 -414.088028 
L 289.944815 -414.088117 
L 289.024696 -414.088196 
L 288.104577 -414.088275 
L 287.184464 -414.088349 
L 286.264353 -414.088413 
L 285.34423 -414.088477 
L 284.424118 -414.088536 
L 283.504003 -414.08859 
L 282.583888 -414.08864 
L 281.663768 -414.088689 
L 280.743655 -414.088733 
L 279.823538 -414.088773 
L 278.903418 -414.088812 
L 277.983302 -414.088847 
L 277.063195 -414.088881 
L 276.143072 -414.088911 
L 275.222959 -414.08894 
L 274.30284 -414.08897 
L 273.38273 -414.088995 
L 272.462617 -414.089019 
L 271.542491 -414.089039 
L 270.622381 -414.089059 
L 269.702259 -414.089078 
L 268.782153 -414.089098 
L 267.862039 -414.089113 
L 266.941917 -414.089133 
L 266.021804 -414.089147 
L 265.101677 -414.089157 
L 264.181567 -414.089172 
L 263.261451 -414.089182 
L 262.341344 -414.089197 
L 261.421222 -414.089206 
L 260.50111 -414.089216 
L 259.580994 -414.089226 
L 258.660865 -414.089231 
L 257.740748 -414.089241 
L 256.820633 -414.089246 
L 255.900527 -414.089256 
L 254.980412 -414.089261 
L 254.060298 -414.089266 
L 253.140181 -414.089271 
L 252.220064 -414.089275 
L 251.29995 -414.08928 
L 250.379832 -414.089285 
L 249.459717 -414.08929 
L 248.539602 -414.089295 
L 247.619487 -414.0893 
L 246.69937 -414.0893 
L 245.779255 -414.089305 
L 244.85914 -414.08931 
L 243.939022 -414.08931 
L 243.018907 -414.089315 
L 242.09879 -414.089315 
L 241.178675 -414.08932 
L 240.25856 -414.08932 
L 239.338444 -414.08932 
L 238.418328 -414.089325 
L 237.498214 -414.089325 
L 236.578094 -414.089325 
L 235.657983 -414.08933 
L 234.737862 -414.08933 
L 233.817746 -414.08933 
L 232.897633 -414.089335 
L 231.977516 -414.089335 
L 231.057398 -414.089335 
L 230.137287 -414.089335 
L 229.217166 -414.089335 
L 228.297056 -414.08934 
L 227.376936 -414.08934 
L 226.456818 -414.08934 
L 225.536706 -414.08934 
L 224.616593 -414.08934 
L 223.696472 -414.08934 
L 222.776364 -414.08934 
L 221.856245 -414.089345 
L 220.936128 -414.089345 
L 220.016007 -414.089345 
L 219.095898 -414.089345 
L 218.175779 -414.089345 
L 217.255665 -414.089345 
L 216.335545 -414.089345 
L 215.415426 -414.089345 
L 214.495316 -414.089345 
L 213.575206 -414.089345 
L 212.655089 -414.089345 
L 211.734972 -414.089345 
L 210.814853 -414.089345 
L 209.894732 -414.089345 
L 208.974617 -414.089345 
L 208.05451 -414.089345 
L 207.134387 -414.089349 
L 206.214269 -414.089349 
L 205.294156 -414.089349 
L 204.374046 -414.089349 
L 203.453934 -414.089349 
L 202.533812 -414.089349 
L 201.613696 -414.089349 
L 200.693581 -414.089349 
L 199.77347 -414.089349 
L 198.853342 -414.089349 
L 197.933235 -414.089349 
L 197.013121 -414.089349 
L 196.093006 -414.089349 
L 195.172885 -414.089349 
L 194.25277 -414.089349 
L 193.332652 -414.089349 
L 192.412536 -414.089349 
L 191.492422 -414.089349 
L 190.572307 -414.089349 
L 189.652191 -414.089349 
L 188.732075 -414.089349 
L 187.811957 -414.089349 
L 186.891841 -414.089349 
L 185.971726 -414.089349 
L 185.051609 -414.089349 
L 184.131495 -414.089349 
L 183.211378 -414.089349 
L 182.291263 -414.089349 
L 181.371147 -414.089349 
L 180.451032 -414.089349 
L 179.530916 -414.089349 
L 178.610801 -414.089349 
L 177.690686 -414.089349 
L 176.770569 -414.089349 
L 175.850451 -414.089349 
L 174.930335 -414.089349 
L 174.01022 -414.089349 
L 173.090105 -414.089349 
L 172.169989 -414.089349 
L 171.249871 -414.089349 
L 170.329755 -414.089349 
L 169.409641 -414.089349 
L 168.48953 -414.089349 
L 167.569413 -414.089349 
L 166.649294 -414.089349 
L 165.729175 -414.089349 
L 164.809061 -414.089349 
L 163.888951 -414.089349 
L 162.968827 -414.089349 
L 162.048715 -414.089349 
L 161.1286 -414.089349 
L 160.208486 -414.089349 
L 159.288365 -414.089349 
L 158.368253 -414.089349 
L 157.448136 -414.089349 
L 156.528015 -414.089349 
L 155.6079 -414.089349 
L 154.687792 -414.089349 
L 153.76767 -414.089349 
L 152.847556 -414.089349 
L 151.927438 -414.089349 
L 151.007328 -414.089349 
L 150.087214 -414.089349 
L 149.167089 -414.089349 
L 148.246978 -414.089349 
L 147.326856 -414.089349 
L 146.406751 -414.089349 
L 145.486636 -414.089349 
L 144.566515 -414.089349 
L 143.646402 -414.089349 
L 142.726274 -414.089349 
L 141.806165 -414.089349 
L 140.886049 -414.089349 
L 139.965941 -414.089349 
L 139.04582 -414.089349 
L 138.125708 -414.089349 
L 137.205591 -414.089349 
L 136.285462 -414.089349 
L 135.365346 -414.089349 
L 134.445231 -414.089349 
L 133.525125 -414.089349 
L 132.605009 -414.089349 
L 131.684895 -414.089349 
L 130.764778 -414.089349 
L 129.844662 -414.089349 
L 128.924547 -414.089349 
L 128.004429 -414.089349 
L 127.084315 -414.089349 
L 126.1642 -414.089349 
L 125.244084 -414.089349 
L 124.323968 -414.089349 
L 123.403853 -414.089349 
L 122.483738 -414.089349 
L 121.563619 -414.089349 
L 120.643504 -414.089349 
L 119.723387 -414.089349 
L 118.803272 -414.089349 
L 117.883158 -414.089349 
L 116.963041 -414.089349 
L 116.042926 -414.089349 
L 115.122811 -414.089349 
L 114.202691 -414.089349 
L 113.28258 -414.089349 
L 112.36246 -414.089349 
L 111.442344 -414.089349 
L 110.522231 -414.089349 
L 109.602113 -414.089349 
L 108.681996 -414.089349 
L 107.761885 -414.089349 
L 106.841764 -414.089349 
L 105.921654 -414.089349 
L 105.001533 -414.089349 
L 104.081416 -414.089349 
L 103.161303 -414.089349 
L 102.241191 -414.089349 
L 101.321069 -414.089349 
L 100.400961 -414.089349 
L 99.480843 -414.089349 
L 98.560726 -414.089349 
L 97.640604 -414.089349 
L 96.720495 -414.089349 
L 95.800376 -414.089349 
L 94.880263 -414.089349 
L 93.960143 -414.089349 
L 93.040024 -414.089349 
L 92.119913 -414.089349 
L 91.199803 -414.089349 
L 90.279686 -414.089349 
L 89.35957 -414.089349 
L 88.43945 -414.089349 
L 87.519329 -414.089349 
L 86.599215 -414.089349 
L 85.679108 -414.089349 
L 84.758985 -414.089349 
L 83.838867 -414.089349 
L 82.918754 -414.089349 
L 81.998644 -414.089349 
L 81.078531 -414.089349 
L 80.15841 -414.089349 
L 79.238293 -414.089349 
L 78.318179 -414.089349 
L 77.398067 -414.089349 
L 76.47794 -414.089349 
L 75.557832 -414.089349 
L 74.637718 -414.089349 
L 73.717604 -414.089349 
L 72.797482 -414.089349 
z
" style="stroke: #d9d9d9"/>
    </defs>
    <g clip-path="url(#p813783edb7)">
     <use xlink:href="#m10ea4d92fc" x="0" y="446.4" style="fill: #d9d9d9; stroke: #d9d9d9"/>
    </g>
   </g>
   <g id="matplotlib.axis_1">
    <g id="xtick_1">
     <g id="line2d_1">
      <path d="M 72.797482 208.38175 
L 72.797482 23.926313 
" clip-path="url(#p813783edb7)" style="fill: none; stroke: #b0b0b0; stroke-opacity: 0.3; stroke-width: 0.8; stroke-linecap: square"/>
     </g>
     <g id="line2d_2">
      <defs>
       <path id="m94527073b0" d="M 0 0 
L 0 3.5 
" style="stroke: #000000; stroke-width: 0.8"/>
      </defs>
      <g>
       <use xlink:href="#m94527073b0" x="72.797482" y="208.38175" style="stroke: #000000; stroke-width: 0.8"/>
      </g>
     </g>
    </g>
    <g id="xtick_2">
     <g id="line2d_3">
      <path d="M 133.985183 208.38175 
L 133.985183 23.926313 
" clip-path="url(#p813783edb7)" style="fill: none; stroke: #b0b0b0; stroke-opacity: 0.3; stroke-width: 0.8; stroke-linecap: square"/>
     </g>
     <g id="line2d_4">
      <g>
       <use xlink:href="#m94527073b0" x="133.985183" y="208.38175" style="stroke: #000000; stroke-width: 0.8"/>
      </g>
     </g>
    </g>
    <g id="xtick_3">
     <g id="line2d_5">
      <path d="M 195.172885 208.38175 
L 195.172885 23.926313 
" clip-path="url(#p813783edb7)" style="fill: none; stroke: #b0b0b0; stroke-opacity: 0.3; stroke-width: 0.8; stroke-linecap: square"/>
     </g>
     <g id="line2d_6">
      <g>
       <use xlink:href="#m94527073b0" x="195.172885" y="208.38175" style="stroke: #000000; stroke-width: 0.8"/>
      </g>
     </g>
    </g>
    <g id="xtick_4">
     <g id="line2d_7">
      <path d="M 256.360586 208.38175 
L 256.360586 23.926313 
" clip-path="url(#p813783edb7)" style="fill: none; stroke: #b0b0b0; stroke-opacity: 0.3; stroke-width: 0.8; stroke-linecap: square"/>
     </g>
     <g id="line2d_8">
      <g>
       <use xlink:href="#m94527073b0" x="256.360586" y="208.38175" style="stroke: #000000; stroke-width: 0.8"/>
      </g>
     </g>
    </g>
    <g id="xtick_5">
     <g id="line2d_9">
      <path d="M 317.548287 208.38175 
L 317.548287 23.926313 
" clip-path="url(#p813783edb7)" style="fill: none; stroke: #b0b0b0; stroke-opacity: 0.3; stroke-width: 0.8; stroke-linecap: square"/>
     </g>
     <g id="line2d_10">
      <g>
       <use xlink:href="#m94527073b0" x="317.548287" y="208.38175" style="stroke: #000000; stroke-width: 0.8"/>
      </g>
     </g>
    </g>
    <g id="xtick_6">
     <g id="line2d_11">
      <path d="M 378.735988 208.38175 
L 378.735988 23.926313 
" clip-path="url(#p813783edb7)" style="fill: none; stroke: #b0b0b0; stroke-opacity: 0.3; stroke-width: 0.8; stroke-linecap: square"/>
     </g>
     <g id="line2d_12">
      <g>
       <use xlink:href="#m94527073b0" x="378.735988" y="208.38175" style="stroke: #000000; stroke-width: 0.8"/>
      </g>
     </g>
    </g>
    <g id="xtick_7">
     <g id="line2d_13">
      <path d="M 439.92369 208.38175 
L 439.92369 23.926313 
" clip-path="url(#p813783edb7)" style="fill: none; stroke: #b0b0b0; stroke-opacity: 0.3; stroke-width: 0.8; stroke-linecap: square"/>
     </g>
     <g id="line2d_14">
      <g>
       <use xlink:href="#m94527073b0" x="439.92369" y="208.38175" style="stroke: #000000; stroke-width: 0.8"/>
      </g>
     </g>
    </g>
    <g id="xtick_8">
     <g id="line2d_15">
      <defs>
       <path id="m2117adb507" d="M 0 0 
L 0 2 
" style="stroke: #000000; stroke-width: 0.6"/>
      </defs>
      <g>
       <use xlink:href="#m2117adb507" x="59.223067" y="208.38175" style="stroke: #000000; stroke-width: 0.6"/>
      </g>
     </g>
    </g>
    <g id="xtick_9">
     <g id="line2d_16">
      <g>
       <use xlink:href="#m2117adb507" x="63.319387" y="208.38175" style="stroke: #000000; stroke-width: 0.6"/>
      </g>
     </g>
    </g>
    <g id="xtick_10">
     <g id="line2d_17">
      <g>
       <use xlink:href="#m2117adb507" x="66.867781" y="208.38175" style="stroke: #000000; stroke-width: 0.6"/>
      </g>
     </g>
    </g>
    <g id="xtick_11">
     <g id="line2d_18">
      <g>
       <use xlink:href="#m2117adb507" x="69.997687" y="208.38175" style="stroke: #000000; stroke-width: 0.6"/>
      </g>
     </g>
    </g>
    <g id="xtick_12">
     <g id="line2d_19">
      <g>
       <use xlink:href="#m2117adb507" x="91.216816" y="208.38175" style="stroke: #000000; stroke-width: 0.6"/>
      </g>
     </g>
    </g>
    <g id="xtick_13">
     <g id="line2d_20">
      <g>
       <use xlink:href="#m2117adb507" x="101.991435" y="208.38175" style="stroke: #000000; stroke-width: 0.6"/>
      </g>
     </g>
    </g>
    <g id="xtick_14">
     <g id="line2d_21">
      <g>
       <use xlink:href="#m2117adb507" x="109.636149" y="208.38175" style="stroke: #000000; stroke-width: 0.6"/>
      </g>
     </g>
    </g>
    <g id="xtick_15">
     <g id="line2d_22">
      <g>
       <use xlink:href="#m2117adb507" x="115.56585" y="208.38175" style="stroke: #000000; stroke-width: 0.6"/>
      </g>
     </g>
    </g>
    <g id="xtick_16">
     <g id="line2d_23">
      <g>
       <use xlink:href="#m2117adb507" x="120.410768" y="208.38175" style="stroke: #000000; stroke-width: 0.6"/>
      </g>
     </g>
    </g>
    <g id="xtick_17">
     <g id="line2d_24">
      <g>
       <use xlink:href="#m2117adb507" x="124.507089" y="208.38175" style="stroke: #000000; stroke-width: 0.6"/>
      </g>
     </g>
    </g>
    <g id="xtick_18">
     <g id="line2d_25">
      <g>
       <use xlink:href="#m2117adb507" x="128.055483" y="208.38175" style="stroke: #000000; stroke-width: 0.6"/>
      </g>
     </g>
    </g>
    <g id="xtick_19">
     <g id="line2d_26">
      <g>
       <use xlink:href="#m2117adb507" x="131.185388" y="208.38175" style="stroke: #000000; stroke-width: 0.6"/>
      </g>
     </g>
    </g>
    <g id="xtick_20">
     <g id="line2d_27">
      <g>
       <use xlink:href="#m2117adb507" x="152.404517" y="208.38175" style="stroke: #000000; stroke-width: 0.6"/>
      </g>
     </g>
    </g>
    <g id="xtick_21">
     <g id="line2d_28">
      <g>
       <use xlink:href="#m2117adb507" x="163.179136" y="208.38175" style="stroke: #000000; stroke-width: 0.6"/>
      </g>
     </g>
    </g>
    <g id="xtick_22">
     <g id="line2d_29">
      <g>
       <use xlink:href="#m2117adb507" x="170.82385" y="208.38175" style="stroke: #000000; stroke-width: 0.6"/>
      </g>
     </g>
    </g>
    <g id="xtick_23">
     <g id="line2d_30">
      <g>
       <use xlink:href="#m2117adb507" x="176.753551" y="208.38175" style="stroke: #000000; stroke-width: 0.6"/>
      </g>
     </g>
    </g>
    <g id="xtick_24">
     <g id="line2d_31">
      <g>
       <use xlink:href="#m2117adb507" x="181.59847" y="208.38175" style="stroke: #000000; stroke-width: 0.6"/>
      </g>
     </g>
    </g>
    <g id="xtick_25">
     <g id="line2d_32">
      <g>
       <use xlink:href="#m2117adb507" x="185.69479" y="208.38175" style="stroke: #000000; stroke-width: 0.6"/>
      </g>
     </g>
    </g>
    <g id="xtick_26">
     <g id="line2d_33">
      <g>
       <use xlink:href="#m2117adb507" x="189.243184" y="208.38175" style="stroke: #000000; stroke-width: 0.6"/>
      </g>
     </g>
    </g>
    <g id="xtick_27">
     <g id="line2d_34">
      <g>
       <use xlink:href="#m2117adb507" x="192.373089" y="208.38175" style="stroke: #000000; stroke-width: 0.6"/>
      </g>
     </g>
    </g>
    <g id="xtick_28">
     <g id="line2d_35">
      <g>
       <use xlink:href="#m2117adb507" x="213.592218" y="208.38175" style="stroke: #000000; stroke-width: 0.6"/>
      </g>
     </g>
    </g>
    <g id="xtick_29">
     <g id="line2d_36">
      <g>
       <use xlink:href="#m2117adb507" x="224.366837" y="208.38175" style="stroke: #000000; stroke-width: 0.6"/>
      </g>
     </g>
    </g>
    <g id="xtick_30">
     <g id="line2d_37">
      <g>
       <use xlink:href="#m2117adb507" x="232.011552" y="208.38175" style="stroke: #000000; stroke-width: 0.6"/>
      </g>
     </g>
    </g>
    <g id="xtick_31">
     <g id="line2d_38">
      <g>
       <use xlink:href="#m2117adb507" x="237.941253" y="208.38175" style="stroke: #000000; stroke-width: 0.6"/>
      </g>
     </g>
    </g>
    <g id="xtick_32">
     <g id="line2d_39">
      <g>
       <use xlink:href="#m2117adb507" x="242.786171" y="208.38175" style="stroke: #000000; stroke-width: 0.6"/>
      </g>
     </g>
    </g>
    <g id="xtick_33">
     <g id="line2d_40">
      <g>
       <use xlink:href="#m2117adb507" x="246.882491" y="208.38175" style="stroke: #000000; stroke-width: 0.6"/>
      </g>
     </g>
    </g>
    <g id="xtick_34">
     <g id="line2d_41">
      <g>
       <use xlink:href="#m2117adb507" x="250.430885" y="208.38175" style="stroke: #000000; stroke-width: 0.6"/>
      </g>
     </g>
    </g>
    <g id="xtick_35">
     <g id="line2d_42">
      <g>
       <use xlink:href="#m2117adb507" x="253.56079" y="208.38175" style="stroke: #000000; stroke-width: 0.6"/>
      </g>
     </g>
    </g>
    <g id="xtick_36">
     <g id="line2d_43">
      <g>
       <use xlink:href="#m2117adb507" x="274.779919" y="208.38175" style="stroke: #000000; stroke-width: 0.6"/>
      </g>
     </g>
    </g>
    <g id="xtick_37">
     <g id="line2d_44">
      <g>
       <use xlink:href="#m2117adb507" x="285.554539" y="208.38175" style="stroke: #000000; stroke-width: 0.6"/>
      </g>
     </g>
    </g>
    <g id="xtick_38">
     <g id="line2d_45">
      <g>
       <use xlink:href="#m2117adb507" x="293.199253" y="208.38175" style="stroke: #000000; stroke-width: 0.6"/>
      </g>
     </g>
    </g>
    <g id="xtick_39">
     <g id="line2d_46">
      <g>
       <use xlink:href="#m2117adb507" x="299.128954" y="208.38175" style="stroke: #000000; stroke-width: 0.6"/>
      </g>
     </g>
    </g>
    <g id="xtick_40">
     <g id="line2d_47">
      <g>
       <use xlink:href="#m2117adb507" x="303.973872" y="208.38175" style="stroke: #000000; stroke-width: 0.6"/>
      </g>
     </g>
    </g>
    <g id="xtick_41">
     <g id="line2d_48">
      <g>
       <use xlink:href="#m2117adb507" x="308.070192" y="208.38175" style="stroke: #000000; stroke-width: 0.6"/>
      </g>
     </g>
    </g>
    <g id="xtick_42">
     <g id="line2d_49">
      <g>
       <use xlink:href="#m2117adb507" x="311.618586" y="208.38175" style="stroke: #000000; stroke-width: 0.6"/>
      </g>
     </g>
    </g>
    <g id="xtick_43">
     <g id="line2d_50">
      <g>
       <use xlink:href="#m2117adb507" x="314.748492" y="208.38175" style="stroke: #000000; stroke-width: 0.6"/>
      </g>
     </g>
    </g>
    <g id="xtick_44">
     <g id="line2d_51">
      <g>
       <use xlink:href="#m2117adb507" x="335.967621" y="208.38175" style="stroke: #000000; stroke-width: 0.6"/>
      </g>
     </g>
    </g>
    <g id="xtick_45">
     <g id="line2d_52">
      <g>
       <use xlink:href="#m2117adb507" x="346.74224" y="208.38175" style="stroke: #000000; stroke-width: 0.6"/>
      </g>
     </g>
    </g>
    <g id="xtick_46">
     <g id="line2d_53">
      <g>
       <use xlink:href="#m2117adb507" x="354.386954" y="208.38175" style="stroke: #000000; stroke-width: 0.6"/>
      </g>
     </g>
    </g>
    <g id="xtick_47">
     <g id="line2d_54">
      <g>
       <use xlink:href="#m2117adb507" x="360.316655" y="208.38175" style="stroke: #000000; stroke-width: 0.6"/>
      </g>
     </g>
    </g>
    <g id="xtick_48">
     <g id="line2d_55">
      <g>
       <use xlink:href="#m2117adb507" x="365.161573" y="208.38175" style="stroke: #000000; stroke-width: 0.6"/>
      </g>
     </g>
    </g>
    <g id="xtick_49">
     <g id="line2d_56">
      <g>
       <use xlink:href="#m2117adb507" x="369.257894" y="208.38175" style="stroke: #000000; stroke-width: 0.6"/>
      </g>
     </g>
    </g>
    <g id="xtick_50">
     <g id="line2d_57">
      <g>
       <use xlink:href="#m2117adb507" x="372.806287" y="208.38175" style="stroke: #000000; stroke-width: 0.6"/>
      </g>
     </g>
    </g>
    <g id="xtick_51">
     <g id="line2d_58">
      <g>
       <use xlink:href="#m2117adb507" x="375.936193" y="208.38175" style="stroke: #000000; stroke-width: 0.6"/>
      </g>
     </g>
    </g>
    <g id="xtick_52">
     <g id="line2d_59">
      <g>
       <use xlink:href="#m2117adb507" x="397.155322" y="208.38175" style="stroke: #000000; stroke-width: 0.6"/>
      </g>
     </g>
    </g>
    <g id="xtick_53">
     <g id="line2d_60">
      <g>
       <use xlink:href="#m2117adb507" x="407.929941" y="208.38175" style="stroke: #000000; stroke-width: 0.6"/>
      </g>
     </g>
    </g>
    <g id="xtick_54">
     <g id="line2d_61">
      <g>
       <use xlink:href="#m2117adb507" x="415.574655" y="208.38175" style="stroke: #000000; stroke-width: 0.6"/>
      </g>
     </g>
    </g>
    <g id="xtick_55">
     <g id="line2d_62">
      <g>
       <use xlink:href="#m2117adb507" x="421.504356" y="208.38175" style="stroke: #000000; stroke-width: 0.6"/>
      </g>
     </g>
    </g>
    <g id="xtick_56">
     <g id="line2d_63">
      <g>
       <use xlink:href="#m2117adb507" x="426.349275" y="208.38175" style="stroke: #000000; stroke-width: 0.6"/>
      </g>
     </g>
    </g>
    <g id="xtick_57">
     <g id="line2d_64">
      <g>
       <use xlink:href="#m2117adb507" x="430.445595" y="208.38175" style="stroke: #000000; stroke-width: 0.6"/>
      </g>
     </g>
    </g>
    <g id="xtick_58">
     <g id="line2d_65">
      <g>
       <use xlink:href="#m2117adb507" x="433.993989" y="208.38175" style="stroke: #000000; stroke-width: 0.6"/>
      </g>
     </g>
    </g>
    <g id="xtick_59">
     <g id="line2d_66">
      <g>
       <use xlink:href="#m2117adb507" x="437.123894" y="208.38175" style="stroke: #000000; stroke-width: 0.6"/>
      </g>
     </g>
    </g>
   </g>
   <g id="matplotlib.axis_2">
    <g id="ytick_1">
     <g id="line2d_67">
      <path d="M 54.441172 202.566874 
L 458.28 202.566874 
" clip-path="url(#p813783edb7)" style="fill: none; stroke: #b0b0b0; stroke-opacity: 0.3; stroke-width: 0.8; stroke-linecap: square"/>
     </g>
     <g id="line2d_68">
      <defs>
       <path id="m9ee7a620ad" d="M 0 0 
L -3.5 0 
" style="stroke: #000000; stroke-width: 0.8"/>
      </defs>
      <g>
       <use xlink:href="#m9ee7a620ad" x="54.441172" y="202.566874" style="stroke: #000000; stroke-width: 0.8"/>
      </g>
     </g>
     <g id="text_1">
      <text style="font-size: 9px; font-family: 'DejaVu Serif', 'Bitstream Vera Serif', 'Computer Modern Roman', 'New Century Schoolbook', 'Century Schoolbook L', 'Utopia', 'ITC Bookman', 'Bookman', 'Nimbus Roman No9 L', 'Times New Roman', 'Times', 'Palatino', 'Charter', serif; text-anchor: end" x="47.441172" y="205.985819" transform="rotate(-0 47.441172 205.985819)">−30</text>
     </g>
    </g>
    <g id="ytick_2">
     <g id="line2d_69">
      <path d="M 54.441172 174.190836 
L 458.28 174.190836 
" clip-path="url(#p813783edb7)" style="fill: none; stroke: #b0b0b0; stroke-opacity: 0.3; stroke-width: 0.8; stroke-linecap: square"/>
     </g>
     <g id="line2d_70">
      <g>
       <use xlink:href="#m9ee7a620ad" x="54.441172" y="174.190836" style="stroke: #000000; stroke-width: 0.8"/>
      </g>
     </g>
     <g id="text_2">
      <text style="font-size: 9px; font-family: 'DejaVu Serif', 'Bitstream Vera Serif', 'Computer Modern Roman', 'New Century Schoolbook', 'Century Schoolbook L', 'Utopia', 'ITC Bookman', 'Bookman', 'Nimbus Roman No9 L', 'Times New Roman', 'Times', 'Palatino', 'Charter', serif; text-anchor: end" x="47.441172" y="177.609782" transform="rotate(-0 47.441172 177.609782)">−25</text>
     </g>
    </g>
    <g id="ytick_3">
     <g id="line2d_71">
      <path d="M 54.441172 145.814799 
L 458.28 145.814799 
" clip-path="url(#p813783edb7)" style="fill: none; stroke: #b0b0b0; stroke-opacity: 0.3; stroke-width: 0.8; stroke-linecap: square"/>
     </g>
     <g id="line2d_72">
      <g>
       <use xlink:href="#m9ee7a620ad" x="54.441172" y="145.814799" style="stroke: #000000; stroke-width: 0.8"/>
      </g>
     </g>
     <g id="text_3">
      <text style="font-size: 9px; font-family: 'DejaVu Serif', 'Bitstream Vera Serif', 'Computer Modern Roman', 'New Century Schoolbook', 'Century Schoolbook L', 'Utopia', 'ITC Bookman', 'Bookman', 'Nimbus Roman No9 L', 'Times New Roman', 'Times', 'Palatino', 'Charter', serif; text-anchor: end" x="47.441172" y="149.233745" transform="rotate(-0 47.441172 149.233745)">−20</text>
     </g>
    </g>
    <g id="ytick_4">
     <g id="line2d_73">
      <path d="M 54.441172 117.438762 
L 458.28 117.438762 
" clip-path="url(#p813783edb7)" style="fill: none; stroke: #b0b0b0; stroke-opacity: 0.3; stroke-width: 0.8; stroke-linecap: square"/>
     </g>
     <g id="line2d_74">
      <g>
       <use xlink:href="#m9ee7a620ad" x="54.441172" y="117.438762" style="stroke: #000000; stroke-width: 0.8"/>
      </g>
     </g>
     <g id="text_4">
      <text style="font-size: 9px; font-family: 'DejaVu Serif', 'Bitstream Vera Serif', 'Computer Modern Roman', 'New Century Schoolbook', 'Century Schoolbook L', 'Utopia', 'ITC Bookman', 'Bookman', 'Nimbus Roman No9 L', 'Times New Roman', 'Times', 'Palatino', 'Charter', serif; text-anchor: end" x="47.441172" y="120.857707" transform="rotate(-0 47.441172 120.857707)">−15</text>
     </g>
    </g>
    <g id="ytick_5">
     <g id="line2d_75">
      <path d="M 54.441172 89.062725 
L 458.28 89.062725 
" clip-path="url(#p813783edb7)" style="fill: none; stroke: #b0b0b0; stroke-opacity: 0.3; stroke-width: 0.8; stroke-linecap: square"/>
     </g>
     <g id="line2d_76">
      <g>
       <use xlink:href="#m9ee7a620ad" x="54.441172" y="89.062725" style="stroke: #000000; stroke-width: 0.8"/>
      </g>
     </g>
     <g id="text_5">
      <text style="font-size: 9px; font-family: 'DejaVu Serif', 'Bitstream Vera Serif', 'Computer Modern Roman', 'New Century Schoolbook', 'Century Schoolbook L', 'Utopia', 'ITC Bookman', 'Bookman', 'Nimbus Roman No9 L', 'Times New Roman', 'Times', 'Palatino', 'Charter', serif; text-anchor: end" x="47.441172" y="92.48167" transform="rotate(-0 47.441172 92.48167)">−10</text>
     </g>
    </g>
    <g id="ytick_6">
     <g id="line2d_77">
      <path d="M 54.441172 60.686688 
L 458.28 60.686688 
" clip-path="url(#p813783edb7)" style="fill: none; stroke: #b0b0b0; stroke-opacity: 0.3; stroke-width: 0.8; stroke-linecap: square"/>
     </g>
     <g id="line2d_78">
      <g>
       <use xlink:href="#m9ee7a620ad" x="54.441172" y="60.686688" style="stroke: #000000; stroke-width: 0.8"/>
      </g>
     </g>
     <g id="text_6">
      <text style="font-size: 9px; font-family: 'DejaVu Serif', 'Bitstream Vera Serif', 'Computer Modern Roman', 'New Century Schoolbook', 'Century Schoolbook L', 'Utopia', 'ITC Bookman', 'Bookman', 'Nimbus Roman No9 L', 'Times New Roman', 'Times', 'Palatino', 'Charter', serif; text-anchor: end" x="47.441172" y="64.105633" transform="rotate(-0 47.441172 64.105633)">−5</text>
     </g>
    </g>
    <g id="ytick_7">
     <g id="line2d_79">
      <path d="M 54.441172 32.310651 
L 458.28 32.310651 
" clip-path="url(#p813783edb7)" style="fill: none; stroke: #b0b0b0; stroke-opacity: 0.3; stroke-width: 0.8; stroke-linecap: square"/>
     </g>
     <g id="line2d_80">
      <g>
       <use xlink:href="#m9ee7a620ad" x="54.441172" y="32.310651" style="stroke: #000000; stroke-width: 0.8"/>
      </g>
     </g>
     <g id="text_7">
      <text style="font-size: 9px; font-family: 'DejaVu Serif', 'Bitstream Vera Serif', 'Computer Modern Roman', 'New Century Schoolbook', 'Century Schoolbook L', 'Utopia', 'ITC Bookman', 'Bookman', 'Nimbus Roman No9 L', 'Times New Roman', 'Times', 'Palatino', 'Charter', serif; text-anchor: end" x="47.441172" y="35.729596" transform="rotate(-0 47.441172 35.729596)">0</text>
     </g>
    </g>
    <g id="text_8">
     <text style="font-size: 9px; font-family: 'DejaVu Serif', 'Bitstream Vera Serif', 'Computer Modern Roman', 'New Century Schoolbook', 'Century Schoolbook L', 'Utopia', 'ITC Bookman', 'Bookman', 'Nimbus Roman No9 L', 'Times New Roman', 'Times', 'Palatino', 'Charter', serif; text-anchor: middle" x="22.284844" y="116.154031" transform="rotate(-90 22.284844 116.154031)">Magnitude (dB)</text>
    </g>
   </g>
   <g id="line2d_81">
    <path d="M 72.797482 32.310651 
L 306.506897 32.417785 
L 322.148872 32.65666 
L 331.35002 32.997448 
L 338.710947 33.493773 
L 344.231648 34.081773 
L 348.832221 34.778934 
L 352.51269 35.517398 
L 356.193149 36.458896 
L 359.873616 37.6483 
L 362.633963 38.732298 
L 365.394309 40.004277 
L 368.154657 41.484886 
L 370.915005 43.193121 
L 373.675352 45.145212 
L 376.4357 47.35342 
L 379.196036 49.82513 
L 381.956396 52.562231 
L 384.716746 55.560964 
L 388.397206 59.949841 
L 392.077661 64.753302 
L 395.758133 69.927466 
L 400.358704 76.841639 
L 404.959291 84.162032 
L 410.47998 93.358882 
L 417.84091 106.116719 
L 427.042068 122.560637 
L 439.92369 146.060046 
L 439.92369 146.060046 
" clip-path="url(#p813783edb7)" style="fill: none; stroke-dasharray: 5.55,2.4; stroke-dashoffset: 0; stroke: #0000ff; stroke-width: 1.5"/>
   </g>
   <g id="line2d_82">
    <path d="M 72.797482 32.642187 
L 296.385623 32.747891 
L 312.027594 32.981315 
L 322.148872 33.355141 
L 329.50979 33.851799 
L 335.030491 34.421096 
L 340.551181 35.223066 
L 345.151766 36.112416 
L 349.752338 37.23229 
L 354.352918 38.592686 
L 358.953496 40.175795 
L 365.394309 42.660841 
L 376.4357 46.979624 
L 381.036267 48.545682 
L 385.636854 49.885744 
L 390.237441 50.984242 
L 394.838019 51.852651 
L 400.358704 52.630826 
L 405.879405 53.177486 
L 412.320218 53.598344 
L 420.601256 53.905569 
L 430.722531 54.055465 
L 439.92369 54.040533 
L 439.92369 54.040533 
" clip-path="url(#p813783edb7)" style="fill: none; stroke: #ff0000; stroke-width: 1.2; stroke-linecap: square"/>
   </g>
   <g id="line2d_83">
    <path d="M 320.08101 208.38175 
L 320.08101 23.926313 
" clip-path="url(#p813783edb7)" style="fill: none; stroke-dasharray: 0.8,1.32; stroke-dashoffset: 0; stroke: #000000; stroke-width: 0.8"/>
   </g>
   <g id="patch_3">
    <path d="M 54.441172 208.38175 
L 54.441172 23.926313 
" style="fill: none; stroke: #000000; stroke-width: 0.8; stroke-linejoin: miter; stroke-linecap: square"/>
   </g>
   <g id="patch_4">
    <path d="M 458.28 208.38175 
L 458.28 23.926313 
" style="fill: none; stroke: #000000; stroke-width: 0.8; stroke-linejoin: miter; stroke-linecap: square"/>
   </g>
   <g id="patch_5">
    <path d="M 54.441172 208.38175 
L 458.28 208.38175 
" style="fill: none; stroke: #000000; stroke-width: 0.8; stroke-linejoin: miter; stroke-linecap: square"/>
   </g>
   <g id="patch_6">
    <path d="M 54.441172 23.926313 
L 458.28 23.926313 
" style="fill: none; stroke: #000000; stroke-width: 0.8; stroke-linejoin: miter; stroke-linecap: square"/>
   </g>
   <g id="text_9">
    <text style="font-size: 10.8px; font-family: 'DejaVu Serif', 'Bitstream Vera Serif', 'Computer Modern Roman', 'New Century Schoolbook', 'Century Schoolbook L', 'Utopia', 'ITC Bookman', 'Bookman', 'Nimbus Roman No9 L', 'Times New Roman', 'Times', 'Palatino', 'Charter', serif; text-anchor: middle" x="256.360586" y="17.926313" transform="rotate(-0 256.360586 17.926313)">Share plant r → α: full-order vs simplified design model</text>
   </g>
   <g id="legend_1">
    <g id="patch_7">
     <path d="M 60.741172 203.88175 
L 244.403047 203.88175 
Q 246.203047 203.88175 246.203047 202.08175 
L 246.203047 162.479641 
Q 246.203047 160.679641 244.403047 160.679641 
L 60.741172 160.679641 
Q 58.941172 160.679641 58.941172 162.479641 
L 58.941172 202.08175 
Q 58.941172 203.88175 60.741172 203.88175 
z
" style="fill: #ffffff; opacity: 0.8; stroke: #cccccc; stroke-linejoin: miter"/>
    </g>
    <g id="patch_8">
     <path d="M 62.541172 171.118234 
L 80.541172 171.118234 
L 80.541172 164.818234 
L 62.541172 164.818234 
z
" style="fill: #d9d9d9; stroke: #d9d9d9; stroke-linejoin: miter"/>
    </g>
    <g id="text_10">
     <text style="font-size: 9px; font-family: 'DejaVu Serif', 'Bitstream Vera Serif', 'Computer Modern Roman', 'New Century Schoolbook', 'Century Schoolbook L', 'Utopia', 'ITC Bookman', 'Bookman', 'Nimbus Roman No9 L', 'Times New Roman', 'Times', 'Palatino', 'Charter', serif; text-anchor: start" x="87.741172" y="171.118234" transform="rotate(-0 87.741172 171.118234)">simplified corner family</text>
    </g>
    <g id="line2d_84">
     <path d="M 62.541172 181.468938 
L 71.541172 181.468938 
L 80.541172 181.468938 
" style="fill: none; stroke-dasharray: 5.55,2.4; stroke-dashoffset: 0; stroke: #0000ff; stroke-width: 1.5"/>
    </g>
    <g id="text_11">
     <text style="font-size: 9px; font-family: 'DejaVu Serif', 'Bitstream Vera Serif', 'Computer Modern Roman', 'New Century Schoolbook', 'Century Schoolbook L', 'Utopia', 'ITC Bookman', 'Bookman', 'Nimbus Roman No9 L', 'Times New Roman', 'Times', 'Palatino', 'Charter', serif; text-anchor: start" x="87.741172" y="184.618938" transform="rotate(-0 87.741172 184.618938)">simplified nominal</text>
    </g>
    <g id="line2d_85">
     <path d="M 62.541172 194.969641 
L 71.541172 194.969641 
L 80.541172 194.969641 
" style="fill: none; stroke: #ff0000; stroke-width: 1.2; stroke-linecap: square"/>
    </g>
    <g id="text_12">
     <text style="font-size: 9px; font-family: 'DejaVu Serif', 'Bitstream Vera Serif', 'Computer Modern Roman', 'New Century Schoolbook', 'Century Schoolbook L', 'Utopia', 'ITC Bookman', 'Bookman', 'Nimbus Roman No9 L', 'Times New Roman', 'Times', 'Palatino', 'Charter', serif; text-anchor: start" x="87.741172" y="198.119641" transform="rotate(-0 87.741172 198.119641)">full-order (TPS61288 DS §9.2.2.5)</text>
    </g>
   </g>
  </g>
  <g id="axes_2">
   <g id="patch_9">
    <path d="M 54.441172 406.057187 
L 458.28 406.057187 
L 458.28 221.60175 
L 54.441172 221.60175 
z
" style="fill: #ffffff"/>
   </g>
   <g id="matplotlib.axis_3">
    <g id="xtick_60">
     <g id="line2d_86">
      <path d="M 72.797482 406.057187 
L 72.797482 221.60175 
" clip-path="url(#p8b523f967b)" style="fill: none; stroke: #b0b0b0; stroke-opacity: 0.3; stroke-width: 0.8; stroke-linecap: square"/>
     </g>
     <g id="line2d_87">
      <g>
       <use xlink:href="#m94527073b0" x="72.797482" y="406.057187" style="stroke: #000000; stroke-width: 0.8"/>
      </g>
     </g>
     <g id="text_13">
      <!-- $\mathdefault{10^{-1}}$ -->
      <g transform="translate(62.222482 421.517187)">
       <text>
        <tspan x="0" y="-0.60175" style="font-size: 9px; font-family: 'DejaVu Serif'">1</tspan>
        <tspan x="5.726074" y="-0.60175" style="font-size: 9px; font-family: 'DejaVu Serif'">0</tspan>
        <tspan x="11.538281" y="-4.31875" style="font-size: 6.3px; font-family: 'DejaVu Serif'">−</tspan>
        <tspan x="16.816992" y="-4.31875" style="font-size: 6.3px; font-family: 'DejaVu Serif'">1</tspan>
       </text>
      </g>
     </g>
    </g>
    <g id="xtick_61">
     <g id="line2d_88">
      <path d="M 133.985183 406.057187 
L 133.985183 221.60175 
" clip-path="url(#p8b523f967b)" style="fill: none; stroke: #b0b0b0; stroke-opacity: 0.3; stroke-width: 0.8; stroke-linecap: square"/>
     </g>
     <g id="line2d_89">
      <g>
       <use xlink:href="#m94527073b0" x="133.985183" y="406.057187" style="stroke: #000000; stroke-width: 0.8"/>
      </g>
     </g>
     <g id="text_14">
      <!-- $\mathdefault{10^{0}}$ -->
      <g transform="translate(126.065183 421.517187)">
       <text>
        <tspan x="0" y="-0.60175" style="font-size: 9px; font-family: 'DejaVu Serif'">1</tspan>
        <tspan x="5.726074" y="-0.60175" style="font-size: 9px; font-family: 'DejaVu Serif'">0</tspan>
        <tspan x="11.538281" y="-4.31875" style="font-size: 6.3px; font-family: 'DejaVu Serif'">0</tspan>
       </text>
      </g>
     </g>
    </g>
    <g id="xtick_62">
     <g id="line2d_90">
      <path d="M 195.172885 406.057187 
L 195.172885 221.60175 
" clip-path="url(#p8b523f967b)" style="fill: none; stroke: #b0b0b0; stroke-opacity: 0.3; stroke-width: 0.8; stroke-linecap: square"/>
     </g>
     <g id="line2d_91">
      <g>
       <use xlink:href="#m94527073b0" x="195.172885" y="406.057187" style="stroke: #000000; stroke-width: 0.8"/>
      </g>
     </g>
     <g id="text_15">
      <!-- $\mathdefault{10^{1}}$ -->
      <g transform="translate(187.252885 421.517187)">
       <text>
        <tspan x="0" y="-0.60175" style="font-size: 9px; font-family: 'DejaVu Serif'">1</tspan>
        <tspan x="5.726074" y="-0.60175" style="font-size: 9px; font-family: 'DejaVu Serif'">0</tspan>
        <tspan x="11.538281" y="-4.31875" style="font-size: 6.3px; font-family: 'DejaVu Serif'">1</tspan>
       </text>
      </g>
     </g>
    </g>
    <g id="xtick_63">
     <g id="line2d_92">
      <path d="M 256.360586 406.057187 
L 256.360586 221.60175 
" clip-path="url(#p8b523f967b)" style="fill: none; stroke: #b0b0b0; stroke-opacity: 0.3; stroke-width: 0.8; stroke-linecap: square"/>
     </g>
     <g id="line2d_93">
      <g>
       <use xlink:href="#m94527073b0" x="256.360586" y="406.057187" style="stroke: #000000; stroke-width: 0.8"/>
      </g>
     </g>
     <g id="text_16">
      <!-- $\mathdefault{10^{2}}$ -->
      <g transform="translate(248.440586 421.517187)">
       <text>
        <tspan x="0" y="-0.60175" style="font-size: 9px; font-family: 'DejaVu Serif'">1</tspan>
        <tspan x="5.726074" y="-0.60175" style="font-size: 9px; font-family: 'DejaVu Serif'">0</tspan>
        <tspan x="11.538281" y="-4.31875" style="font-size: 6.3px; font-family: 'DejaVu Serif'">2</tspan>
       </text>
      </g>
     </g>
    </g>
    <g id="xtick_64">
     <g id="line2d_94">
      <path d="M 317.548287 406.057187 
L 317.548287 221.60175 
" clip-path="url(#p8b523f967b)" style="fill: none; stroke: #b0b0b0; stroke-opacity: 0.3; stroke-width: 0.8; stroke-linecap: square"/>
     </g>
     <g id="line2d_95">
      <g>
       <use xlink:href="#m94527073b0" x="317.548287" y="406.057187" style="stroke: #000000; stroke-width: 0.8"/>
      </g>
     </g>
     <g id="text_17">
      <!-- $\mathdefault{10^{3}}$ -->
      <g transform="translate(309.628287 421.517187)">
       <text>
        <tspan x="0" y="-0.60175" style="font-size: 9px; font-family: 'DejaVu Serif'">1</tspan>
        <tspan x="5.726074" y="-0.60175" style="font-size: 9px; font-family: 'DejaVu Serif'">0</tspan>
        <tspan x="11.538281" y="-4.31875" style="font-size: 6.3px; font-family: 'DejaVu Serif'">3</tspan>
       </text>
      </g>
     </g>
    </g>
    <g id="xtick_65">
     <g id="line2d_96">
      <path d="M 378.735988 406.057187 
L 378.735988 221.60175 
" clip-path="url(#p8b523f967b)" style="fill: none; stroke: #b0b0b0; stroke-opacity: 0.3; stroke-width: 0.8; stroke-linecap: square"/>
     </g>
     <g id="line2d_97">
      <g>
       <use xlink:href="#m94527073b0" x="378.735988" y="406.057187" style="stroke: #000000; stroke-width: 0.8"/>
      </g>
     </g>
     <g id="text_18">
      <!-- $\mathdefault{10^{4}}$ -->
      <g transform="translate(370.815988 421.517187)">
       <text>
        <tspan x="0" y="-0.60175" style="font-size: 9px; font-family: 'DejaVu Serif'">1</tspan>
        <tspan x="5.726074" y="-0.60175" style="font-size: 9px; font-family: 'DejaVu Serif'">0</tspan>
        <tspan x="11.538281" y="-4.31875" style="font-size: 6.3px; font-family: 'DejaVu Serif'">4</tspan>
       </text>
      </g>
     </g>
    </g>
    <g id="xtick_66">
     <g id="line2d_98">
      <path d="M 439.92369 406.057187 
L 439.92369 221.60175 
" clip-path="url(#p8b523f967b)" style="fill: none; stroke: #b0b0b0; stroke-opacity: 0.3; stroke-width: 0.8; stroke-linecap: square"/>
     </g>
     <g id="line2d_99">
      <g>
       <use xlink:href="#m94527073b0" x="439.92369" y="406.057187" style="stroke: #000000; stroke-width: 0.8"/>
      </g>
     </g>
     <g id="text_19">
      <!-- $\mathdefault{10^{5}}$ -->
      <g transform="translate(432.00369 421.427188)">
       <text>
        <tspan x="0" y="-0.68925" style="font-size: 9px; font-family: 'DejaVu Serif'">1</tspan>
        <tspan x="5.726074" y="-0.68925" style="font-size: 9px; font-family: 'DejaVu Serif'">0</tspan>
        <tspan x="11.538281" y="-4.40625" style="font-size: 6.3px; font-family: 'DejaVu Serif'">5</tspan>
       </text>
      </g>
     </g>
    </g>
    <g id="xtick_67">
     <g id="line2d_100">
      <g>
       <use xlink:href="#m2117adb507" x="59.223067" y="406.057187" style="stroke: #000000; stroke-width: 0.6"/>
      </g>
     </g>
    </g>
    <g id="xtick_68">
     <g id="line2d_101">
      <g>
       <use xlink:href="#m2117adb507" x="63.319387" y="406.057187" style="stroke: #000000; stroke-width: 0.6"/>
      </g>
     </g>
    </g>
    <g id="xtick_69">
     <g id="line2d_102">
      <g>
       <use xlink:href="#m2117adb507" x="66.867781" y="406.057187" style="stroke: #000000; stroke-width: 0.6"/>
      </g>
     </g>
    </g>
    <g id="xtick_70">
     <g id="line2d_103">
      <g>
       <use xlink:href="#m2117adb507" x="69.997687" y="406.057187" style="stroke: #000000; stroke-width: 0.6"/>
      </g>
     </g>
    </g>
    <g id="xtick_71">
     <g id="line2d_104">
      <g>
       <use xlink:href="#m2117adb507" x="91.216816" y="406.057187" style="stroke: #000000; stroke-width: 0.6"/>
      </g>
     </g>
    </g>
    <g id="xtick_72">
     <g id="line2d_105">
      <g>
       <use xlink:href="#m2117adb507" x="101.991435" y="406.057187" style="stroke: #000000; stroke-width: 0.6"/>
      </g>
     </g>
    </g>
    <g id="xtick_73">
     <g id="line2d_106">
      <g>
       <use xlink:href="#m2117adb507" x="109.636149" y="406.057187" style="stroke: #000000; stroke-width: 0.6"/>
      </g>
     </g>
    </g>
    <g id="xtick_74">
     <g id="line2d_107">
      <g>
       <use xlink:href="#m2117adb507" x="115.56585" y="406.057187" style="stroke: #000000; stroke-width: 0.6"/>
      </g>
     </g>
    </g>
    <g id="xtick_75">
     <g id="line2d_108">
      <g>
       <use xlink:href="#m2117adb507" x="120.410768" y="406.057187" style="stroke: #000000; stroke-width: 0.6"/>
      </g>
     </g>
    </g>
    <g id="xtick_76">
     <g id="line2d_109">
      <g>
       <use xlink:href="#m2117adb507" x="124.507089" y="406.057187" style="stroke: #000000; stroke-width: 0.6"/>
      </g>
     </g>
    </g>
    <g id="xtick_77">
     <g id="line2d_110">
      <g>
       <use xlink:href="#m2117adb507" x="128.055483" y="406.057187" style="stroke: #000000; stroke-width: 0.6"/>
      </g>
     </g>
    </g>
    <g id="xtick_78">
     <g id="line2d_111">
      <g>
       <use xlink:href="#m2117adb507" x="131.185388" y="406.057187" style="stroke: #000000; stroke-width: 0.6"/>
      </g>
     </g>
    </g>
    <g id="xtick_79">
     <g id="line2d_112">
      <g>
       <use xlink:href="#m2117adb507" x="152.404517" y="406.057187" style="stroke: #000000; stroke-width: 0.6"/>
      </g>
     </g>
    </g>
    <g id="xtick_80">
     <g id="line2d_113">
      <g>
       <use xlink:href="#m2117adb507" x="163.179136" y="406.057187" style="stroke: #000000; stroke-width: 0.6"/>
      </g>
     </g>
    </g>
    <g id="xtick_81">
     <g id="line2d_114">
      <g>
       <use xlink:href="#m2117adb507" x="170.82385" y="406.057187" style="stroke: #000000; stroke-width: 0.6"/>
      </g>
     </g>
    </g>
    <g id="xtick_82">
     <g id="line2d_115">
      <g>
       <use xlink:href="#m2117adb507" x="176.753551" y="406.057187" style="stroke: #000000; stroke-width: 0.6"/>
      </g>
     </g>
    </g>
    <g id="xtick_83">
     <g id="line2d_116">
      <g>
       <use xlink:href="#m2117adb507" x="181.59847" y="406.057187" style="stroke: #000000; stroke-width: 0.6"/>
      </g>
     </g>
    </g>
    <g id="xtick_84">
     <g id="line2d_117">
      <g>
       <use xlink:href="#m2117adb507" x="185.69479" y="406.057187" style="stroke: #000000; stroke-width: 0.6"/>
      </g>
     </g>
    </g>
    <g id="xtick_85">
     <g id="line2d_118">
      <g>
       <use xlink:href="#m2117adb507" x="189.243184" y="406.057187" style="stroke: #000000; stroke-width: 0.6"/>
      </g>
     </g>
    </g>
    <g id="xtick_86">
     <g id="line2d_119">
      <g>
       <use xlink:href="#m2117adb507" x="192.373089" y="406.057187" style="stroke: #000000; stroke-width: 0.6"/>
      </g>
     </g>
    </g>
    <g id="xtick_87">
     <g id="line2d_120">
      <g>
       <use xlink:href="#m2117adb507" x="213.592218" y="406.057187" style="stroke: #000000; stroke-width: 0.6"/>
      </g>
     </g>
    </g>
    <g id="xtick_88">
     <g id="line2d_121">
      <g>
       <use xlink:href="#m2117adb507" x="224.366837" y="406.057187" style="stroke: #000000; stroke-width: 0.6"/>
      </g>
     </g>
    </g>
    <g id="xtick_89">
     <g id="line2d_122">
      <g>
       <use xlink:href="#m2117adb507" x="232.011552" y="406.057187" style="stroke: #000000; stroke-width: 0.6"/>
      </g>
     </g>
    </g>
    <g id="xtick_90">
     <g id="line2d_123">
      <g>
       <use xlink:href="#m2117adb507" x="237.941253" y="406.057187" style="stroke: #000000; stroke-width: 0.6"/>
      </g>
     </g>
    </g>
    <g id="xtick_91">
     <g id="line2d_124">
      <g>
       <use xlink:href="#m2117adb507" x="242.786171" y="406.057187" style="stroke: #000000; stroke-width: 0.6"/>
      </g>
     </g>
    </g>
    <g id="xtick_92">
     <g id="line2d_125">
      <g>
       <use xlink:href="#m2117adb507" x="246.882491" y="406.057187" style="stroke: #000000; stroke-width: 0.6"/>
      </g>
     </g>
    </g>
    <g id="xtick_93">
     <g id="line2d_126">
      <g>
       <use xlink:href="#m2117adb507" x="250.430885" y="406.057187" style="stroke: #000000; stroke-width: 0.6"/>
      </g>
     </g>
    </g>
    <g id="xtick_94">
     <g id="line2d_127">
      <g>
       <use xlink:href="#m2117adb507" x="253.56079" y="406.057187" style="stroke: #000000; stroke-width: 0.6"/>
      </g>
     </g>
    </g>
    <g id="xtick_95">
     <g id="line2d_128">
      <g>
       <use xlink:href="#m2117adb507" x="274.779919" y="406.057187" style="stroke: #000000; stroke-width: 0.6"/>
      </g>
     </g>
    </g>
    <g id="xtick_96">
     <g id="line2d_129">
      <g>
       <use xlink:href="#m2117adb507" x="285.554539" y="406.057187" style="stroke: #000000; stroke-width: 0.6"/>
      </g>
     </g>
    </g>
    <g id="xtick_97">
     <g id="line2d_130">
      <g>
       <use xlink:href="#m2117adb507" x="293.199253" y="406.057187" style="stroke: #000000; stroke-width: 0.6"/>
      </g>
     </g>
    </g>
    <g id="xtick_98">
     <g id="line2d_131">
      <g>
       <use xlink:href="#m2117adb507" x="299.128954" y="406.057187" style="stroke: #000000; stroke-width: 0.6"/>
      </g>
     </g>
    </g>
    <g id="xtick_99">
     <g id="line2d_132">
      <g>
       <use xlink:href="#m2117adb507" x="303.973872" y="406.057187" style="stroke: #000000; stroke-width: 0.6"/>
      </g>
     </g>
    </g>
    <g id="xtick_100">
     <g id="line2d_133">
      <g>
       <use xlink:href="#m2117adb507" x="308.070192" y="406.057187" style="stroke: #000000; stroke-width: 0.6"/>
      </g>
     </g>
    </g>
    <g id="xtick_101">
     <g id="line2d_134">
      <g>
       <use xlink:href="#m2117adb507" x="311.618586" y="406.057187" style="stroke: #000000; stroke-width: 0.6"/>
      </g>
     </g>
    </g>
    <g id="xtick_102">
     <g id="line2d_135">
      <g>
       <use xlink:href="#m2117adb507" x="314.748492" y="406.057187" style="stroke: #000000; stroke-width: 0.6"/>
      </g>
     </g>
    </g>
    <g id="xtick_103">
     <g id="line2d_136">
      <g>
       <use xlink:href="#m2117adb507" x="335.967621" y="406.057187" style="stroke: #000000; stroke-width: 0.6"/>
      </g>
     </g>
    </g>
    <g id="xtick_104">
     <g id="line2d_137">
      <g>
       <use xlink:href="#m2117adb507" x="346.74224" y="406.057187" style="stroke: #000000; stroke-width: 0.6"/>
      </g>
     </g>
    </g>
    <g id="xtick_105">
     <g id="line2d_138">
      <g>
       <use xlink:href="#m2117adb507" x="354.386954" y="406.057187" style="stroke: #000000; stroke-width: 0.6"/>
      </g>
     </g>
    </g>
    <g id="xtick_106">
     <g id="line2d_139">
      <g>
       <use xlink:href="#m2117adb507" x="360.316655" y="406.057187" style="stroke: #000000; stroke-width: 0.6"/>
      </g>
     </g>
    </g>
    <g id="xtick_107">
     <g id="line2d_140">
      <g>
       <use xlink:href="#m2117adb507" x="365.161573" y="406.057187" style="stroke: #000000; stroke-width: 0.6"/>
      </g>
     </g>
    </g>
    <g id="xtick_108">
     <g id="line2d_141">
      <g>
       <use xlink:href="#m2117adb507" x="369.257894" y="406.057187" style="stroke: #000000; stroke-width: 0.6"/>
      </g>
     </g>
    </g>
    <g id="xtick_109">
     <g id="line2d_142">
      <g>
       <use xlink:href="#m2117adb507" x="372.806287" y="406.057187" style="stroke: #000000; stroke-width: 0.6"/>
      </g>
     </g>
    </g>
    <g id="xtick_110">
     <g id="line2d_143">
      <g>
       <use xlink:href="#m2117adb507" x="375.936193" y="406.057187" style="stroke: #000000; stroke-width: 0.6"/>
      </g>
     </g>
    </g>
    <g id="xtick_111">
     <g id="line2d_144">
      <g>
       <use xlink:href="#m2117adb507" x="397.155322" y="406.057187" style="stroke: #000000; stroke-width: 0.6"/>
      </g>
     </g>
    </g>
    <g id="xtick_112">
     <g id="line2d_145">
      <g>
       <use xlink:href="#m2117adb507" x="407.929941" y="406.057187" style="stroke: #000000; stroke-width: 0.6"/>
      </g>
     </g>
    </g>
    <g id="xtick_113">
     <g id="line2d_146">
      <g>
       <use xlink:href="#m2117adb507" x="415.574655" y="406.057187" style="stroke: #000000; stroke-width: 0.6"/>
      </g>
     </g>
    </g>
    <g id="xtick_114">
     <g id="line2d_147">
      <g>
       <use xlink:href="#m2117adb507" x="421.504356" y="406.057187" style="stroke: #000000; stroke-width: 0.6"/>
      </g>
     </g>
    </g>
    <g id="xtick_115">
     <g id="line2d_148">
      <g>
       <use xlink:href="#m2117adb507" x="426.349275" y="406.057187" style="stroke: #000000; stroke-width: 0.6"/>
      </g>
     </g>
    </g>
    <g id="xtick_116">
     <g id="line2d_149">
      <g>
       <use xlink:href="#m2117adb507" x="430.445595" y="406.057187" style="stroke: #000000; stroke-width: 0.6"/>
      </g>
     </g>
    </g>
    <g id="xtick_117">
     <g id="line2d_150">
      <g>
       <use xlink:href="#m2117adb507" x="433.993989" y="406.057187" style="stroke: #000000; stroke-width: 0.6"/>
      </g>
     </g>
    </g>
    <g id="xtick_118">
     <g id="line2d_151">
      <g>
       <use xlink:href="#m2117adb507" x="437.123894" y="406.057187" style="stroke: #000000; stroke-width: 0.6"/>
      </g>
     </g>
    </g>
    <g id="text_20">
     <text style="font-size: 9px; font-family: 'DejaVu Serif', 'Bitstream Vera Serif', 'Computer Modern Roman', 'New Century Schoolbook', 'Century Schoolbook L', 'Utopia', 'ITC Bookman', 'Bookman', 'Nimbus Roman No9 L', 'Times New Roman', 'Times', 'Palatino', 'Charter', serif; text-anchor: middle" x="256.360586" y="434.517891" transform="rotate(-0 256.360586 434.517891)">Frequency (rad/s)</text>
    </g>
   </g>
   <g id="matplotlib.axis_4">
    <g id="ytick_8">
     <g id="line2d_152">
      <path d="M 54.441172 401.327561 
L 458.28 401.327561 
" clip-path="url(#p8b523f967b)" style="fill: none; stroke: #b0b0b0; stroke-opacity: 0.3; stroke-width: 0.8; stroke-linecap: square"/>
     </g>
     <g id="line2d_153">
      <g>
       <use xlink:href="#m9ee7a620ad" x="54.441172" y="401.327561" style="stroke: #000000; stroke-width: 0.8"/>
      </g>
     </g>
     <g id="text_21">
      <text style="font-size: 9px; font-family: 'DejaVu Serif', 'Bitstream Vera Serif', 'Computer Modern Roman', 'New Century Schoolbook', 'Century Schoolbook L', 'Utopia', 'ITC Bookman', 'Bookman', 'Nimbus Roman No9 L', 'Times New Roman', 'Times', 'Palatino', 'Charter', serif; text-anchor: end" x="47.441172" y="404.746506" transform="rotate(-0 47.441172 404.746506)">−350</text>
     </g>
    </g>
    <g id="ytick_9">
     <g id="line2d_154">
      <path d="M 54.441172 377.679428 
L 458.28 377.679428 
" clip-path="url(#p8b523f967b)" style="fill: none; stroke: #b0b0b0; stroke-opacity: 0.3; stroke-width: 0.8; stroke-linecap: square"/>
     </g>
     <g id="line2d_155">
      <g>
       <use xlink:href="#m9ee7a620ad" x="54.441172" y="377.679428" style="stroke: #000000; stroke-width: 0.8"/>
      </g>
     </g>
     <g id="text_22">
      <text style="font-size: 9px; font-family: 'DejaVu Serif', 'Bitstream Vera Serif', 'Computer Modern Roman', 'New Century Schoolbook', 'Century Schoolbook L', 'Utopia', 'ITC Bookman', 'Bookman', 'Nimbus Roman No9 L', 'Times New Roman', 'Times', 'Palatino', 'Charter', serif; text-anchor: end" x="47.441172" y="381.098373" transform="rotate(-0 47.441172 381.098373)">−300</text>
     </g>
    </g>
    <g id="ytick_10">
     <g id="line2d_156">
      <path d="M 54.441172 354.031295 
L 458.28 354.031295 
" clip-path="url(#p8b523f967b)" style="fill: none; stroke: #b0b0b0; stroke-opacity: 0.3; stroke-width: 0.8; stroke-linecap: square"/>
     </g>
     <g id="line2d_157">
      <g>
       <use xlink:href="#m9ee7a620ad" x="54.441172" y="354.031295" style="stroke: #000000; stroke-width: 0.8"/>
      </g>
     </g>
     <g id="text_23">
      <text style="font-size: 9px; font-family: 'DejaVu Serif', 'Bitstream Vera Serif', 'Computer Modern Roman', 'New Century Schoolbook', 'Century Schoolbook L', 'Utopia', 'ITC Bookman', 'Bookman', 'Nimbus Roman No9 L', 'Times New Roman', 'Times', 'Palatino', 'Charter', serif; text-anchor: end" x="47.441172" y="357.45024" transform="rotate(-0 47.441172 357.45024)">−250</text>
     </g>
    </g>
    <g id="ytick_11">
     <g id="line2d_158">
      <path d="M 54.441172 330.383162 
L 458.28 330.383162 
" clip-path="url(#p8b523f967b)" style="fill: none; stroke: #b0b0b0; stroke-opacity: 0.3; stroke-width: 0.8; stroke-linecap: square"/>
     </g>
     <g id="line2d_159">
      <g>
       <use xlink:href="#m9ee7a620ad" x="54.441172" y="330.383162" style="stroke: #000000; stroke-width: 0.8"/>
      </g>
     </g>
     <g id="text_24">
      <text style="font-size: 9px; font-family: 'DejaVu Serif', 'Bitstream Vera Serif', 'Computer Modern Roman', 'New Century Schoolbook', 'Century Schoolbook L', 'Utopia', 'ITC Bookman', 'Bookman', 'Nimbus Roman No9 L', 'Times New Roman', 'Times', 'Palatino', 'Charter', serif; text-anchor: end" x="47.441172" y="333.802107" transform="rotate(-0 47.441172 333.802107)">−200</text>
     </g>
    </g>
    <g id="ytick_12">
     <g id="line2d_160">
      <path d="M 54.441172 306.735029 
L 458.28 306.735029 
" clip-path="url(#p8b523f967b)" style="fill: none; stroke: #b0b0b0; stroke-opacity: 0.3; stroke-width: 0.8; stroke-linecap: square"/>
     </g>
     <g id="line2d_161">
      <g>
       <use xlink:href="#m9ee7a620ad" x="54.441172" y="306.735029" style="stroke: #000000; stroke-width: 0.8"/>
      </g>
     </g>
     <g id="text_25">
      <text style="font-size: 9px; font-family: 'DejaVu Serif', 'Bitstream Vera Serif', 'Computer Modern Roman', 'New Century Schoolbook', 'Century Schoolbook L', 'Utopia', 'ITC Bookman', 'Bookman', 'Nimbus Roman No9 L', 'Times New Roman', 'Times', 'Palatino', 'Charter', serif; text-anchor: end" x="47.441172" y="310.153974" transform="rotate(-0 47.441172 310.153974)">−150</text>
     </g>
    </g>
    <g id="ytick_13">
     <g id="line2d_162">
      <path d="M 54.441172 283.086896 
L 458.28 283.086896 
" clip-path="url(#p8b523f967b)" style="fill: none; stroke: #b0b0b0; stroke-opacity: 0.3; stroke-width: 0.8; stroke-linecap: square"/>
     </g>
     <g id="line2d_163">
      <g>
       <use xlink:href="#m9ee7a620ad" x="54.441172" y="283.086896" style="stroke: #000000; stroke-width: 0.8"/>
      </g>
     </g>
     <g id="text_26">
      <text style="font-size: 9px; font-family: 'DejaVu Serif', 'Bitstream Vera Serif', 'Computer Modern Roman', 'New Century Schoolbook', 'Century Schoolbook L', 'Utopia', 'ITC Bookman', 'Bookman', 'Nimbus Roman No9 L', 'Times New Roman', 'Times', 'Palatino', 'Charter', serif; text-anchor: end" x="47.441172" y="286.505841" transform="rotate(-0 47.441172 286.505841)">−100</text>
     </g>
    </g>
    <g id="ytick_14">
     <g id="line2d_164">
      <path d="M 54.441172 259.438763 
L 458.28 259.438763 
" clip-path="url(#p8b523f967b)" style="fill: none; stroke: #b0b0b0; stroke-opacity: 0.3; stroke-width: 0.8; stroke-linecap: square"/>
     </g>
     <g id="line2d_165">
      <g>
       <use xlink:href="#m9ee7a620ad" x="54.441172" y="259.438763" style="stroke: #000000; stroke-width: 0.8"/>
      </g>
     </g>
     <g id="text_27">
      <text style="font-size: 9px; font-family: 'DejaVu Serif', 'Bitstream Vera Serif', 'Computer Modern Roman', 'New Century Schoolbook', 'Century Schoolbook L', 'Utopia', 'ITC Bookman', 'Bookman', 'Nimbus Roman No9 L', 'Times New Roman', 'Times', 'Palatino', 'Charter', serif; text-anchor: end" x="47.441172" y="262.857708" transform="rotate(-0 47.441172 262.857708)">−50</text>
     </g>
    </g>
    <g id="ytick_15">
     <g id="line2d_166">
      <path d="M 54.441172 235.79063 
L 458.28 235.79063 
" clip-path="url(#p8b523f967b)" style="fill: none; stroke: #b0b0b0; stroke-opacity: 0.3; stroke-width: 0.8; stroke-linecap: square"/>
     </g>
     <g id="line2d_167">
      <g>
       <use xlink:href="#m9ee7a620ad" x="54.441172" y="235.79063" style="stroke: #000000; stroke-width: 0.8"/>
      </g>
     </g>
     <g id="text_28">
      <text style="font-size: 9px; font-family: 'DejaVu Serif', 'Bitstream Vera Serif', 'Computer Modern Roman', 'New Century Schoolbook', 'Century Schoolbook L', 'Utopia', 'ITC Bookman', 'Bookman', 'Nimbus Roman No9 L', 'Times New Roman', 'Times', 'Palatino', 'Charter', serif; text-anchor: end" x="47.441172" y="239.209575" transform="rotate(-0 47.441172 239.209575)">0</text>
     </g>
    </g>
    <g id="text_29">
     <text style="font-size: 9px; font-family: 'DejaVu Serif', 'Bitstream Vera Serif', 'Computer Modern Roman', 'New Century Schoolbook', 'Century Schoolbook L', 'Utopia', 'ITC Bookman', 'Bookman', 'Nimbus Roman No9 L', 'Times New Roman', 'Times', 'Palatino', 'Charter', serif; text-anchor: middle" x="16.558594" y="313.829469" transform="rotate(-90 16.558594 313.829469)">Phase (deg)</text>
    </g>
   </g>
   <g id="line2d_168">
    <path d="M 72.797482 235.793468 
L 179.530916 235.956167 
L 204.374046 236.21204 
L 220.936128 236.576694 
L 233.817746 237.066683 
L 243.939022 237.658359 
L 252.220064 238.341317 
L 259.580994 239.155759 
L 266.021804 240.078509 
L 271.542491 241.06842 
L 277.063195 242.287245 
L 281.663768 243.515056 
L 286.264353 244.975092 
L 289.944815 246.339116 
L 293.625274 247.905568 
L 297.305737 249.704718 
L 300.986204 251.771092 
L 304.666665 254.143 
L 307.427012 256.149308 
L 310.187359 258.374124 
L 312.94771 260.840151 
L 315.708054 263.572456 
L 318.468409 266.597526 
L 321.228745 269.944209 
L 323.989098 273.642304 
L 326.749449 277.720189 
L 329.50979 282.205293 
L 332.270134 287.121267 
L 335.030491 292.482299 
L 337.790829 298.291699 
L 340.551181 304.532915 
L 344.231648 313.459139 
L 346.991996 320.520472 
L 347.912108 152.660348 
L 361.713846 188.877464 
L 365.394309 197.711933 
L 369.074773 205.954253 
L 372.755234 213.574155 
L 376.4357 220.573529 
L 380.116151 226.971295 
L 383.796625 232.792992 
L 386.55697 236.79804 
L 389.31732 240.507013 
L 392.077661 243.932209 
L 394.838019 247.08687 
L 397.598361 249.985185 
L 400.358704 252.640398 
L 404.03917 255.829112 
L 407.719632 258.648442 
L 411.400098 261.132915 
L 415.08056 263.317057 
L 418.761025 265.233028 
L 422.441491 266.910627 
L 426.121952 268.377757 
L 430.722531 269.954142 
L 435.323112 271.28364 
L 439.92369 272.404561 
L 439.92369 272.404561 
" clip-path="url(#p8b523f967b)" style="fill: none; stroke-dasharray: 5.55,2.4; stroke-dashoffset: 0; stroke: #0000ff; stroke-width: 1.5"/>
   </g>
   <g id="line2d_169">
    <path d="M 72.797482 235.793468 
L 170.329755 235.904141 
L 201.613696 236.159541 
L 219.095898 236.502912 
L 232.897633 236.987698 
L 243.939022 237.604442 
L 253.140181 238.355033 
L 260.50111 239.173732 
L 266.941917 240.101684 
L 272.462617 241.096798 
L 277.983302 242.321771 
L 282.583888 243.556204 
L 287.184464 245.023334 
L 291.785043 246.76762 
L 295.465508 248.396977 
L 299.145971 250.268017 
L 302.826434 252.41574 
L 306.506897 254.880349 
L 309.267244 256.963749 
L 312.027594 259.272753 
L 314.787939 261.830062 
L 317.548287 264.660744 
L 320.308637 267.790337 
L 323.068984 271.246749 
L 325.829336 275.05599 
L 328.589672 279.243601 
L 331.35002 283.830866 
L 334.110375 288.830081 
L 336.870718 294.243612 
L 340.551181 302.075874 
L 344.231648 310.514473 
L 347.912108 319.37874 
L 348.832221 151.366795 
L 356.193149 169.24904 
L 359.873616 177.638925 
L 362.633963 183.507918 
L 365.394309 188.950773 
L 368.154657 193.940056 
L 370.915005 198.468673 
L 373.675352 202.54703 
L 376.4357 206.198775 
L 379.196036 209.453231 
L 381.956396 212.345871 
L 384.716746 214.912639 
L 387.477079 217.189008 
L 390.237441 219.208559 
L 392.997783 221.002033 
L 396.678243 223.090163 
L 400.358704 224.884584 
L 404.03917 226.432591 
L 408.639756 228.083703 
L 413.240335 229.477997 
L 418.761025 230.884115 
L 424.281721 232.066522 
L 431.642646 233.390344 
L 439.92369 234.658357 
L 439.92369 234.658357 
" clip-path="url(#p8b523f967b)" style="fill: none; stroke: #ff0000; stroke-width: 1.2; stroke-linecap: square"/>
   </g>
   <g id="line2d_170">
    <path d="M 320.08101 406.057187 
L 320.08101 221.60175 
" clip-path="url(#p8b523f967b)" style="fill: none; stroke-dasharray: 0.8,1.32; stroke-dashoffset: 0; stroke: #000000; stroke-width: 0.8"/>
   </g>
   <g id="patch_10">
    <path d="M 54.441172 406.057187 
L 54.441172 221.60175 
" style="fill: none; stroke: #000000; stroke-width: 0.8; stroke-linejoin: miter; stroke-linecap: square"/>
   </g>
   <g id="patch_11">
    <path d="M 458.28 406.057187 
L 458.28 221.60175 
" style="fill: none; stroke: #000000; stroke-width: 0.8; stroke-linejoin: miter; stroke-linecap: square"/>
   </g>
   <g id="patch_12">
    <path d="M 54.441172 406.057187 
L 458.28 406.057187 
" style="fill: none; stroke: #000000; stroke-width: 0.8; stroke-linejoin: miter; stroke-linecap: square"/>
   </g>
   <g id="patch_13">
    <path d="M 54.441172 221.60175 
L 458.28 221.60175 
" style="fill: none; stroke: #000000; stroke-width: 0.8; stroke-linejoin: miter; stroke-linecap: square"/>
   </g>
   <g id="legend_2">
    <g id="patch_14">
     <path d="M 60.741172 401.557187 
L 173.712266 401.557187 
Q 175.512266 401.557187 175.512266 399.757187 
L 175.512266 373.655781 
Q 175.512266 371.855781 173.712266 371.855781 
L 60.741172 371.855781 
Q 58.941172 371.855781 58.941172 373.655781 
L 58.941172 399.757187 
Q 58.941172 401.557187 60.741172 401.557187 
z
" style="fill: #ffffff; opacity: 0.8; stroke: #cccccc; stroke-linejoin: miter"/>
    </g>
    <g id="line2d_171">
     <path d="M 62.541172 379.144375 
L 71.541172 379.144375 
L 80.541172 379.144375 
" style="fill: none; stroke-dasharray: 5.55,2.4; stroke-dashoffset: 0; stroke: #0000ff; stroke-width: 1.5"/>
    </g>
    <g id="text_30">
     <text style="font-size: 9px; font-family: 'DejaVu Serif', 'Bitstream Vera Serif', 'Computer Modern Roman', 'New Century Schoolbook', 'Century Schoolbook L', 'Utopia', 'ITC Bookman', 'Bookman', 'Nimbus Roman No9 L', 'Times New Roman', 'Times', 'Palatino', 'Charter', serif; text-anchor: start" x="87.741172" y="382.294375" transform="rotate(-0 87.741172 382.294375)">simplified nominal</text>
    </g>
    <g id="line2d_172">
     <path d="M 62.541172 392.645078 
L 71.541172 392.645078 
L 80.541172 392.645078 
" style="fill: none; stroke: #ff0000; stroke-width: 1.2; stroke-linecap: square"/>
    </g>
    <g id="text_31">
     <text style="font-size: 9px; font-family: 'DejaVu Serif', 'Bitstream Vera Serif', 'Computer Modern Roman', 'New Century Schoolbook', 'Century Schoolbook L', 'Utopia', 'ITC Bookman', 'Bookman', 'Nimbus Roman No9 L', 'Times New Roman', 'Times', 'Palatino', 'Charter', serif; text-anchor: start" x="87.741172" y="395.795078" transform="rotate(-0 87.741172 395.795078)">full-order</text>
    </g>
   </g>
  </g>
 </g>
 <defs>
  <clipPath id="p813783edb7">
   <rect x="54.441172" y="23.926313" width="403.838828" height="184.455437"/>
  </clipPath>
  <clipPath id="p8b523f967b">
   <rect x="54.441172" y="221.60175" width="403.838828" height="184.455437"/>
  </clipPath>
 </defs>
</svg>
